<svg width="71" height="81" viewBox="0 0 71 81" fill="none" xmlns="http://www.w3.org/2000/svg">
<path d="M0 45.4443C0 25.9921 15.7919 10.222 35.2766 10.222C54.3609 10.222 69.901 25.341 70.5352 44.2364C70.5487 44.636 70.5577 45.0401 70.5577 45.4443C70.5577 46.2346 70.5307 47.0114 70.4812 47.7882C70.3733 49.4272 70.1484 51.0392 69.8245 52.6108C69.6536 53.4416 69.4557 54.2588 69.2263 55.0626C68.5741 57.3527 67.7016 59.5529 66.6176 61.632C66.1948 62.4537 65.736 63.2619 65.2457 64.0433C64.4991 65.2377 63.6895 66.3782 62.8124 67.4694C62.2367 68.1834 61.634 68.8794 61.0043 69.5484C54.5679 76.3917 45.4237 80.6665 35.2766 80.6665C15.7919 80.6665 0 64.8964 0 45.4443Z" fill="#00A650"/>
<path d="M13.3677 65.1433C13.7995 64.7706 14.2627 64.829 14.7575 64.9817C16.3677 65.4756 17.96 66.0234 19.5882 66.4186C25.6243 67.8869 31.6784 68.0486 37.6785 66.2659C43.3458 64.582 48.0191 61.3355 51.9547 56.9709C52.238 56.6566 52.5169 56.3332 52.7598 55.8932C52.4584 55.9606 52.1526 56.0144 51.8602 56.0953C48.4643 56.9799 45.028 57.4244 41.5197 57.0427C39.1223 56.7823 36.8689 56.1087 34.9168 54.6224C34.5525 54.344 34.2871 54.0162 34.3771 53.5403C34.4671 53.0598 34.7864 52.75 35.2452 52.6152C38.6545 51.587 41.803 49.948 44.992 48.4168C46.6697 47.6085 48.3294 46.7643 50.1915 46.4365C52.7958 45.9875 55.391 46.0863 57.9773 46.4814C62.3582 47.155 66.4242 48.52 70.1709 50.5991C70.1125 50.9942 70.0495 51.3939 69.973 51.789C69.8291 52.5658 69.6627 53.3247 69.4738 54.0791C69.0735 55.6732 68.5607 57.2178 67.958 58.7042C67.6387 59.49 67.2968 60.2578 66.928 61.0077C65.871 63.1406 64.6161 65.1478 63.1768 66.9978C62.9609 67.2538 62.736 67.5052 62.5066 67.7567C61.4676 68.8972 60.3656 69.9659 59.2097 70.9628C54.7208 72.4536 50.3265 74.2318 45.995 76.1581C42.6261 77.6579 39.1538 77.9632 35.5375 77.3885C29.8568 76.4859 24.6123 74.4069 19.7276 71.4343C17.6046 70.1411 15.5896 68.6817 13.5476 67.2583C12.6885 66.661 12.6525 65.7405 13.3677 65.1298V65.1433Z" fill="white"/>
<path d="M42.8871 63.6435C41.8571 64.088 40.8451 64.5865 39.7881 64.9726C34.5976 66.872 29.2767 67.1909 23.8568 66.2209C21.1356 65.736 18.5133 64.9232 15.9585 63.8905C15.4773 63.6974 15.086 63.4055 15.0725 62.8217C15.059 62.3862 15.2434 62.027 15.6392 61.8608C15.9181 61.7396 16.2599 61.6543 16.5478 61.6992C17.7802 61.9012 19.0351 62.0494 20.218 62.4221C23.3215 63.392 26.4475 64.2452 29.6815 64.6448C33.3247 65.0939 36.9545 65.1163 40.5483 64.2632C41.3264 64.079 42.0865 63.8051 42.8557 63.5716L42.8916 63.648L42.8871 63.6435Z" fill="white"/>
<path d="M42.7835 62.9341C41.1283 63.6795 39.4146 64.1824 37.629 64.4204C32.416 65.1119 27.4548 64.2004 22.6916 62.054C22.1519 61.8115 21.6211 61.5466 21.0949 61.2772C20.7081 61.0751 20.4967 60.7518 20.6001 60.3028C20.7036 59.8582 21.0409 59.5798 21.4592 59.6382C22.3003 59.7505 23.1549 59.8852 23.9555 60.1546C25.9076 60.8102 27.8012 61.6409 29.7667 62.2336C33.5449 63.3652 37.3996 63.8906 41.3442 63.2484C41.8299 63.1676 42.3067 63.0419 42.7835 62.9386V62.9341Z" fill="white"/>
<path d="M42.7792 62.4266C41.5647 62.6197 40.3593 62.9116 39.1359 62.9924C34.8989 63.2753 31.0128 62.1347 27.4055 59.9524C27.0727 59.7504 26.7938 59.5169 26.9423 59.0813C27.0997 58.6323 27.482 58.5559 27.8733 58.6772C28.53 58.8792 29.2047 59.0768 29.8164 59.3866C32.5691 60.7831 35.4162 61.8833 38.4972 62.2874C39.1989 62.3817 39.9095 62.4401 40.6157 62.4446C41.3219 62.4446 42.028 62.3592 42.7342 62.3143C42.7477 62.3548 42.7612 62.3907 42.7747 62.4311L42.7792 62.4266Z" fill="white"/>
<path d="M31.7073 25.6364C32.5961 20.8019 29.3909 16.1635 24.5484 15.2762C19.7058 14.3889 15.0596 17.5887 14.1708 22.4232C13.282 27.2577 16.4872 31.8962 21.3298 32.7835C26.1724 33.6708 30.8186 30.4709 31.7073 25.6364Z" fill="#FCDE16"/>
<g style="mix-blend-mode:multiply">
<path d="M14.1368 25.4442L16.3453 25.0895C16.6106 26.7329 17.4877 28.2821 18.927 29.3598C21.8731 31.569 26.0606 30.9763 28.2735 28.0307C29.407 26.5219 29.8028 24.6943 29.5239 22.97L31.7324 22.6153C32.515 27.4694 29.2091 32.036 24.3514 32.8174C19.4893 33.5987 14.9149 30.2983 14.1323 25.4487L14.1368 25.4442Z" fill="#EEE5D1"/>
</g>
<g style="mix-blend-mode:multiply">
<path d="M23.8294 30.6332C27.4827 30.1414 30.0449 26.786 29.5523 23.1387C29.0596 19.4915 25.6987 16.9336 22.0453 17.4254C18.392 17.9172 15.8298 21.2726 16.3224 24.9198C16.8151 28.567 20.1761 31.125 23.8294 30.6332Z" fill="#DCC99E"/>
</g>
<g style="mix-blend-mode:multiply">
<path d="M27.0231 19.4721C24.077 17.2628 19.8895 17.8555 17.6765 20.8012C16.7095 22.0899 16.2777 23.6122 16.3452 25.1075C16.0618 23.3787 16.4576 21.5421 17.5956 20.0289C19.8085 17.0877 23.9915 16.4905 26.9421 18.6997C28.6018 19.9436 29.5149 21.8071 29.6048 23.7244C29.335 22.0855 28.4579 20.5453 27.0231 19.4721Z" fill="#DFCDA7"/>
</g>
<g style="mix-blend-mode:overlay">
<path d="M16.3677 25.2242C16.66 26.8183 17.5281 28.3091 18.927 29.3598C21.873 31.5691 26.0605 30.9763 28.2735 28.0307C29.326 26.6342 29.7398 24.9593 29.5733 23.3472C29.8927 25.1119 29.5059 26.9979 28.3454 28.5426C26.1325 31.4837 21.9495 32.081 18.9989 29.8717C17.4517 28.7132 16.5521 27.0069 16.3677 25.2242Z" fill="#FDE961"/>
</g>
<path d="M25.3679 25.8573C25.3679 25.4532 25.2734 25.1299 25.08 24.8829C24.8866 24.6359 24.6527 24.4473 24.3694 24.3216C24.086 24.1959 23.7352 24.0791 23.3034 23.9713V21.8923C23.8476 21.9687 24.3514 22.1977 24.8191 22.5793L25.2419 21.6813C25.017 21.4792 24.7427 21.3086 24.4188 21.1739C24.095 21.0391 23.7442 20.9493 23.3753 20.9044V19.8537H22.3993V20.9179C21.9945 20.9673 21.6392 21.0885 21.3288 21.2771C21.0185 21.4657 20.7756 21.6992 20.6047 21.9866C20.4337 22.2695 20.3438 22.5838 20.3438 22.9296C20.3438 23.3427 20.4427 23.6795 20.6406 23.9399C20.8385 24.2004 21.0859 24.3934 21.3783 24.5237C21.6707 24.6539 22.035 24.7751 22.4623 24.8829V26.8721C21.8146 26.8272 21.2164 26.5892 20.6586 26.1537L20.2358 27.0517C20.5102 27.2807 20.8296 27.4648 21.1984 27.5951C21.5672 27.7298 21.963 27.8106 22.3903 27.842V28.8838H23.3663V27.8196C23.9735 27.7298 24.4593 27.5097 24.8191 27.155C25.179 26.8003 25.3589 26.3647 25.3589 25.8483L25.3679 25.8573ZM21.5807 22.8622C21.5807 22.6153 21.6572 22.4042 21.8146 22.2381C21.972 22.0719 22.1879 21.9597 22.4623 21.9013V23.7468C22.1789 23.6525 21.963 23.5358 21.8101 23.3966C21.6572 23.2574 21.5807 23.0778 21.5807 22.8577V22.8622ZM23.3079 26.8227V25.1074C23.5777 25.1927 23.7801 25.2915 23.9196 25.4127C24.059 25.534 24.131 25.6956 24.131 25.8932C24.131 26.1402 24.059 26.3467 23.9196 26.4994C23.7801 26.6566 23.5732 26.7643 23.3079 26.8182V26.8227Z" fill="#DF9800"/>
<path d="M21.3964 22.6377C21.3964 22.3908 21.4728 22.1797 21.6303 22.0136C21.7877 21.8474 22.0036 21.7352 22.2779 21.6768V23.5223C21.9946 23.428 21.7787 23.3113 21.6258 23.1721C21.4728 23.0329 21.3964 22.8533 21.3964 22.6333V22.6377ZM23.1235 26.5982V24.8829C23.3934 24.9682 23.5958 25.067 23.7352 25.1883C23.8747 25.3095 23.9466 25.4712 23.9466 25.6687C23.9466 25.9157 23.8747 26.1223 23.7352 26.2749C23.5958 26.4321 23.3889 26.5399 23.1235 26.5937V26.5982ZM25.1836 25.6328C25.1836 25.2287 25.0891 24.9054 24.8957 24.6584C24.7023 24.4114 24.4684 24.2228 24.185 24.0971C23.9017 23.9714 23.5508 23.8546 23.119 23.7469V21.6678C23.6633 21.7442 24.167 21.9732 24.6348 22.3549L25.0576 21.4568C24.8327 21.2547 24.5584 21.0841 24.2345 20.9494C23.9107 20.8147 23.5598 20.7249 23.191 20.68V19.6292H22.215V20.6934C21.8102 20.7428 21.4548 20.8641 21.1445 21.0527C20.8341 21.2412 20.5913 21.4747 20.4203 21.7621C20.2494 22.045 20.1595 22.3593 20.1595 22.7051C20.1595 23.1182 20.2584 23.455 20.4563 23.7154C20.6542 23.9759 20.9016 24.169 21.194 24.2992C21.4863 24.4294 21.8507 24.5506 22.2779 24.6584V26.6476C21.6303 26.6027 21.032 26.3647 20.4743 25.9292L20.0515 26.8272C20.3259 27.0562 20.6452 27.2403 21.0141 27.3706C21.3829 27.5053 21.7787 27.5861 22.206 27.6175V28.6593H23.182V27.5951C23.7892 27.5053 24.275 27.2853 24.6348 26.9305C24.9946 26.5758 25.1746 26.1402 25.1746 25.6238L25.1836 25.6328Z" fill="#FFDE56"/>
<path d="M25.5838 14.2813C25.7008 14.2813 25.7997 14.187 25.7997 14.0657V11.3446C25.7997 11.2278 25.7053 11.129 25.5838 11.129C25.4624 11.129 25.3679 11.2233 25.3679 11.3446V14.0657C25.3679 14.1825 25.4624 14.2813 25.5838 14.2813Z" fill="#B3D7DD"/>
<path d="M22.7098 13.7065C22.8267 13.7065 22.9257 13.6122 22.9257 13.4909V0.88204C22.9257 0.765292 22.8312 0.666504 22.7098 0.666504C22.5884 0.666504 22.4939 0.760801 22.4939 0.88204V13.4954C22.4939 13.6122 22.5884 13.711 22.7098 13.711V13.7065Z" fill="#B3D7DD"/>
<path d="M20.2718 13.9938C20.3887 13.9938 20.4877 13.8995 20.4877 13.7783V9.90761C20.4877 9.79087 20.3932 9.69208 20.2718 9.69208C20.1504 9.69208 20.0559 9.78637 20.0559 9.90761V13.7783C20.0559 13.895 20.1504 13.9938 20.2718 13.9938Z" fill="#B3D7DD"/>
<path d="M21.8957 40.6485L23.29 39.7953L23.6543 40.2399C24.5989 40.2399 25.6873 40.5497 26.8433 41.2098C30.3246 43.2035 33.0998 47.6086 33.0368 51.0347C33.0278 51.5376 32.9559 51.9866 32.8344 52.3908L33.0638 52.7231L31.7954 53.6795C30.6305 54.7078 28.7504 54.856 26.5554 53.5987C23.0741 51.605 20.3529 47.2359 20.4159 43.8097C20.4429 42.3055 20.9646 41.2637 21.9002 40.6485H21.8957Z" fill="#FCDE16"/>
<g style="mix-blend-mode:multiply">
<path d="M21.8957 40.6485L23.29 39.7953L23.6543 40.2399C24.5989 40.2399 25.6873 40.5497 26.8433 41.2098C30.3246 43.2035 33.0998 47.6086 33.0368 51.0347C33.0278 51.5376 32.9559 51.9866 32.8344 52.3908L33.0638 52.7231L31.7954 53.6795C30.6305 54.7078 28.7504 54.856 26.5554 53.5987C23.0741 51.605 20.3529 47.2359 20.4159 43.8097C20.4429 42.3055 20.9511 41.2817 21.9002 40.6485H21.8957Z" fill="#DCC99E"/>
</g>
<path d="M32.8839 52.6994C34.9236 51.1408 34.385 47.0181 31.6809 43.4911C28.9768 39.964 25.1313 38.3683 23.0916 39.9268C21.0519 41.4853 21.5905 45.608 24.2946 49.1351C26.9987 52.6621 30.8442 54.2579 32.8839 52.6994Z" fill="#FCDE16"/>
<path d="M33.0983 52.6754C35.1379 51.1169 34.5993 46.9942 31.8953 43.4672C29.1912 39.9401 25.3456 38.3443 23.306 39.9029C21.2663 41.4614 21.8049 45.5841 24.5089 49.1111C27.213 52.6382 31.0586 54.234 33.0983 52.6754Z" fill="#FCDE16"/>
<g style="mix-blend-mode:multiply">
<path d="M27.8192 39.9929L27.9137 41.5735C26.7667 41.0077 25.6468 40.882 24.8102 41.3266C23.0965 42.2336 23.2179 45.1928 25.089 47.9364C26.0471 49.3418 27.275 50.415 28.4759 51.0077L28.5704 52.5884C25.188 50.9224 22.2779 46.7509 22.071 43.2709C21.8641 39.7909 24.4368 38.327 27.8192 39.9929Z" fill="#EEE5D1"/>
</g>
<g style="mix-blend-mode:multiply">
<path d="M31.8709 51.0744C33.3996 49.9062 32.9964 46.8168 30.9702 44.174C28.9441 41.5311 26.0622 40.3357 24.5335 41.5038C23.0047 42.672 23.4079 45.7614 25.4341 48.4042C27.4602 51.047 30.3421 52.2425 31.8709 51.0744Z" fill="#DCC99E"/>
</g>
<path d="M27.3693 48.0127C27.6527 48.08 27.8641 48.0666 28.008 47.9723C28.1519 47.8735 28.2419 47.7343 28.2824 47.5547C28.3229 47.3705 28.3453 47.1326 28.3543 46.8407L29.8116 47.1954C29.8476 47.5771 29.7667 47.9049 29.5778 48.1743L30.2794 48.6323C30.3874 48.5066 30.4593 48.336 30.4998 48.1204C30.5403 47.9049 30.5448 47.6714 30.5178 47.4065L31.2555 47.5861L31.0935 46.8766L30.3469 46.697C30.2434 46.3961 30.104 46.1177 29.9196 45.8618C29.7352 45.6058 29.5328 45.3903 29.3034 45.2152C29.074 45.0401 28.8401 44.9233 28.5972 44.8649C28.3049 44.7931 28.0845 44.8066 27.936 44.9098C27.7876 45.0086 27.6887 45.1568 27.6482 45.3454C27.6032 45.5385 27.5807 45.7765 27.5762 46.0684L26.1774 45.7271C26.1009 45.2646 26.1729 44.8694 26.3843 44.5416L25.6826 44.0836C25.5657 44.2453 25.4937 44.4473 25.4577 44.6898C25.4217 44.9323 25.4307 45.2062 25.4802 45.5115L24.7471 45.3319L24.909 46.0414L25.6556 46.221C25.8176 46.6745 26.0514 47.0652 26.3618 47.3885C26.6677 47.7118 27.005 47.9184 27.3693 48.0037V48.0127ZM28.8491 45.7765C29.0245 45.8169 29.1819 45.9112 29.3259 46.0549C29.4698 46.1986 29.5823 46.3737 29.6677 46.5802L28.3723 46.2659C28.3948 46.0773 28.4398 45.9426 28.5118 45.8528C28.5837 45.763 28.6962 45.7406 28.8536 45.7765H28.8491ZM26.3483 46.3512L27.5492 46.6431C27.5357 46.8227 27.4953 46.9529 27.4368 47.0338C27.3738 47.1146 27.2749 47.1371 27.1354 47.1056C26.96 47.0652 26.8071 46.9754 26.6721 46.8497C26.5372 46.7194 26.4293 46.5533 26.3483 46.3512Z" fill="#DF9800"/>
<path d="M28.9749 45.6867C29.1504 45.7271 29.3078 45.8214 29.4517 45.9651C29.5956 46.1088 29.7081 46.2839 29.7935 46.4905L28.4982 46.1761C28.5207 45.9875 28.5656 45.8528 28.6376 45.763C28.7096 45.6732 28.822 45.6508 28.9794 45.6867H28.9749ZM26.4741 46.2615L27.6751 46.5533C27.6616 46.7329 27.6211 46.8632 27.5626 46.944C27.4996 47.0248 27.4007 47.0473 27.2613 47.0158C27.0858 46.9754 26.9329 46.8856 26.798 46.7599C26.663 46.6297 26.5551 46.4635 26.4741 46.2615ZM27.4907 47.9229C27.774 47.9902 27.9854 47.9768 28.1293 47.8825C28.2733 47.7837 28.3632 47.6445 28.4037 47.4649C28.4442 47.2808 28.4667 47.0428 28.4757 46.7509L29.933 47.1056C29.969 47.4873 29.888 47.8151 29.6991 48.0845L30.4008 48.5426C30.5087 48.4168 30.5807 48.2462 30.6212 48.0307C30.6616 47.8151 30.6661 47.5816 30.6391 47.3167L31.3768 47.4963L31.2149 46.7868L30.4682 46.6072C30.3648 46.3064 30.2253 46.028 30.0409 45.772C29.8565 45.5161 29.6541 45.3005 29.4247 45.1254C29.1953 44.9503 28.9614 44.8335 28.7186 44.7752C28.4262 44.7033 28.2058 44.7168 28.0574 44.8201C27.909 44.9188 27.81 45.067 27.7695 45.2556C27.7245 45.4487 27.7021 45.6867 27.6976 45.9786L26.2987 45.6373C26.2223 45.1748 26.2942 44.7796 26.5056 44.4519L25.804 43.9938C25.687 44.1555 25.615 44.3576 25.5791 44.6C25.5431 44.8425 25.5521 45.1164 25.6016 45.4218L24.8684 45.2422L25.0303 45.9516L25.777 46.1312C25.9389 46.5848 26.1728 46.9754 26.4831 47.2987C26.789 47.622 27.1263 47.8286 27.4907 47.9139V47.9229Z" fill="#FFDE56"/>
<g style="mix-blend-mode:multiply">
<path d="M27.4864 41.3805C25.4309 40.662 23.8657 41.587 23.8252 43.7379C23.7802 46.2345 25.7952 49.4362 28.332 50.8865C28.6064 51.0437 28.8718 51.1694 29.1326 51.2727C28.8043 51.1604 28.467 51.0033 28.1161 50.8057C25.5793 49.3553 23.5598 46.1537 23.6093 43.6571C23.6498 41.4299 25.323 40.5183 27.4864 41.3805Z" fill="#DCC99E"/>
</g>
<g style="mix-blend-mode:multiply">
<path d="M32.4791 48.8345C32.5241 46.3378 30.5045 43.1407 27.9722 41.6858C27.5764 41.4568 27.1896 41.2862 26.8208 41.1694C27.2841 41.2817 27.7788 41.4793 28.2871 41.7711C30.8239 43.2215 32.8434 46.4231 32.7939 48.9198C32.7535 51.0482 31.2242 51.9777 29.2047 51.3041C31.0713 51.7891 32.4431 50.8506 32.4791 48.8345Z" fill="#DCC99E"/>
</g>
<path d="M26.2764 41.0751C24.7291 40.9314 23.6452 41.8699 23.6092 43.6616C23.5642 46.1582 25.5792 49.3598 28.116 50.8102C28.7322 51.1649 29.3259 51.3805 29.8702 51.4703C29.2585 51.4119 28.5748 51.1874 27.8551 50.7743C25.3184 49.3239 23.2988 46.1223 23.3483 43.6256C23.3843 41.7397 24.5897 40.7922 26.2764 41.0751Z" fill="#FCDE16"/>
<path d="M31.3904 53.5269L30.2075 54.4294C30.0366 54.4608 29.8612 54.4743 29.6768 54.4833L30.8597 53.5807C31.0441 53.5718 31.2195 53.5583 31.3904 53.5269Z" fill="#FCDE16"/>
<path d="M29.6498 53.464L28.4668 54.3665C28.3544 54.3396 28.2374 54.3126 28.125 54.2767L29.3079 53.3741C29.4249 53.4101 29.5373 53.437 29.6498 53.464Z" fill="#FCDE16"/>
<path d="M28.395 53.0284L27.2121 53.9309C27.1176 53.886 27.0232 53.8456 26.9287 53.7962L28.1116 52.8937C28.2061 52.9431 28.3006 52.9835 28.395 53.0284Z" fill="#FCDE16"/>
<path d="M27.329 52.4446L26.1461 53.3472C26.0651 53.2933 25.9796 53.2394 25.8987 53.1855L27.0816 52.283C27.1626 52.3368 27.248 52.3907 27.329 52.4446Z" fill="#FCDE16"/>
<path d="M26.3844 51.7712L25.2015 52.6737C25.125 52.6153 25.053 52.557 24.9766 52.4941L26.1595 51.5916C26.2315 51.6544 26.3079 51.7128 26.3844 51.7712Z" fill="#FCDE16"/>
<path d="M25.5343 51.0302L24.3513 51.9328C24.2839 51.8699 24.2164 51.8026 24.1489 51.7352L25.3319 50.8326C25.3993 50.9 25.4668 50.9629 25.5343 51.0302Z" fill="#FCDE16"/>
<path d="M24.7563 50.2264L23.5733 51.129C23.5104 51.0616 23.4519 50.9898 23.3889 50.9179L24.5718 50.0154C24.6303 50.0872 24.6933 50.1591 24.7563 50.2264Z" fill="#FCDE16"/>
<path d="M24.0544 49.3688L22.8715 50.2714C22.813 50.195 22.7591 50.1232 22.7051 50.0468L23.888 49.1443C23.942 49.2206 23.996 49.2925 24.0544 49.3688Z" fill="#FCDE16"/>
<path d="M23.4202 48.4617L22.2373 49.3643C22.1878 49.2835 22.1383 49.2071 22.0889 49.1263L23.2718 48.2238C23.3213 48.3046 23.3708 48.3809 23.4202 48.4617Z" fill="#FCDE16"/>
<path d="M22.8537 47.4963L21.6707 48.3989C21.6257 48.3136 21.5808 48.2327 21.5403 48.1474L22.7232 47.2449C22.7637 47.3302 22.8087 47.411 22.8537 47.4963Z" fill="#FCDE16"/>
<path d="M22.3678 46.4725L21.1849 47.375C21.1489 47.2852 21.1084 47.1954 21.0769 47.1056L22.2598 46.2031C22.2958 46.2929 22.3318 46.3827 22.3678 46.4725Z" fill="#FCDE16"/>
<path d="M21.9719 45.3814L20.789 46.2839C20.762 46.1896 20.7305 46.0908 20.708 45.9966L21.8909 45.094C21.9179 45.1883 21.9449 45.2871 21.9719 45.3814Z" fill="#FCDE16"/>
<path d="M21.6932 44.1959L20.5103 45.0985C20.4923 44.9907 20.4788 44.8874 20.4653 44.7842L21.6483 43.8816C21.6618 43.9849 21.6753 44.0926 21.6932 44.1959Z" fill="#FCDE16"/>
<path d="M21.5987 42.8757L20.4158 43.7783C20.4158 43.6525 20.4248 43.5313 20.4338 43.4101L21.6167 42.5075C21.6077 42.6287 21.5987 42.75 21.5987 42.8757Z" fill="#FCDE16"/>
<path d="M21.8822 41.2682L20.6992 42.1707C20.7757 41.9687 20.8656 41.7846 20.9691 41.6139L22.152 40.7114C22.0486 40.882 21.9586 41.0706 21.8822 41.2682Z" fill="#FCDE16"/>
<path d="M29.6272 39.2745C29.7352 39.2745 29.8207 39.1892 29.8207 39.0814V34.16C29.8207 34.0522 29.7352 33.9669 29.6272 33.9669C29.5193 33.9669 29.4338 34.0522 29.4338 34.16V39.0814C29.4338 39.1892 29.5193 39.2745 29.6272 39.2745Z" fill="#B3D7DD"/>
<path d="M27.8101 38.4977C27.9181 38.4977 28.0035 38.4124 28.0035 38.3046V35.5835C28.0035 35.4757 27.9181 35.3904 27.8101 35.3904C27.7022 35.3904 27.6167 35.4757 27.6167 35.5835V38.3046C27.6167 38.4124 27.7022 38.4977 27.8101 38.4977Z" fill="#B3D7DD"/>
<path d="M37.0352 37.878L36.0862 36.6566L36.4685 36.2704C36.3695 35.3858 36.5495 34.3261 37.0577 33.1721C38.578 29.6966 42.4506 26.6252 45.6891 26.3333C46.1614 26.2884 46.5976 26.3108 46.989 26.3872L47.2768 26.1402L48.3113 27.2358C49.4043 28.2237 49.7326 29.975 48.7746 32.1707C47.2543 35.6463 43.4132 38.6593 40.1747 38.9512C38.7534 39.0814 37.7144 38.6952 37.0397 37.8824L37.0352 37.878Z" fill="#FCDE16"/>
<g style="mix-blend-mode:multiply">
<path d="M37.0352 37.878L36.0862 36.6566L36.4685 36.2704C36.3695 35.3858 36.5495 34.3261 37.0577 33.1721C38.578 29.6966 42.4506 26.6252 45.6891 26.3333C46.1614 26.2884 46.5976 26.3108 46.989 26.3872L47.2768 26.1402L48.3113 27.2358C49.4043 28.2237 49.7326 29.975 48.7746 32.1707C47.2543 35.6463 43.4132 38.6593 40.1747 38.9512C38.7534 39.0814 37.7369 38.7087 37.0397 37.8825L37.0352 37.878Z" fill="#DCC99E"/>
</g>
<path d="M44.8044 34.7497C47.8531 31.8432 48.9616 28.0621 47.2803 26.3045C45.599 24.5468 41.7646 25.4782 38.7159 28.3847C35.6672 31.2912 34.5587 35.0722 36.24 36.8298C37.9213 38.5875 41.7557 37.6562 44.8044 34.7497Z" fill="#FCDE16"/>
<path d="M44.7533 34.5511C47.802 31.6446 48.9105 27.8636 47.2293 26.1059C45.548 24.3483 41.7136 25.2796 38.6649 28.1861C35.6162 31.0926 34.5077 34.8736 36.189 36.6313C37.8703 38.3889 41.7047 37.4576 44.7533 34.5511Z" fill="#FCDE16"/>
<g style="mix-blend-mode:multiply">
<path d="M35.8074 32.3728L37.2917 32.1214C36.8779 33.2574 36.8734 34.3216 37.3771 35.067C38.4116 36.5848 41.1913 36.1627 43.5841 34.124C44.8076 33.0778 45.6981 31.8115 46.1299 30.6216L47.6142 30.3701C46.3908 33.7199 42.7565 36.8901 39.4956 37.4424C36.2347 37.9947 34.584 35.7271 35.8119 32.3773L35.8074 32.3728Z" fill="#EEE5D1"/>
</g>
<g style="mix-blend-mode:multiply">
<path d="M43.9892 33.7523C46.2726 31.5754 47.1028 28.7435 45.8436 27.427C44.5843 26.1106 41.7125 26.8081 39.4291 28.985C37.1457 31.1619 36.3155 33.9938 37.5747 35.3102C38.834 36.6267 41.7058 35.9291 43.9892 33.7523Z" fill="#DCC99E"/>
</g>
<path d="M42.6889 32.4222C42.8463 32.1932 42.9048 31.9956 42.8643 31.834C42.8238 31.6723 42.7294 31.5421 42.5809 31.4478C42.428 31.349 42.2256 31.2502 41.9647 31.1469L42.7698 29.957C43.1252 30.0513 43.395 30.2309 43.575 30.4958L44.2226 30.0199C44.1417 29.8807 44.0157 29.7594 43.8358 29.6517C43.6559 29.5439 43.4445 29.4586 43.2016 29.4002L43.6109 28.7985L42.9183 28.7087L42.5045 29.3194C42.1986 29.3104 41.9018 29.3463 41.6094 29.4226C41.317 29.5035 41.0562 29.6157 40.8223 29.7594C40.5884 29.9076 40.4085 30.0782 40.2735 30.2758C40.1116 30.5138 40.0531 30.7159 40.0936 30.882C40.1341 31.0481 40.2331 31.1829 40.3905 31.2861C40.5479 31.3894 40.7593 31.4927 41.0202 31.596L40.2466 32.7365C39.8058 32.6512 39.4729 32.4581 39.248 32.1573L38.6003 32.6332C38.7038 32.7904 38.8612 32.9251 39.0726 33.0374C39.2795 33.1496 39.5314 33.2349 39.8193 33.2933L39.4145 33.8905L40.1071 33.9803L40.5209 33.3697C40.9842 33.3741 41.416 33.2933 41.8073 33.1227C42.1986 32.9521 42.4955 32.723 42.6979 32.4222H42.6889ZM41.1686 30.3477C41.2631 30.204 41.4025 30.0917 41.5779 30.0109C41.7533 29.9301 41.9467 29.8851 42.1671 29.8807L41.452 30.9404C41.2901 30.8596 41.1821 30.7697 41.1236 30.6799C41.0697 30.5856 41.0832 30.4779 41.1686 30.3477ZM40.8538 32.7814L41.5194 31.798C41.6769 31.8699 41.7803 31.9507 41.8343 32.0315C41.8883 32.1124 41.8748 32.2111 41.7983 32.3279C41.7039 32.4716 41.5734 32.5794 41.4115 32.6557C41.2496 32.732 41.0652 32.7724 40.8538 32.7814Z" fill="#DF9800"/>
<path d="M41.1237 30.204C41.2181 30.0603 41.3576 29.948 41.533 29.8672C41.7084 29.7864 41.9018 29.7415 42.1222 29.737L41.4071 30.7967C41.2451 30.7159 41.1372 30.6261 41.0787 30.5363C41.0247 30.442 41.0382 30.3342 41.1237 30.204ZM40.8088 32.6377L41.4745 31.6544C41.6319 31.7262 41.7354 31.807 41.7894 31.8879C41.8433 31.9687 41.8299 32.0675 41.7534 32.1842C41.6589 32.3279 41.5285 32.4357 41.3666 32.512C41.2047 32.5884 41.0202 32.6288 40.8088 32.6377ZM42.644 32.2785C42.8014 32.0495 42.8599 31.8519 42.8194 31.6903C42.7789 31.5286 42.6844 31.3984 42.536 31.3041C42.3831 31.2053 42.1807 31.1065 41.9198 31.0033L42.7249 29.8133C43.0803 29.9076 43.3501 30.0872 43.53 30.3522L44.1777 29.8762C44.0968 29.737 43.9708 29.6157 43.7909 29.508C43.611 29.4002 43.3996 29.3149 43.1567 29.2565L43.566 28.6548L42.8734 28.565L42.4595 29.1757C42.1537 29.1667 41.8568 29.2026 41.5645 29.279C41.2721 29.3598 41.0112 29.4721 40.7774 29.6157C40.5435 29.7639 40.3636 29.9346 40.2286 30.1321C40.0667 30.3701 40.0082 30.5722 40.0487 30.7383C40.0892 30.9045 40.1881 31.0392 40.3456 31.1425C40.503 31.2457 40.7144 31.349 40.9753 31.4523L40.2016 32.5928C39.7608 32.5075 39.428 32.3144 39.2031 32.0136L38.5554 32.4896C38.6589 32.6467 38.8163 32.7814 39.0277 32.8937C39.2346 33.006 39.4865 33.0913 39.7743 33.1496L39.3695 33.7469L40.0622 33.8367L40.476 33.226C40.9393 33.2305 41.3711 33.1496 41.7624 32.979C42.1537 32.8084 42.4506 32.5794 42.653 32.2785H42.644Z" fill="#FFDE56"/>
<g style="mix-blend-mode:multiply">
<path d="M37.1521 32.5434C36.6843 34.5506 37.7188 35.9291 39.7564 35.745C42.1177 35.534 44.9289 33.3023 46.0354 30.7697C46.1523 30.4958 46.2468 30.2354 46.3187 29.9794C46.2468 30.2982 46.1343 30.635 45.9814 30.9808C44.8749 33.5178 42.0593 35.745 39.7024 35.9561C37.5974 36.1447 36.5629 34.6674 37.1521 32.5434Z" fill="#DCC99E"/>
</g>
<g style="mix-blend-mode:multiply">
<path d="M43.6651 27.0787C41.3083 27.2942 38.4971 29.5214 37.3862 32.054C37.2107 32.4491 37.0893 32.8308 37.0173 33.19C37.0758 32.7455 37.2107 32.2605 37.4356 31.7486C38.5421 29.2116 41.3578 26.9844 43.7146 26.7733C45.7252 26.5937 46.7597 27.9318 46.3324 29.9031C46.5977 28.098 45.5677 26.9036 43.6651 27.0787Z" fill="#DCC99E"/>
</g>
<path d="M36.9858 33.7154C37.0082 35.1838 38.0068 36.1088 39.7025 35.9561C42.0638 35.7451 44.875 33.5134 45.9814 30.9808C46.2513 30.3611 46.3952 29.7864 46.4222 29.2655C46.4312 29.8448 46.2873 30.5138 45.9724 31.2323C44.866 33.7693 42.0503 35.9965 39.6935 36.2076C37.9078 36.3692 36.8958 35.332 36.9858 33.7199V33.7154Z" fill="#FCDE16"/>
<path d="M48.2078 27.622L49.1838 28.6413C49.2288 28.7985 49.2648 28.9646 49.2872 29.1353L48.3112 28.1159C48.2842 27.9453 48.2527 27.7792 48.2078 27.622Z" fill="#FCDE16"/>
<path d="M48.3293 29.2655L49.3053 30.2848C49.2918 30.3926 49.2783 30.5048 49.2558 30.6171L48.2798 29.5978C48.2978 29.4855 48.3158 29.3733 48.3293 29.2655Z" fill="#FCDE16"/>
<path d="M48.046 30.4913L49.022 31.5106C48.9905 31.6049 48.959 31.6947 48.9231 31.789L47.947 30.7697C47.983 30.6754 48.0145 30.5811 48.046 30.4913Z" fill="#FCDE16"/>
<path d="M47.6052 31.5511L48.5812 32.5704C48.5407 32.6557 48.5003 32.7365 48.4553 32.8219L47.4792 31.8025C47.5242 31.7217 47.5647 31.6364 47.6052 31.5511Z" fill="#FCDE16"/>
<path d="M47.0698 32.5075L48.0458 33.5268C47.9964 33.6032 47.9514 33.6795 47.8974 33.7558L46.9214 32.7365C46.9709 32.6602 47.0203 32.5838 47.0698 32.5075Z" fill="#FCDE16"/>
<path d="M46.4582 33.3876L47.4342 34.4069C47.3802 34.4788 47.3263 34.5461 47.2678 34.618L46.2917 33.5987C46.3457 33.5268 46.4042 33.4595 46.4582 33.3876Z" fill="#FCDE16"/>
<path d="M45.779 34.2004L46.7551 35.2197C46.6966 35.287 46.6336 35.3499 46.5752 35.4128L45.5991 34.3935C45.6576 34.3306 45.7206 34.2632 45.779 34.2004Z" fill="#FCDE16"/>
<path d="M45.0459 34.9503L46.022 35.9696C45.959 36.0279 45.8915 36.0908 45.8286 36.1492L44.8525 35.1299C44.92 35.0715 44.983 35.0131 45.0459 34.9503Z" fill="#FCDE16"/>
<path d="M44.2496 35.6418L45.2257 36.6611C45.1582 36.715 45.0862 36.7734 45.0188 36.8272L44.0427 35.8079C44.1147 35.754 44.1822 35.7002 44.2496 35.6418Z" fill="#FCDE16"/>
<path d="M43.3997 36.2704L44.3757 37.2897C44.2993 37.3391 44.2273 37.3885 44.1508 37.4379L43.1748 36.4186C43.2513 36.3692 43.3232 36.3198 43.3997 36.2704Z" fill="#FCDE16"/>
<path d="M42.4865 36.8317L43.4626 37.851C43.3816 37.8959 43.3006 37.9408 43.2197 37.9813L42.2437 36.9619C42.3246 36.9215 42.4056 36.8766 42.4865 36.8317Z" fill="#FCDE16"/>
<path d="M41.4927 37.3167L42.4687 38.336C42.3787 38.3719 42.2933 38.4078 42.2033 38.4437L41.2273 37.4244C41.3173 37.3885 41.4027 37.3526 41.4927 37.3167Z" fill="#FCDE16"/>
<path d="M40.4086 37.6984L41.3846 38.7177C41.2857 38.7446 41.1867 38.7716 41.0922 38.794L40.1162 37.7747C40.2152 37.7522 40.3141 37.7253 40.4086 37.6984Z" fill="#FCDE16"/>
<path d="M39.1718 37.9274L40.1478 38.9467C40.0309 38.9557 39.9139 38.9646 39.8015 38.9646L38.8254 37.9453C38.9379 37.9453 39.0548 37.9363 39.1718 37.9274Z" fill="#FCDE16"/>
<path d="M37.6245 37.8286L38.6006 38.8479C38.4027 38.7985 38.2182 38.7311 38.0473 38.6503L37.0713 37.631C37.2467 37.7118 37.4311 37.7792 37.6245 37.8286Z" fill="#FCDE16"/>
<path d="M43.0982 23.8142C43.2017 23.8142 43.2826 23.7334 43.2826 23.6301V10.7428C43.2826 10.6395 43.2017 10.5587 43.0982 10.5587C42.9948 10.5587 42.9138 10.6395 42.9138 10.7428V23.6301C42.9138 23.7334 42.9948 23.8142 43.0982 23.8142Z" fill="#B3D7DD"/>
<path d="M40.764 24.4294C40.8675 24.4294 40.9484 24.3485 40.9484 24.2453V13.5672C40.9484 13.4639 40.8675 13.3831 40.764 13.3831C40.6605 13.3831 40.5796 13.4639 40.5796 13.5672V24.2453C40.5796 24.3485 40.6605 24.4294 40.764 24.4294Z" fill="#B3D7DD"/>
<path d="M45.3158 23.693C45.4192 23.693 45.5002 23.6121 45.5002 23.5089V20.0738C45.5002 19.9705 45.4192 19.8896 45.3158 19.8896C45.2123 19.8896 45.1313 19.9705 45.1313 20.0738V23.5089C45.1313 23.6121 45.2123 23.693 45.3158 23.693Z" fill="#B3D7DD"/>
</svg>
