<svg width="98" height="32" viewBox="0 0 98 32" fill="none" xmlns="http://www.w3.org/2000/svg">
<g clip-path="url(#clip0_2381_1952)">
<mask id="mask0_2381_1952" style="mask-type:luminance" maskUnits="userSpaceOnUse" x="0" y="0" width="98" height="32">
<path d="M97.8028 0H0V32H97.8028V0Z" fill="white"/>
</mask>
<g mask="url(#mask0_2381_1952)">
<mask id="mask1_2381_1952" style="mask-type:luminance" maskUnits="userSpaceOnUse" x="36" y="8" width="62" height="15">
<path d="M97.4783 8.97241H36.3076V22.8578H97.4783V8.97241Z" fill="white"/>
</mask>
<g mask="url(#mask1_2381_1952)">
<path d="M46.6749 19.9435C46.1719 20.8482 45.4522 21.5606 44.5198 22.0786C43.5853 22.5988 42.4987 22.8578 41.2561 22.8578H36.3076V11.0002H41.2561C42.4967 11.0002 43.5853 11.2512 44.5198 11.7531C45.4544 12.255 46.1719 12.9532 46.6749 13.8458C47.1775 14.7383 47.429 15.7542 47.429 16.8936C47.429 18.033 47.1775 19.0368 46.6749 19.9415V19.9435ZM42.9163 18.8547C43.4089 18.3973 43.6542 17.7436 43.6542 16.8956C43.6542 16.0477 43.4089 15.394 42.9163 14.9366C42.4237 14.4792 41.7588 14.2505 40.9195 14.2505H40.0296V19.5428H40.9195C41.7588 19.5428 42.4237 19.3141 42.9163 18.8567V18.8547Z" fill="#00A650"/>
<path d="M48.9181 9.50064C49.3093 9.1485 49.8303 8.97241 50.4793 8.97241C51.1279 8.97241 51.6304 9.1485 52.0216 9.50064C52.4133 9.85277 52.6098 10.296 52.6098 10.8323C52.6098 11.3686 52.4133 11.7936 52.0216 12.1397C51.6304 12.4858 51.1157 12.6598 50.4793 12.6598C49.8425 12.6598 49.3093 12.4878 48.9181 12.1397C48.5269 11.7936 48.3304 11.3585 48.3304 10.8323C48.3304 10.3061 48.5251 9.85277 48.9181 9.50064ZM52.324 13.4106V22.8578H48.5999V13.4106H52.324Z" fill="#00A650"/>
<path d="M59.986 19.6926V22.8579H58.5771C55.9824 22.8579 54.6848 21.5687 54.6848 18.9883V16.5091H53.5112V13.4106H54.6848V11.1318H58.409V13.4106H59.9513V16.5091H58.409V19.0551C58.409 19.2777 58.4617 19.4396 58.569 19.5408C58.6745 19.642 58.8507 19.6926 59.0981 19.6926H59.9878H59.986Z" fill="#00A650"/>
<path d="M68.832 14.2182C69.6775 14.9103 70.2103 15.8717 70.4334 17.0981H66.4906C66.3446 16.6063 66.0606 16.3614 65.6352 16.3614C65.3332 16.3614 65.0957 16.5011 64.9217 16.7803C64.7473 17.0596 64.6621 17.4725 64.6621 18.0189C64.6621 18.5653 64.7491 18.9802 64.9217 19.2575C65.0939 19.5368 65.3332 19.6764 65.6352 19.6764C66.0606 19.6764 66.3446 19.4315 66.4906 18.9397H70.4334C70.2103 20.1682 69.6753 21.1275 68.832 21.8196C67.9865 22.5118 66.9508 22.8578 65.7203 22.8578C64.7815 22.8578 63.9446 22.6636 63.2126 22.2709C62.4807 21.8804 61.9092 21.3198 61.5018 20.5871C61.0943 19.8566 60.8893 18.9985 60.8893 18.0169C60.8893 17.0353 61.0943 16.1772 61.5018 15.4466C61.9092 14.716 62.4807 14.1555 63.2126 13.7628C63.9446 13.3722 64.7815 13.1759 65.7203 13.1759C66.9508 13.1759 67.9887 13.522 68.832 14.2141V14.2182Z" fill="#00A650"/>
<path d="M80.5039 14.4326C81.1141 15.1591 81.4179 16.1407 81.4179 17.3813V22.8577H77.7104V17.8508C77.7104 17.4035 77.591 17.0494 77.3494 16.7863C77.1083 16.5232 76.7878 16.3916 76.3844 16.3916C75.9811 16.3916 75.6466 16.5232 75.4114 16.7863C75.1765 17.0494 75.0589 17.4035 75.0589 17.8508V22.8577H71.3347V10.4639H75.0589V14.8515C75.3487 14.4042 75.7377 14.042 76.2244 13.7627C76.7107 13.4834 77.2908 13.3438 77.9619 13.3438C79.0463 13.3438 79.8936 13.706 80.5039 14.4326Z" fill="#00A650"/>
<path d="M86.9449 11.0002V22.8578H83.2207V11.0002H86.9449Z" fill="#00A650"/>
<path d="M94.3211 19.561V22.7263H92.9122C90.3175 22.7263 89.0199 21.4371 89.0199 18.8567V16.3776H87.8463V13.2791H89.0199V11.0002H92.7441V13.2791H94.2869V16.3776H92.7441V18.9235C92.7441 19.1461 92.7968 19.308 92.9041 19.4092C93.0096 19.5104 93.1858 19.561 93.4332 19.561H94.3234H94.3211Z" fill="#00A650"/>
</g>
<path d="M0 15.9748C0 7.20762 7.11748 0.0999756 15.8993 0.0999756C24.5007 0.0999756 31.5047 6.91416 31.7905 15.4304C31.7966 15.6105 31.8007 15.7926 31.8007 15.9748C31.8007 16.331 31.7885 16.6811 31.7662 17.0312C31.7175 17.7699 31.6162 18.4965 31.4702 19.2048C31.3932 19.5792 31.304 19.9475 31.2006 20.3098C30.9066 21.342 30.5134 22.3336 30.0248 23.2707C29.8343 23.641 29.6275 24.0053 29.4065 24.3575C29.07 24.8958 28.7051 25.4098 28.3098 25.9016C28.0503 26.2234 27.7787 26.5371 27.4949 26.8386C24.594 29.9229 20.4727 31.8496 15.8993 31.8496C7.11748 31.8496 0 24.7419 0 15.9748Z" fill="#00A650"/>
<path d="M6.02489 24.8533C6.2195 24.6853 6.42827 24.7116 6.65127 24.7804C7.377 25.003 8.09466 25.2499 8.82849 25.428C11.549 26.0898 14.2776 26.1627 16.9819 25.3592C19.5361 24.6003 21.6424 23.1371 23.4162 21.1699C23.5439 21.0283 23.6696 20.8825 23.7791 20.6842C23.6432 20.7146 23.5054 20.7388 23.3736 20.7753C21.8431 21.174 20.2943 21.3743 18.7131 21.2023C17.6326 21.0849 16.617 20.7813 15.7372 20.1114C15.573 19.986 15.4533 19.8382 15.4939 19.6237C15.5345 19.4072 15.6784 19.2675 15.8852 19.2068C17.4218 18.7434 18.8408 18.0047 20.2781 17.3146C21.0342 16.9502 21.7823 16.5698 22.6215 16.422C23.7953 16.2197 24.965 16.2642 26.1306 16.4423C28.1051 16.7459 29.9377 17.3611 31.6263 18.2981C31.6 18.4762 31.5716 18.6563 31.5371 18.8344C31.4723 19.1845 31.3973 19.5266 31.3121 19.8666C31.1317 20.585 30.9006 21.2812 30.629 21.9511C30.4851 22.3053 30.331 22.6513 30.1647 22.9893C29.6883 23.9506 29.1228 24.8553 28.4741 25.6891C28.3768 25.8045 28.2754 25.9178 28.172 26.0311C27.7037 26.5452 27.207 27.0268 26.6861 27.4761C24.6629 28.148 22.6824 28.9495 20.7301 29.8177C19.2118 30.4936 17.6468 30.6312 16.0169 30.3722C13.4566 29.9654 11.0929 29.0284 8.89132 27.6886C7.93447 27.1058 7.02631 26.448 6.10597 25.8065C5.71877 25.5373 5.70254 25.1224 6.02489 24.8472V24.8533Z" fill="white"/>
<path d="M19.3294 24.1773C18.8652 24.3777 18.409 24.6023 17.9326 24.7763C15.5933 25.6324 13.1951 25.7761 10.7523 25.339C9.52588 25.1204 8.344 24.7541 7.19254 24.2886C6.97566 24.2016 6.7993 24.07 6.79322 23.8069C6.78713 23.6106 6.87024 23.4487 7.04863 23.3738C7.17433 23.3192 7.32838 23.2808 7.45814 23.301C8.01359 23.392 8.57918 23.4588 9.11232 23.6268C10.5111 24.064 11.92 24.4485 13.3776 24.6286C15.0196 24.831 16.6555 24.8411 18.2753 24.4566C18.626 24.3736 18.9685 24.2501 19.3152 24.1449L19.3314 24.1793L19.3294 24.1773Z" fill="white"/>
<path d="M19.2827 23.8576C18.5367 24.1936 17.7643 24.4202 16.9595 24.5275C14.61 24.8391 12.374 24.4283 10.2272 23.4609C9.98394 23.3516 9.74471 23.2323 9.50755 23.1108C9.33322 23.0197 9.23794 22.874 9.28454 22.6717C9.33119 22.4713 9.48321 22.3458 9.67174 22.3721C10.0508 22.4227 10.436 22.4835 10.7968 22.6049C11.6767 22.9004 12.5301 23.2748 13.416 23.5419C15.1188 24.0519 16.8561 24.2887 18.634 23.9993C18.8529 23.9628 19.0678 23.9062 19.2827 23.8596V23.8576Z" fill="white"/>
<path d="M19.2808 23.6289C18.7334 23.7159 18.1901 23.8475 17.6387 23.8839C15.7291 24.0114 13.9776 23.4973 12.3518 22.5138C12.2018 22.4227 12.0761 22.3175 12.143 22.1212C12.214 21.9188 12.3863 21.8843 12.5626 21.939C12.8586 22.0301 13.1627 22.1191 13.4384 22.2587C14.679 22.8882 15.9622 23.384 17.3509 23.5662C17.6671 23.6087 17.9874 23.635 18.3057 23.637C18.624 23.637 18.9422 23.5985 19.2605 23.5783C19.2666 23.5965 19.2727 23.6127 19.2787 23.6309L19.2808 23.6289Z" fill="white"/>
<path d="M14.2907 7.04739C14.6913 4.86846 13.2467 2.77791 11.0641 2.378C8.88155 1.97809 6.78749 3.42026 6.38691 5.59919C5.98632 7.77812 7.43092 9.86871 9.6135 10.2686C11.7961 10.6685 13.8901 9.22632 14.2907 7.04739Z" fill="#FCDE16"/>
<g style="mix-blend-mode:multiply">
<path d="M6.37153 6.96067L7.36692 6.8008C7.48649 7.54149 7.8818 8.23972 8.5305 8.72544C9.85832 9.72114 11.7456 9.45401 12.743 8.12641C13.2539 7.44639 13.4323 6.62268 13.3066 5.84553L14.3019 5.68567C14.6547 7.87343 13.1647 9.93162 10.9753 10.2838C8.78393 10.6359 6.72223 9.14843 6.36951 6.96269L6.37153 6.96067Z" fill="#FFE455"/>
</g>
<g style="mix-blend-mode:multiply">
<path d="M10.74 9.29944C12.3866 9.07778 13.5413 7.56549 13.3193 5.92164C13.0973 4.27783 11.5825 3.12497 9.93589 3.34663C8.28934 3.56828 7.13454 5.08058 7.35656 6.72438C7.57862 8.36819 9.09344 9.52109 10.74 9.29944Z" fill="#FFD700"/>
</g>
<g style="mix-blend-mode:multiply">
<path d="M12.1794 4.26905C10.8516 3.27331 8.9643 3.54045 7.96689 4.86809C7.53106 5.44891 7.33644 6.13502 7.36687 6.80895C7.23914 6.02978 7.41753 5.20201 7.93043 4.52001C8.92779 3.1944 10.8131 2.92524 12.1429 3.92093C12.891 4.48156 13.3025 5.32145 13.343 6.18558C13.2214 5.44692 12.8261 4.75275 12.1794 4.26905Z" fill="#DFCDA7"/>
</g>
<g style="mix-blend-mode:overlay">
<path d="M7.37701 6.8616C7.50875 7.58006 7.90001 8.25197 8.5305 8.72553C9.85828 9.72127 11.7456 9.45409 12.743 8.1265C13.2174 7.49709 13.4039 6.74221 13.3288 6.01562C13.4728 6.81098 13.2985 7.66101 12.7754 8.35721C11.7781 9.68278 9.89275 9.95199 8.56291 8.95624C7.86558 8.4341 7.46012 7.66507 7.37701 6.8616Z" fill="#FDE961"/>
</g>
<path d="M11.4334 7.14703C11.4334 6.9649 11.3908 6.81919 11.3037 6.70786C11.2165 6.59654 11.1111 6.51154 10.9834 6.45488C10.8557 6.39823 10.6976 6.34559 10.5029 6.297V5.35999C10.7482 5.39442 10.9753 5.49763 11.1861 5.66962L11.3766 5.26489C11.2753 5.1738 11.1516 5.09691 11.0057 5.0362C10.8597 4.97544 10.7016 4.93497 10.5353 4.91474V4.44116H10.0955V4.92082C9.91301 4.94308 9.75288 4.99771 9.61298 5.08271C9.47313 5.16772 9.36365 5.27295 9.28663 5.40249C9.20956 5.52999 9.16904 5.67165 9.16904 5.8275C9.16904 6.01369 9.21361 6.16548 9.30281 6.28285C9.392 6.40026 9.5035 6.48724 9.63529 6.54597C9.76708 6.60465 9.93127 6.65928 10.1239 6.70786V7.6044C9.83193 7.58417 9.56232 7.4769 9.31092 7.28062L9.12036 7.68535C9.24403 7.78856 9.38799 7.87154 9.55421 7.93026C9.72043 7.99097 9.89882 8.02739 10.0914 8.04154V8.51108H10.5313V8.03145C10.805 7.99097 11.0239 7.89177 11.1861 7.73191C11.3483 7.57204 11.4294 7.37572 11.4294 7.14297L11.4334 7.14703ZM9.72651 5.79712C9.72651 5.68585 9.76099 5.5907 9.83193 5.51584C9.90287 5.44093 10.0002 5.39036 10.1239 5.36404V6.19582C9.99612 6.15332 9.89882 6.10072 9.82991 6.03798C9.76099 5.97524 9.72651 5.8943 9.72651 5.7951V5.79712ZM10.505 7.58214V6.80905C10.6266 6.84749 10.7178 6.89202 10.7807 6.94665C10.8435 7.00132 10.8759 7.07415 10.8759 7.16321C10.8759 7.27453 10.8435 7.3676 10.7807 7.43643C10.7178 7.50728 10.6245 7.55582 10.505 7.58011V7.58214Z" fill="#DF9800"/>
<path d="M9.64344 5.69576C9.64344 5.58449 9.67788 5.48934 9.74886 5.41448C9.81981 5.33957 9.91711 5.28905 10.0407 5.26273V6.0945C9.91306 6.052 9.81575 5.9994 9.74684 5.93667C9.67788 5.87393 9.64344 5.79298 9.64344 5.69383V5.69576ZM10.4219 7.48082V6.70773C10.5435 6.74618 10.6347 6.79066 10.6976 6.84533C10.7604 6.89996 10.7928 6.97284 10.7928 7.06185C10.7928 7.17317 10.7604 7.26633 10.6976 7.33511C10.6347 7.40596 10.5415 7.45455 10.4219 7.4788V7.48082ZM11.3504 7.04567C11.3504 6.86354 11.3078 6.71783 11.2206 6.6065C11.1334 6.49518 11.028 6.41018 10.9003 6.35352C10.7726 6.29687 10.6144 6.24427 10.4198 6.19573V5.25867C10.6651 5.29311 10.8922 5.39632 11.103 5.56835L11.2936 5.16357C11.1922 5.07249 11.0686 4.9956 10.9226 4.93489C10.7767 4.87418 10.6185 4.8337 10.4523 4.81347V4.33984H10.0124V4.81946C9.82995 4.84173 9.66977 4.89644 9.52991 4.98144C9.39001 5.0664 9.28058 5.17164 9.20351 5.30117C9.12649 5.42868 9.08597 5.57029 9.08597 5.72614C9.08597 5.91233 9.13054 6.06417 9.21974 6.18153C9.30893 6.29894 9.42044 6.38597 9.55222 6.44465C9.68396 6.50334 9.8482 6.55792 10.0407 6.6065V7.50309C9.74886 7.48285 9.47921 7.37554 9.22785 7.17926L9.03729 7.58404C9.16097 7.68725 9.30488 7.77022 9.47114 7.82895C9.63736 7.88966 9.81575 7.92607 10.0083 7.94023V8.40977H10.4482V7.93013C10.7219 7.88966 10.9408 7.7905 11.103 7.63059C11.2652 7.47073 11.3463 7.2744 11.3463 7.04166L11.3504 7.04567Z" fill="#FFDE56"/>
<path d="M11.5307 1.92954C11.5834 1.92954 11.628 1.88704 11.628 1.83237V0.605961C11.628 0.553319 11.5855 0.508789 11.5307 0.508789C11.476 0.508789 11.4334 0.55129 11.4334 0.605961V1.83237C11.4334 1.88501 11.476 1.92954 11.5307 1.92954Z" fill="#B3D7DD"/>
<path d="M10.2354 1.67052C10.2881 1.67052 10.3327 1.62802 10.3327 1.57335V-4.10952C10.3327 -4.16214 10.2901 -4.20667 10.2354 -4.20667C10.1807 -4.20667 10.1381 -4.16416 10.1381 -4.10952V1.57537C10.1381 1.62802 10.1807 1.67255 10.2354 1.67255V1.67052Z" fill="#B3D7DD"/>
<path d="M9.13661 1.80001C9.1893 1.80001 9.23392 1.75751 9.23392 1.70288V-0.0416536C9.23392 -0.0942689 9.19133 -0.138794 9.13661 -0.138794C9.0819 -0.138794 9.03931 -0.096297 9.03931 -0.0416536V1.70288C9.03931 1.75548 9.0819 1.80001 9.13661 1.80001Z" fill="#B3D7DD"/>
<path d="M9.86849 13.8135L10.4969 13.429L10.6611 13.6293C11.0868 13.6293 11.5774 13.769 12.0984 14.0665C13.6674 14.965 14.9182 16.9504 14.8898 18.4946C14.8858 18.7213 14.8534 18.9236 14.7986 19.1058L14.902 19.2556L14.3303 19.6866C13.8053 20.1501 12.9579 20.2169 11.9686 19.6502C10.3996 18.7516 9.17314 16.7825 9.20153 15.2383C9.2137 14.5603 9.44883 14.0908 9.87051 13.8135H9.86849Z" fill="#FCDE16"/>
<g style="mix-blend-mode:multiply">
<path d="M9.86849 13.8135L10.4969 13.429L10.6611 13.6293C11.0868 13.6293 11.5774 13.769 12.0984 14.0665C13.6674 14.965 14.9182 16.9504 14.8898 18.4946C14.8858 18.7213 14.8534 18.9236 14.7986 19.1058L14.902 19.2556L14.3303 19.6866C13.8053 20.1501 12.9579 20.2169 11.9686 19.6502C10.3996 18.7516 9.17314 16.7825 9.20153 15.2383C9.2137 14.5603 9.44275 14.0989 9.87051 13.8135H9.86849Z" fill="#FFD700"/>
</g>
<path d="M14.8209 19.2448C15.7402 18.5423 15.4974 16.6842 14.2787 15.0946C13.0599 13.5049 11.3268 12.7857 10.4075 13.4881C9.48816 14.1906 9.73091 16.0487 10.9497 17.6384C12.1684 19.228 13.9016 19.9472 14.8209 19.2448Z" fill="#FCDE16"/>
<path d="M14.9176 19.2339C15.8368 18.5315 15.5941 16.6734 14.3754 15.0837C13.1566 13.4941 11.4234 12.7748 10.5041 13.4773C9.58484 14.1797 9.82759 16.0378 11.0463 17.6275C12.265 19.2172 13.9983 19.9364 14.9176 19.2339Z" fill="#FCDE16"/>
<g style="mix-blend-mode:multiply">
<path d="M12.5383 13.5179L12.5808 14.2303C12.0639 13.9753 11.5591 13.9186 11.1821 14.119C10.4097 14.5278 10.4644 15.8616 11.3077 17.0981C11.7396 17.7315 12.293 18.2152 12.8342 18.4824L12.8768 19.1948C11.3524 18.4439 10.0408 16.5638 9.94751 14.9954C9.85426 13.4269 11.0138 12.7671 12.5383 13.5179Z" fill="#FFE455"/>
</g>
<g style="mix-blend-mode:multiply">
<path d="M14.3643 18.5123C15.0533 17.9858 14.8716 16.5934 13.9584 15.4023C13.0452 14.2111 11.7463 13.6724 11.0573 14.1988C10.3683 14.7253 10.55 16.1177 11.4632 17.3089C12.3764 18.5 13.6753 19.0388 14.3643 18.5123Z" fill="#FFD700"/>
</g>
<path d="M12.3355 17.1324C12.4632 17.1628 12.5585 17.1567 12.6233 17.1142C12.6882 17.0697 12.7287 17.007 12.747 16.926C12.7653 16.843 12.7753 16.7358 12.7794 16.6042L13.4362 16.7641C13.4524 16.9361 13.416 17.0838 13.3308 17.2053L13.6471 17.4117C13.6957 17.355 13.7281 17.2781 13.7464 17.181C13.7646 17.0838 13.7667 16.9786 13.7545 16.8592L14.087 16.9402L14.014 16.6204L13.6775 16.5394C13.6308 16.4038 13.568 16.2783 13.4849 16.163C13.4018 16.0476 13.3106 15.9505 13.2072 15.8716C13.1038 15.7927 12.9984 15.74 12.8889 15.7137C12.7571 15.6813 12.6578 15.6874 12.5909 15.7339C12.524 15.7785 12.4794 15.8453 12.4612 15.9303C12.4409 16.0173 12.4307 16.1246 12.4287 16.2561L11.7983 16.1023C11.7638 15.8939 11.7962 15.7157 11.8915 15.568L11.5753 15.3616C11.5226 15.4345 11.4901 15.5255 11.4739 15.6348C11.4577 15.7441 11.4617 15.8675 11.484 16.0051L11.1536 15.9242L11.2266 16.244L11.5631 16.3249C11.6361 16.5293 11.7415 16.7054 11.8814 16.8511C12.0192 16.9968 12.1713 17.0899 12.3355 17.1284V17.1324ZM13.0024 16.1246C13.0815 16.1428 13.1524 16.1853 13.2173 16.25C13.2822 16.3148 13.3329 16.3937 13.3714 16.4868L12.7875 16.3451C12.7977 16.2601 12.8179 16.1994 12.8504 16.159C12.8828 16.1185 12.9335 16.1084 13.0044 16.1246H13.0024ZM11.8753 16.3836L12.4165 16.5152C12.4105 16.5961 12.3923 16.6548 12.3659 16.6912C12.3375 16.7277 12.2929 16.7378 12.23 16.7236C12.151 16.7054 12.0821 16.6649 12.0212 16.6083C11.9604 16.5495 11.9118 16.4747 11.8753 16.3836Z" fill="#DF9800"/>
<path d="M13.0591 16.0842C13.1382 16.1024 13.2092 16.1449 13.274 16.2096C13.3389 16.2744 13.3896 16.3533 13.4281 16.4464L12.8443 16.3047C12.8544 16.2197 12.8747 16.159 12.9071 16.1186C12.9396 16.0781 12.9902 16.068 13.0612 16.0842H13.0591ZM11.932 16.3432L12.4733 16.4747C12.4672 16.5557 12.449 16.6144 12.4226 16.6508C12.3942 16.6873 12.3496 16.6974 12.2868 16.6832C12.2077 16.665 12.1388 16.6245 12.078 16.5679C12.0171 16.5092 11.9685 16.4343 11.932 16.3432ZM12.3902 17.092C12.5179 17.1224 12.6132 17.1163 12.678 17.0738C12.7429 17.0293 12.7834 16.9666 12.8017 16.8856C12.8199 16.8026 12.8301 16.6954 12.8341 16.5638L13.4909 16.7237C13.5072 16.8957 13.4707 17.0434 13.3855 17.1649L13.7018 17.3713C13.7504 17.3146 13.7829 17.2377 13.8011 17.1406C13.8193 17.0434 13.8214 16.9382 13.8092 16.8188L14.1417 16.8998L14.0687 16.58L13.7322 16.499C13.6856 16.3635 13.6227 16.238 13.5396 16.1226C13.4565 16.0073 13.3652 15.9101 13.2619 15.8312C13.1585 15.7523 13.053 15.6996 12.9436 15.6733C12.8118 15.6409 12.7125 15.647 12.6456 15.6936C12.5787 15.7381 12.5341 15.8049 12.5159 15.8899C12.4956 15.9769 12.4855 16.0842 12.4834 16.2157L11.853 16.0619C11.8185 15.8534 11.8509 15.6753 11.9462 15.5276L11.63 15.3212C11.5773 15.394 11.5448 15.4851 11.5286 15.5944C11.5124 15.7037 11.5165 15.8271 11.5388 15.9648L11.2083 15.8838L11.2813 16.2036L11.6178 16.2845C11.6908 16.4889 11.7962 16.665 11.9361 16.8107C12.0739 16.9564 12.226 17.0495 12.3902 17.088V17.092Z" fill="#FFDE56"/>
<g style="mix-blend-mode:multiply">
<path d="M12.3882 14.1433C11.4618 13.8195 10.7563 14.2364 10.7381 15.2058C10.7178 16.331 11.626 17.7741 12.7693 18.4277C12.893 18.4986 13.0126 18.5552 13.1302 18.6018C12.9822 18.5512 12.8302 18.4804 12.672 18.3913C11.5287 17.7376 10.6185 16.2946 10.6408 15.1694C10.659 14.1656 11.4132 13.7547 12.3882 14.1433Z" fill="#FFD700"/>
</g>
<g style="mix-blend-mode:multiply">
<path d="M14.6385 17.5029C14.6588 16.3776 13.7485 14.9367 12.6072 14.281C12.4288 14.1778 12.2545 14.1009 12.0883 14.0482C12.2971 14.0988 12.52 14.1879 12.7491 14.3194C13.8925 14.9731 14.8027 16.4161 14.7804 17.5414C14.7621 18.5006 14.0729 18.9196 13.1627 18.616C14.004 18.8346 14.6223 18.4116 14.6385 17.5029Z" fill="#FFD700"/>
</g>
<path d="M11.8429 14.0057C11.1455 13.9409 10.657 14.3639 10.6408 15.1715C10.6205 16.2967 11.5286 17.7397 12.672 18.3934C12.9497 18.5532 13.2173 18.6504 13.4626 18.6909C13.1869 18.6646 12.8788 18.5634 12.5544 18.3772C11.4111 17.7235 10.5009 16.2805 10.5232 15.1552C10.5394 14.3052 11.0827 13.8782 11.8429 14.0057Z" fill="#FCDE16"/>
<path d="M14.1478 19.6178L13.6147 20.0246C13.5377 20.0387 13.4586 20.0448 13.3755 20.0489L13.9086 19.642C13.9917 19.638 14.0708 19.6319 14.1478 19.6178Z" fill="#FCDE16"/>
<path d="M13.3633 19.5893L12.8301 19.9961C12.7795 19.984 12.7267 19.9718 12.6761 19.9556L13.2092 19.5488C13.262 19.5651 13.3126 19.5772 13.3633 19.5893Z" fill="#FCDE16"/>
<path d="M12.7978 19.3931L12.2646 19.7999C12.222 19.7796 12.1795 19.7614 12.1369 19.7392L12.67 19.3324C12.7126 19.3547 12.7552 19.3729 12.7978 19.3931Z" fill="#FCDE16"/>
<path d="M12.3173 19.13L11.7842 19.5368C11.7477 19.5125 11.7091 19.4882 11.6727 19.4639L12.2058 19.0571C12.2423 19.0814 12.2808 19.1057 12.3173 19.13Z" fill="#FCDE16"/>
<path d="M11.8916 18.8264L11.3584 19.2332C11.324 19.2069 11.2915 19.1806 11.2571 19.1522L11.7902 18.7455C11.8227 18.7738 11.8571 18.8001 11.8916 18.8264Z" fill="#FCDE16"/>
<path d="M11.5084 18.4924L10.9753 18.8992C10.9449 18.8708 10.9145 18.8405 10.884 18.8101L11.4172 18.4033C11.4476 18.4337 11.478 18.462 11.5084 18.4924Z" fill="#FCDE16"/>
<path d="M11.1578 18.1301L10.6246 18.5369C10.5963 18.5066 10.5699 18.4742 10.5415 18.4418L11.0746 18.035C11.101 18.0674 11.1294 18.0998 11.1578 18.1301Z" fill="#FCDE16"/>
<path d="M10.8414 17.7436L10.3083 18.1504C10.2819 18.116 10.2576 18.0837 10.2333 18.0492L10.7664 17.6425C10.7908 17.6768 10.8151 17.7093 10.8414 17.7436Z" fill="#FCDE16"/>
<path d="M10.5556 17.3349L10.0225 17.7417C10.0001 17.7053 9.97783 17.6708 9.95557 17.6344L10.4887 17.2277C10.511 17.2641 10.5333 17.2985 10.5556 17.3349Z" fill="#FCDE16"/>
<path d="M10.3003 16.8997L9.76708 17.3065C9.7468 17.268 9.72657 17.2316 9.70831 17.1931L10.2415 16.7864C10.2597 16.8248 10.28 16.8612 10.3003 16.8997Z" fill="#FCDE16"/>
<path d="M10.0813 16.4383L9.54813 16.8451C9.5319 16.8046 9.51365 16.7641 9.49945 16.7237L10.0326 16.3169C10.0488 16.3574 10.065 16.3978 10.0813 16.4383Z" fill="#FCDE16"/>
<path d="M9.90284 15.9465L9.3697 16.3533C9.35753 16.3108 9.34333 16.2663 9.33319 16.2238L9.86633 15.817C9.8785 15.8595 9.89067 15.904 9.90284 15.9465Z" fill="#FCDE16"/>
<path d="M9.77724 15.4122L9.2441 15.819C9.23598 15.7704 9.2299 15.7238 9.22382 15.6773L9.757 15.2705C9.76308 15.3171 9.76917 15.3656 9.77724 15.4122Z" fill="#FCDE16"/>
<path d="M9.73461 14.8172L9.20148 15.224C9.20148 15.1673 9.20553 15.1127 9.20959 15.0581L9.74273 14.6512C9.73867 14.7059 9.73461 14.7605 9.73461 14.8172Z" fill="#FCDE16"/>
<path d="M9.86241 14.0927L9.32922 14.4995C9.3637 14.4085 9.40422 14.3255 9.45087 14.2486L9.98401 13.8418C9.9374 13.9187 9.89684 14.0037 9.86241 14.0927Z" fill="#FCDE16"/>
<path d="M13.3531 13.194C13.4018 13.194 13.4403 13.1556 13.4403 13.107V10.8889C13.4403 10.8403 13.4018 10.8019 13.3531 10.8019C13.3045 10.8019 13.2659 10.8403 13.2659 10.8889V13.107C13.2659 13.1556 13.3045 13.194 13.3531 13.194Z" fill="#B3D7DD"/>
<path d="M12.5341 12.8441C12.5828 12.8441 12.6213 12.8056 12.6213 12.757V11.5306C12.6213 11.482 12.5828 11.4436 12.5341 11.4436C12.4855 11.4436 12.447 11.482 12.447 11.5306V12.757C12.447 12.8056 12.4855 12.8441 12.5341 12.8441Z" fill="#B3D7DD"/>
<path d="M16.6919 12.5647L16.2642 12.0142L16.4365 11.8401C16.3919 11.4414 16.473 10.9638 16.7021 10.4437C17.3873 8.8773 19.1327 7.49301 20.5923 7.36145C20.8052 7.34121 21.0018 7.3513 21.1782 7.38574L21.3079 7.27441L21.7741 7.76821C22.2667 8.21346 22.4147 9.00277 21.9829 9.99239C21.2977 11.5589 19.5665 12.9168 18.1069 13.0484C17.4663 13.1071 16.9981 12.933 16.694 12.5667L16.6919 12.5647Z" fill="#FCDE16"/>
<g style="mix-blend-mode:multiply">
<path d="M16.6919 12.5647L16.2642 12.0142L16.4365 11.8401C16.3919 11.4414 16.473 10.9638 16.7021 10.4437C17.3873 8.8773 19.1327 7.49301 20.5923 7.36145C20.8052 7.34121 21.0018 7.3513 21.1782 7.38574L21.3079 7.27441L21.7741 7.76821C22.2667 8.21346 22.4147 9.00277 21.9829 9.99239C21.2977 11.5589 19.5665 12.9168 18.1069 13.0484C17.4663 13.1071 17.0082 12.9391 16.694 12.5667L16.6919 12.5647Z" fill="#FFD700"/>
</g>
<path d="M20.1935 11.1547C21.5676 9.84471 22.0672 8.14055 21.3094 7.34839C20.5517 6.55619 18.8235 6.97598 17.4494 8.28595C16.0754 9.59592 15.5757 11.3 16.3335 12.0922C17.0913 12.8844 18.8195 12.4647 20.1935 11.1547Z" fill="#FCDE16"/>
<path d="M20.1705 11.0653C21.5445 9.75533 22.0441 8.05122 21.2864 7.25902C20.5286 6.46686 18.8005 6.8866 17.4264 8.19657C16.0523 9.50655 15.5527 11.2107 16.3105 12.0029C17.0683 12.795 18.7965 12.3753 20.1705 11.0653Z" fill="#FCDE16"/>
<g style="mix-blend-mode:multiply">
<path d="M16.1385 10.0835L16.8075 9.97023C16.621 10.4822 16.619 10.9619 16.846 11.2978C17.3122 11.9819 18.5651 11.7917 19.6435 10.8728C20.1949 10.4013 20.5963 9.83055 20.7909 9.29426L21.4599 9.18091C20.9085 10.6907 19.2705 12.1195 17.8008 12.3684C16.3311 12.6173 15.5871 11.5953 16.1405 10.0856L16.1385 10.0835Z" fill="#FFE455"/>
</g>
<g style="mix-blend-mode:multiply">
<path d="M19.8261 10.7053C20.8552 9.72414 21.2294 8.44779 20.6619 7.85444C20.0943 7.26113 18.8 7.5755 17.7709 8.55664C16.7417 9.53778 16.3675 10.8141 16.9351 11.4074C17.5026 12.0008 18.797 11.6864 19.8261 10.7053Z" fill="#FFD700"/>
</g>
<path d="M19.2401 10.1058C19.311 10.0026 19.3374 9.91355 19.3191 9.84071C19.3009 9.76784 19.2583 9.70915 19.1914 9.66665C19.1225 9.62212 19.0313 9.57759 18.9137 9.53104L19.2765 8.99474C19.4367 9.03724 19.5583 9.11819 19.6395 9.23758L19.9313 9.02309C19.8949 8.96035 19.8381 8.90568 19.757 8.85714C19.6759 8.80856 19.5806 8.77011 19.4712 8.74379L19.6556 8.4726L19.3435 8.43213L19.157 8.70737C19.0191 8.70332 18.8853 8.7195 18.7536 8.75389C18.6218 8.79035 18.5042 8.84092 18.3988 8.90568C18.2934 8.97248 18.2123 9.04937 18.1515 9.13843C18.0785 9.2457 18.0521 9.33678 18.0704 9.41164C18.0886 9.48651 18.1332 9.54726 18.2042 9.59377C18.2751 9.64033 18.3704 9.68689 18.488 9.73345L18.1393 10.2475C17.9407 10.209 17.7906 10.122 17.6893 9.98643L17.3973 10.2009C17.444 10.2718 17.5149 10.3325 17.6102 10.3831C17.7035 10.4337 17.817 10.4721 17.9467 10.4984L17.7643 10.7676L18.0765 10.8081L18.263 10.5329C18.4718 10.5348 18.6664 10.4984 18.8427 10.4215C19.0191 10.3446 19.1529 10.2414 19.2441 10.1058H19.2401ZM18.5549 9.17083C18.5975 9.10607 18.6603 9.05545 18.7394 9.01904C18.8184 8.98262 18.9056 8.96234 19.0049 8.96035L18.6826 9.43797C18.6096 9.40155 18.561 9.36103 18.5346 9.32056C18.5103 9.27806 18.5164 9.22951 18.5549 9.17083ZM18.413 10.2677L18.713 9.82449C18.784 9.8569 18.8306 9.89331 18.8549 9.92973C18.8793 9.96619 18.8732 10.0107 18.8387 10.0633C18.7961 10.1281 18.7373 10.1767 18.6644 10.2111C18.5914 10.2454 18.5083 10.2637 18.413 10.2677Z" fill="#DF9800"/>
<path d="M18.5346 9.10601C18.5772 9.04125 18.64 8.99063 18.7191 8.95422C18.7981 8.9178 18.8853 8.89756 18.9846 8.89554L18.6623 9.37315C18.5893 9.33673 18.5407 9.29626 18.5143 9.25578C18.49 9.21328 18.4961 9.1647 18.5346 9.10601ZM18.3927 10.2029L18.6927 9.75972C18.7637 9.79208 18.8103 9.82849 18.8347 9.86496C18.8589 9.90137 18.8529 9.9459 18.8184 9.9985C18.7758 10.0633 18.7171 10.1119 18.6441 10.1462C18.5711 10.1807 18.488 10.1989 18.3927 10.2029ZM19.2198 10.041C19.2908 9.93779 19.3171 9.84873 19.2989 9.7759C19.2806 9.70302 19.238 9.64434 19.1711 9.60183C19.1022 9.5573 19.011 9.51277 18.8934 9.46626L19.2563 8.92992C19.4165 8.97243 19.5381 9.05337 19.6191 9.17281L19.9111 8.95827C19.8746 8.89554 19.8178 8.84086 19.7367 8.79232C19.6557 8.74374 19.5604 8.70529 19.4509 8.67897L19.6354 8.40778L19.3232 8.36731L19.1367 8.64255C18.9988 8.6385 18.865 8.65468 18.7333 8.68911C18.6015 8.72553 18.4839 8.77614 18.3785 8.84087C18.2731 8.90766 18.192 8.98459 18.1312 9.07361C18.0582 9.18088 18.0319 9.27196 18.0501 9.34683C18.0684 9.42173 18.1129 9.48244 18.1839 9.529C18.2549 9.57551 18.3501 9.62207 18.4677 9.66863L18.119 10.1827C17.9204 10.1442 17.7704 10.0572 17.669 9.92161L17.3771 10.1361C17.4237 10.2069 17.4947 10.2677 17.5899 10.3183C17.6832 10.3689 17.7967 10.4073 17.9264 10.4336L17.744 10.7028L18.0562 10.7433L18.2427 10.468C18.4515 10.4701 18.6461 10.4336 18.8225 10.3567C18.9988 10.2798 19.1327 10.1766 19.2239 10.041H19.2198Z" fill="#FFDE56"/>
<g style="mix-blend-mode:multiply">
<path d="M16.7446 10.1605C16.5338 11.0651 17 11.6864 17.9184 11.6035C18.9826 11.5084 20.2496 10.5025 20.7484 9.36107C20.801 9.23763 20.8436 9.12026 20.876 9.00488C20.8436 9.14857 20.7929 9.30036 20.724 9.45622C20.2253 10.5997 18.9563 11.6035 17.894 11.6986C16.9453 11.7836 16.4791 11.1178 16.7446 10.1605Z" fill="#FFD700"/>
</g>
<g style="mix-blend-mode:multiply">
<path d="M19.68 7.6974C18.6178 7.79453 17.3508 8.79834 16.8501 9.93979C16.771 10.1179 16.7163 10.2899 16.6838 10.4518C16.7102 10.2515 16.771 10.0329 16.8724 9.80215C17.3711 8.65871 18.6401 7.6549 19.7023 7.55976C20.6085 7.47881 21.0748 8.0819 20.8822 8.97037C21.0018 8.15681 20.5375 7.61849 19.68 7.6974Z" fill="#FFD700"/>
</g>
<path d="M16.6697 10.6886C16.6798 11.3504 17.1298 11.7673 17.8941 11.6985C18.9583 11.6034 20.2254 10.5975 20.724 9.45608C20.8457 9.17677 20.9105 8.91776 20.9227 8.68298C20.9268 8.94408 20.8619 9.2456 20.72 9.56943C20.2213 10.7129 18.9523 11.7167 17.89 11.8118C17.0852 11.8847 16.6291 11.4172 16.6697 10.6906V10.6886Z" fill="#FCDE16"/>
<path d="M21.7275 7.94238L22.1674 8.40178C22.1876 8.47264 22.2039 8.5475 22.214 8.62443L21.7741 8.16498C21.7619 8.08809 21.7477 8.01323 21.7275 7.94238Z" fill="#FCDE16"/>
<path d="M21.7822 8.68298L22.2221 9.14239C22.216 9.19097 22.2099 9.24154 22.1998 9.29216L21.7599 8.83275C21.768 8.78214 21.7761 8.73157 21.7822 8.68298Z" fill="#FCDE16"/>
<path d="M21.6545 9.23547L22.0944 9.69488C22.0802 9.73738 22.066 9.77785 22.0499 9.82035L21.6099 9.36095C21.6261 9.31845 21.6403 9.27595 21.6545 9.23547Z" fill="#FCDE16"/>
<path d="M21.4559 9.71313L21.8957 10.1725C21.8775 10.211 21.8593 10.2474 21.839 10.2859L21.399 9.82644C21.4193 9.79002 21.4376 9.75158 21.4559 9.71313Z" fill="#FCDE16"/>
<path d="M21.2145 10.1443L21.6544 10.6037C21.6322 10.6381 21.6119 10.6725 21.5875 10.7069L21.1476 10.2475C21.17 10.2131 21.1922 10.1787 21.2145 10.1443Z" fill="#FCDE16"/>
<path d="M20.9389 10.5409L21.3788 11.0003C21.3545 11.0327 21.3302 11.063 21.3038 11.0954L20.8639 10.636C20.8882 10.6036 20.9146 10.5733 20.9389 10.5409Z" fill="#FCDE16"/>
<path d="M20.6328 10.9072L21.0727 11.3666C21.0463 11.397 21.018 11.4253 20.9916 11.4537L20.5517 10.9943C20.5781 10.9659 20.6065 10.9355 20.6328 10.9072Z" fill="#FCDE16"/>
<path d="M20.3024 11.2451L20.7423 11.7045C20.7139 11.7308 20.6835 11.7591 20.6551 11.7855L20.2152 11.3261C20.2456 11.2997 20.274 11.2734 20.3024 11.2451Z" fill="#FCDE16"/>
<path d="M19.9435 11.5569L20.3834 12.0163C20.353 12.0406 20.3205 12.0669 20.2902 12.0911L19.8502 11.6317C19.8827 11.6075 19.9131 11.5832 19.9435 11.5569Z" fill="#FCDE16"/>
<path d="M19.5604 11.8402L20.0003 12.2996C19.9659 12.3219 19.9334 12.3441 19.8989 12.3664L19.459 11.907C19.4935 11.8847 19.5259 11.8625 19.5604 11.8402Z" fill="#FCDE16"/>
<path d="M19.1489 12.0931L19.5888 12.5525C19.5523 12.5728 19.5158 12.593 19.4793 12.6113L19.0394 12.1518C19.0759 12.1336 19.1124 12.1134 19.1489 12.0931Z" fill="#FCDE16"/>
<path d="M18.7009 12.3118L19.1408 12.7711C19.1002 12.7873 19.0618 12.8035 19.0212 12.8197L18.5813 12.3603C18.6219 12.3441 18.6604 12.3279 18.7009 12.3118Z" fill="#FCDE16"/>
<path d="M18.2124 12.4838L18.6522 12.9432C18.6077 12.9553 18.563 12.9675 18.5205 12.9776L18.0806 12.5182C18.1252 12.508 18.1698 12.4959 18.2124 12.4838Z" fill="#FCDE16"/>
<path d="M17.6549 12.587L18.0948 13.0464C18.0421 13.0505 17.9894 13.0545 17.9387 13.0545L17.4988 12.5951C17.5495 12.5951 17.6022 12.591 17.6549 12.587Z" fill="#FCDE16"/>
<path d="M16.9575 12.5426L17.3975 13.002C17.3083 12.9797 17.2251 12.9493 17.1481 12.9129L16.7082 12.4535C16.7872 12.4899 16.8704 12.5203 16.9575 12.5426Z" fill="#FCDE16"/>
<path d="M19.4245 6.22602C19.4712 6.22602 19.5077 6.1896 19.5077 6.14305V0.334684C19.5077 0.288126 19.4712 0.251709 19.4245 0.251709C19.3779 0.251709 19.3414 0.288126 19.3414 0.334684V6.14305C19.3414 6.1896 19.3779 6.22602 19.4245 6.22602Z" fill="#B3D7DD"/>
<path d="M18.3725 6.50341C18.4192 6.50341 18.4556 6.46695 18.4556 6.42044V1.60775C18.4556 1.5612 18.4192 1.52478 18.3725 1.52478C18.3259 1.52478 18.2894 1.5612 18.2894 1.60775V6.42044C18.2894 6.46695 18.3259 6.50341 18.3725 6.50341Z" fill="#B3D7DD"/>
<path d="M20.424 6.17146C20.4706 6.17146 20.5071 6.135 20.5071 6.08849V4.54027C20.5071 4.49374 20.4706 4.45728 20.424 4.45728C20.3774 4.45728 20.3409 4.49374 20.3409 4.54027V6.08849C20.3409 6.135 20.3774 6.17146 20.424 6.17146Z" fill="#B3D7DD"/>
</g>
</g>
<defs>
<clipPath id="clip0_2381_1952">
<rect width="97.8028" height="32" fill="white"/>
</clipPath>
</defs>
</svg>
