<svg width="369" height="369" viewBox="0 0 369 369" fill="none" xmlns="http://www.w3.org/2000/svg">
    <path d="M0 184.036C0 82.3988 82.5129 0 184.32 0C284.036 0 365.233 78.9968 368.547 177.725C368.617 179.813 368.664 181.925 368.664 184.036C368.664 188.166 368.523 192.225 368.265 196.284C367.701 204.847 366.526 213.27 364.833 221.482C363.94 225.822 362.906 230.093 361.708 234.292C358.3 246.258 353.741 257.754 348.077 268.617C345.868 272.911 343.471 277.134 340.909 281.216C337.008 287.457 332.778 293.417 328.195 299.118C325.187 302.848 322.038 306.485 318.747 309.981C285.117 345.737 237.339 368.073 184.32 368.073C82.5129 368.073 0 285.674 0 184.036Z" fill="#00A650"/>
    <path d="M69.8453 286.965C72.1015 285.017 74.5221 285.322 77.1072 286.12C85.5207 288.701 93.8401 291.563 102.348 293.628C133.886 301.3 165.519 302.145 196.87 292.83C226.481 284.032 250.899 267.069 271.463 244.264C272.943 242.621 274.4 240.932 275.669 238.633C274.095 238.985 272.497 239.266 270.969 239.689C253.226 244.311 235.271 246.633 216.94 244.639C204.413 243.278 192.639 239.759 182.44 231.993C180.536 230.538 179.15 228.826 179.62 226.339C180.09 223.828 181.758 222.209 184.155 221.506C201.969 216.133 218.42 207.569 235.083 199.569C243.849 195.345 252.521 190.934 262.25 189.222C275.857 186.876 289.417 187.392 302.931 189.456C325.821 192.976 347.066 200.108 366.643 210.971C366.337 213.036 366.008 215.124 365.609 217.189C364.857 221.247 363.987 225.213 363 229.154C360.908 237.483 358.229 245.554 355.08 253.32C353.411 257.426 351.625 261.438 349.698 265.356C344.175 276.501 337.619 286.988 330.098 296.655C328.97 297.992 327.795 299.306 326.596 300.62C321.168 306.579 315.41 312.163 309.37 317.372C285.916 325.161 262.955 334.452 240.323 344.517C222.721 352.353 204.578 353.949 185.683 350.946C156.001 346.23 128.598 335.367 103.076 319.835C91.9835 313.078 81.455 305.453 70.7854 298.015C66.2967 294.895 66.1086 290.085 69.8453 286.894V286.965Z" fill="white"/>
    <path d="M224.083 279.128C218.701 281.451 213.414 284.055 207.891 286.073C180.77 295.997 152.968 297.663 124.649 292.595C110.431 290.061 96.7299 285.815 83.3812 280.418C80.8665 279.41 78.8219 277.885 78.7514 274.835C78.6809 272.559 79.6445 270.682 81.7126 269.814C83.1696 269.18 84.9557 268.734 86.4598 268.969C92.8992 270.025 99.456 270.799 105.637 272.746C121.853 277.814 138.186 282.272 155.083 284.36C174.119 286.706 193.085 286.824 211.863 282.366C215.928 281.404 219.9 279.973 223.919 278.753L224.107 279.152L224.083 279.128Z" fill="white"/>
    <path d="M223.544 275.421C214.895 279.316 205.941 281.944 196.611 283.187C169.373 286.8 143.452 282.038 118.564 270.823C115.744 269.556 112.97 268.172 110.221 266.764C108.2 265.708 107.095 264.019 107.636 261.673C108.176 259.35 109.939 257.895 112.124 258.2C116.519 258.787 120.984 259.491 125.168 260.898C135.367 264.324 145.261 268.664 155.531 271.761C175.272 277.674 195.413 280.419 216.023 277.064C218.562 276.641 221.053 275.984 223.544 275.445V275.421Z" fill="white"/>
    <path d="M223.52 272.771C217.175 273.78 210.877 275.305 204.484 275.727C182.346 277.205 162.041 271.246 143.193 259.843C141.454 258.787 139.997 257.567 140.772 255.292C141.595 252.945 143.593 252.547 145.637 253.18C149.068 254.236 152.594 255.268 155.79 256.887C170.173 264.184 185.049 269.932 201.147 272.044C204.813 272.536 208.527 272.841 212.216 272.865C215.906 272.865 219.596 272.419 223.285 272.184C223.356 272.395 223.426 272.583 223.497 272.794L223.52 272.771Z" fill="white"/>
    <path d="M165.67 80.5403C170.314 55.28 153.567 31.0441 128.264 26.408C102.962 21.7719 78.6854 38.4911 74.0415 63.7514C69.3977 89.0117 86.1448 113.248 111.447 117.884C136.75 122.52 161.026 105.801 165.67 80.5403Z" fill="#FCDE16"/>
    <g style="mix-blend-mode:multiply">
        <path d="M73.8636 79.5355L85.4027 77.682C86.7893 86.2691 91.372 94.3635 98.8924 99.9944C114.286 111.538 136.165 108.441 147.728 93.0496C153.65 85.1664 155.718 75.6173 154.261 66.6079L165.8 64.7544C169.89 90.1169 152.616 113.978 127.235 118.06C101.83 122.143 77.9293 104.898 73.8401 79.559L73.8636 79.5355Z" fill="#FFE455"/>
    </g>
    <g style="mix-blend-mode:multiply">
        <path d="M124.508 106.648C143.597 104.078 156.984 86.5466 154.41 67.4898C151.836 48.433 134.275 35.0677 115.186 37.6375C96.0977 40.2073 82.71 57.7391 85.2841 76.7959C87.8582 95.8527 105.419 109.218 124.508 106.648Z" fill="#FFD700"/>
    </g>
    <g style="mix-blend-mode:multiply">
        <path d="M141.195 48.3324C125.802 36.789 103.922 39.886 92.3596 55.2771C87.3068 62.0107 85.0507 69.9644 85.4032 77.7773C83.9226 68.7444 85.9907 59.1484 91.9366 51.2416C103.499 35.874 125.355 32.7535 140.772 44.2969C149.444 50.7959 154.215 60.5326 154.685 70.5509C153.275 61.9873 148.692 53.9398 141.195 48.3324Z" fill="#DFCDA7"/>
    </g>
    <g style="mix-blend-mode:overlay">
        <path d="M85.52 78.387C87.0476 86.716 91.5833 94.5054 98.8922 99.9956C114.286 111.539 136.165 108.442 147.728 93.0508C153.227 85.7541 155.389 77.0027 154.52 68.5798C156.188 77.8004 154.167 87.6545 148.104 95.7255C136.541 111.093 114.685 114.214 99.2683 102.67C91.1838 96.617 86.4836 87.7014 85.52 78.387Z" fill="#FDE961"/>
    </g>
    <path d="M132.546 81.6957C132.546 79.5841 132.052 77.8948 131.042 76.6044C130.031 75.314 128.809 74.3286 127.329 73.6717C125.848 73.0147 124.015 72.4047 121.759 71.8416V60.9787C124.602 61.3775 127.235 62.5741 129.679 64.5684L131.888 59.876C130.713 58.8202 129.279 57.9286 127.587 57.2247C125.895 56.5209 124.062 56.0516 122.135 55.817V50.3269H117.035V55.8874C114.92 56.1455 113.063 56.779 111.442 57.7644C109.82 58.7498 108.551 59.9698 107.658 61.4714C106.765 62.9495 106.295 64.5918 106.295 66.3984C106.295 68.5569 106.812 70.3166 107.846 71.6774C108.88 73.0382 110.173 74.0471 111.7 74.7275C113.228 75.4079 115.131 76.0413 117.364 76.6044V86.9981C113.98 86.7635 110.854 85.52 107.94 83.2442L105.731 87.9366C107.165 89.1332 108.833 90.0951 110.76 90.7755C112.687 91.4794 114.755 91.9017 116.988 92.0659V97.5091H122.088V91.9486C125.26 91.4794 127.799 90.3297 129.679 88.4762C131.559 86.6227 132.499 84.3469 132.499 81.6488L132.546 81.6957ZM112.758 66.0465C112.758 64.7561 113.157 63.6534 113.98 62.7853C114.802 61.9172 115.93 61.3306 117.364 61.0256V70.6685C115.883 70.1758 114.755 69.5658 113.956 68.8385C113.157 68.1112 112.758 67.1727 112.758 66.023V66.0465ZM121.782 86.74V77.7775C123.192 78.2233 124.25 78.7395 124.978 79.3729C125.707 80.0064 126.083 80.8511 126.083 81.8834C126.083 83.1738 125.707 84.2531 124.978 85.0508C124.25 85.8719 123.169 86.435 121.782 86.7166V86.74Z" fill="#DF9800"/>
    <path d="M111.795 64.8729C111.795 63.5825 112.194 62.4798 113.017 61.6117C113.839 60.7436 114.967 60.157 116.401 59.852V69.4949C114.92 69.0022 113.792 68.3922 112.993 67.6649C112.194 66.9376 111.795 65.9991 111.795 64.8494V64.8729ZM120.819 85.5665V76.6039C122.229 77.0497 123.287 77.5659 124.015 78.1994C124.744 78.8328 125.12 79.6775 125.12 80.7098C125.12 82.0002 124.744 83.0795 124.015 83.8772C123.287 84.6984 122.206 85.2614 120.819 85.543V85.5665ZM131.583 80.5221C131.583 78.4105 131.089 76.7213 130.079 75.4308C129.068 74.1404 127.846 73.155 126.365 72.4981C124.885 71.8411 123.052 71.2311 120.796 70.668V59.8051C123.639 60.204 126.271 61.4005 128.716 63.3948L130.925 58.7024C129.75 57.6466 128.316 56.755 126.624 56.0512C124.932 55.3473 123.099 54.8781 121.172 54.6434V49.1533H116.072V54.7138C113.957 54.9719 112.1 55.6054 110.479 56.5908C108.857 57.5762 107.588 58.7962 106.695 60.2978C105.802 61.7759 105.332 63.4183 105.332 65.2248C105.332 67.3834 105.849 69.143 106.883 70.5038C107.917 71.8646 109.21 72.8735 110.737 73.5539C112.265 74.2343 114.168 74.8677 116.401 75.4308V85.8245C113.017 85.5899 109.891 84.3464 106.977 82.0706L104.768 86.763C106.201 87.9596 107.87 88.9215 109.797 89.6019C111.724 90.3058 113.792 90.7281 116.025 90.8923V96.3355H121.125V90.775C124.297 90.3058 126.835 89.1562 128.716 87.3026C130.596 85.4491 131.536 83.1733 131.536 80.4752L131.583 80.5221Z" fill="#FFDE56"/>
    <path d="M133.674 21.2109C134.285 21.2109 134.803 20.7181 134.803 20.0847V5.86666C134.803 5.25665 134.309 4.74048 133.674 4.74048C133.04 4.74048 132.546 5.23319 132.546 5.86666V20.0847C132.546 20.6947 133.04 21.2109 133.674 21.2109Z" fill="#B3D7DD"/>
    <path d="M118.721 19.0698C119.533 19.0698 120.221 18.9975 120.221 18.9046V9.23847C120.221 9.14897 119.564 9.07324 118.721 9.07324C117.877 9.07324 117.221 9.14553 117.221 9.23847V18.908C117.221 18.9975 117.877 19.0732 118.721 19.0732V19.0698Z" fill="#B3D7DD"/>
    <path d="M106.221 20.0732C106.762 20.0732 107.221 19.9856 107.221 19.8728V16.2737C107.221 16.1651 106.783 16.0732 106.221 16.0732C105.658 16.0732 105.221 16.1609 105.221 16.2737V19.8728C105.221 19.9814 105.658 20.0732 106.221 20.0732Z" fill="#B3D7DD"/>
    <path d="M114.405 158.98L121.69 154.522L123.593 156.845C128.529 156.845 134.216 158.464 140.256 161.913C158.446 172.33 172.946 195.346 172.617 213.248C172.57 215.876 172.194 218.222 171.56 220.334L172.758 222.07L166.131 227.067C160.044 232.44 150.22 233.214 138.752 226.645C120.562 216.228 106.344 193.399 106.673 175.498C106.814 167.638 109.54 162.195 114.428 158.98H114.405Z" fill="#FCDE16"/>
    <g style="mix-blend-mode:multiply">
        <path d="M114.405 158.98L121.69 154.522L123.593 156.845C128.529 156.845 134.216 158.464 140.256 161.913C158.446 172.33 172.946 195.346 172.617 213.248C172.57 215.876 172.194 218.222 171.56 220.334L172.758 222.07L166.131 227.067C160.044 232.44 150.22 233.214 138.752 226.645C120.562 216.228 106.344 193.399 106.673 175.498C106.814 167.638 109.469 162.288 114.428 158.98H114.405Z" fill="#FFD700"/>
    </g>
    <path d="M171.819 221.946C182.476 213.803 179.662 192.262 165.533 173.833C151.404 155.404 131.311 147.066 120.654 155.209C109.997 163.353 112.811 184.894 126.94 203.323C141.068 221.752 161.161 230.09 171.819 221.946Z" fill="#FCDE16"/>
    <path d="M172.94 221.82C183.597 213.677 180.783 192.136 166.654 173.707C152.525 155.278 132.432 146.94 121.775 155.083C111.117 163.227 113.932 184.768 128.06 203.197C142.189 221.626 162.282 229.964 172.94 221.82Z" fill="#FCDE16"/>
    <g style="mix-blend-mode:multiply">
        <path d="M145.355 155.555L145.849 163.813C139.856 160.857 134.004 160.2 129.633 162.523C120.679 167.262 121.313 182.724 131.09 197.059C136.096 204.403 142.512 210.01 148.786 213.107L149.28 221.366C131.607 212.661 116.402 190.865 115.321 172.682C114.24 154.499 127.682 146.85 145.355 155.555Z" fill="#FFE455"/>
    </g>
    <g style="mix-blend-mode:multiply">
        <path d="M166.525 213.455C174.513 207.351 172.406 191.209 161.82 177.4C151.233 163.592 136.175 157.345 128.187 163.449C120.2 169.553 122.306 185.695 132.893 199.503C143.48 213.312 158.537 219.559 166.525 213.455Z" fill="#FFD700"/>
    </g>
    <path d="M143.006 197.457C144.486 197.808 145.591 197.738 146.343 197.245C147.095 196.729 147.565 196.002 147.777 195.063C147.988 194.101 148.106 192.858 148.153 191.333L155.767 193.186C155.955 195.181 155.532 196.893 154.545 198.301L158.211 200.694C158.775 200.037 159.151 199.146 159.363 198.02C159.574 196.893 159.598 195.673 159.457 194.289L163.311 195.228L162.465 191.521L158.564 190.582C158.023 189.01 157.295 187.556 156.331 186.218C155.368 184.881 154.31 183.755 153.111 182.84C151.913 181.925 150.691 181.315 149.422 181.01C147.894 180.634 146.743 180.705 145.967 181.244C145.192 181.76 144.675 182.535 144.463 183.52C144.228 184.529 144.11 185.772 144.087 187.297L136.778 185.514C136.379 183.098 136.755 181.033 137.859 179.32L134.193 176.927C133.582 177.772 133.206 178.828 133.018 180.095C132.83 181.362 132.877 182.793 133.135 184.388L129.305 183.45L130.151 187.157L134.052 188.095C134.898 190.465 136.12 192.506 137.742 194.195C139.34 195.885 141.102 196.964 143.006 197.41V197.457ZM150.738 185.772C151.654 185.984 152.477 186.476 153.229 187.227C153.981 187.978 154.569 188.893 155.015 189.972L148.247 188.33C148.364 187.344 148.599 186.641 148.975 186.171C149.351 185.702 149.939 185.585 150.761 185.772H150.738ZM137.671 188.776L143.946 190.301C143.875 191.239 143.664 191.92 143.358 192.342C143.029 192.764 142.512 192.881 141.784 192.717C140.867 192.506 140.068 192.037 139.363 191.38C138.658 190.699 138.094 189.831 137.671 188.776Z" fill="#DF9800"/>
    <path d="M151.396 185.304C152.312 185.515 153.135 186.008 153.887 186.758C154.639 187.509 155.227 188.424 155.673 189.503L148.905 187.861C149.022 186.876 149.257 186.172 149.633 185.703C150.009 185.233 150.597 185.116 151.419 185.304H151.396ZM138.329 188.307L144.604 189.832C144.533 190.77 144.322 191.451 144.016 191.873C143.687 192.295 143.17 192.413 142.442 192.248C141.525 192.037 140.726 191.568 140.021 190.911C139.316 190.231 138.752 189.363 138.329 188.307ZM143.64 196.988C145.121 197.34 146.226 197.269 146.978 196.777C147.73 196.26 148.2 195.533 148.411 194.595C148.623 193.633 148.74 192.389 148.787 190.864L156.402 192.718C156.59 194.712 156.167 196.425 155.18 197.832L158.846 200.226C159.41 199.569 159.786 198.677 159.997 197.551C160.209 196.425 160.232 195.205 160.091 193.82L163.946 194.759L163.099 191.052L159.198 190.113C158.658 188.541 157.929 187.087 156.966 185.749C156.002 184.412 154.945 183.286 153.746 182.371C152.547 181.456 151.325 180.846 150.056 180.541C148.529 180.166 147.377 180.236 146.602 180.776C145.826 181.292 145.309 182.066 145.098 183.051C144.863 184.06 144.745 185.304 144.721 186.829L137.413 185.046C137.013 182.629 137.389 180.564 138.494 178.852L134.827 176.458C134.216 177.303 133.84 178.359 133.652 179.626C133.464 180.893 133.511 182.324 133.77 183.919L129.939 182.981L130.785 186.688L134.686 187.626C135.533 189.996 136.755 192.037 138.376 193.727C139.974 195.416 141.737 196.495 143.64 196.941V196.988Z" fill="#FFDE56"/>
    <g style="mix-blend-mode:multiply">
        <path d="M143.617 162.804C132.877 159.05 124.698 163.883 124.487 175.121C124.252 188.166 134.78 204.894 148.035 212.473C149.469 213.294 150.855 213.951 152.218 214.49C150.503 213.904 148.74 213.083 146.907 212.05C133.652 204.472 123.1 187.744 123.359 174.699C123.57 163.062 132.313 158.299 143.617 162.804Z" fill="#FFD700"/>
    </g>
    <g style="mix-blend-mode:multiply">
        <path d="M169.703 201.751C169.938 188.706 159.385 172.001 146.154 164.399C144.086 163.203 142.065 162.311 140.138 161.701C142.559 162.288 145.144 163.32 147.799 164.845C161.054 172.423 171.606 189.152 171.348 202.197C171.136 213.318 163.146 218.174 152.594 214.655C162.347 217.189 169.514 212.285 169.703 201.751Z" fill="#FFD700"/>
    </g>
    <path d="M137.294 161.209C129.21 160.458 123.546 165.361 123.358 174.723C123.123 187.768 133.652 204.496 146.906 212.074C150.126 213.928 153.228 215.054 156.072 215.523C152.876 215.218 149.304 214.045 145.543 211.887C132.289 204.308 121.737 187.58 121.995 174.535C122.183 164.681 128.481 159.731 137.294 161.209Z" fill="#FCDE16"/>
    <path d="M164.015 226.269L157.835 230.985C156.942 231.149 156.025 231.219 155.062 231.266L161.242 226.55C162.206 226.503 163.122 226.433 164.015 226.269Z" fill="#FCDE16"/>
    <path d="M154.92 225.941L148.739 230.657C148.152 230.516 147.541 230.375 146.953 230.187L153.134 225.471C153.745 225.659 154.333 225.8 154.92 225.941Z" fill="#FCDE16"/>
    <path d="M148.364 223.664L142.183 228.38C141.69 228.145 141.196 227.934 140.703 227.676L146.883 222.96C147.377 223.218 147.871 223.429 148.364 223.664Z" fill="#FCDE16"/>
    <path d="M142.794 220.614L136.614 225.33C136.191 225.049 135.744 224.767 135.321 224.485L141.502 219.77C141.925 220.051 142.371 220.333 142.794 220.614Z" fill="#FCDE16"/>
    <path d="M137.858 217.095L131.677 221.811C131.278 221.506 130.902 221.201 130.502 220.872L136.683 216.156C137.059 216.485 137.459 216.79 137.858 217.095Z" fill="#FCDE16"/>
    <path d="M133.418 213.224L127.237 217.94C126.884 217.612 126.532 217.26 126.179 216.908L132.36 212.192C132.713 212.544 133.065 212.873 133.418 213.224Z" fill="#FCDE16"/>
    <path d="M129.352 209.025L123.171 213.74C122.842 213.389 122.537 213.013 122.208 212.638L128.388 207.922C128.694 208.297 129.023 208.673 129.352 209.025Z" fill="#FCDE16"/>
    <path d="M125.684 204.543L119.504 209.259C119.198 208.86 118.916 208.484 118.634 208.086L124.815 203.37C125.097 203.768 125.379 204.144 125.684 204.543Z" fill="#FCDE16"/>
    <path d="M122.371 199.804L116.19 204.52C115.932 204.098 115.673 203.699 115.415 203.276L121.596 198.561C121.854 198.983 122.113 199.382 122.371 199.804Z" fill="#FCDE16"/>
    <path d="M119.41 194.759L113.229 199.475C112.994 199.029 112.759 198.607 112.548 198.161L118.728 193.445C118.94 193.891 119.175 194.313 119.41 194.759Z" fill="#FCDE16"/>
    <path d="M116.872 189.411L110.691 194.127C110.503 193.657 110.292 193.188 110.127 192.719L116.308 188.003C116.496 188.472 116.684 188.941 116.872 189.411Z" fill="#FCDE16"/>
    <path d="M114.805 183.708L108.624 188.424C108.483 187.932 108.318 187.415 108.201 186.923L114.382 182.207C114.523 182.699 114.664 183.216 114.805 183.708Z" fill="#FCDE16"/>
    <path d="M113.347 177.516L107.167 182.232C107.073 181.668 107.002 181.129 106.932 180.589L113.112 175.873C113.183 176.413 113.253 176.976 113.347 177.516Z" fill="#FCDE16"/>
    <path d="M112.854 170.617L106.673 175.333C106.673 174.676 106.72 174.042 106.767 173.409L112.948 168.693C112.901 169.327 112.854 169.96 112.854 170.617Z" fill="#FCDE16"/>
    <path d="M114.334 162.217L108.153 166.933C108.553 165.877 109.023 164.915 109.563 164.023L115.744 159.308C115.203 160.199 114.733 161.185 114.334 162.217Z" fill="#FCDE16"/>
    <path d="M154.803 151.8C155.367 151.8 155.813 151.355 155.813 150.791V125.077C155.813 124.514 155.367 124.068 154.803 124.068C154.239 124.068 153.792 124.514 153.792 125.077V150.791C153.792 151.355 154.239 151.8 154.803 151.8Z" fill="#B3D7DD"/>
    <path d="M145.309 147.741C145.873 147.741 146.319 147.295 146.319 146.732V132.514C146.319 131.951 145.873 131.505 145.309 131.505C144.745 131.505 144.298 131.951 144.298 132.514V146.732C144.298 147.295 144.745 147.741 145.309 147.741Z" fill="#B3D7DD"/>
    <path d="M193.509 144.505L188.55 138.123L190.548 136.105C190.031 131.483 190.971 125.946 193.626 119.916C201.57 101.757 221.804 85.7087 238.725 84.1837C241.193 83.9491 243.472 84.0664 245.517 84.4652L247.021 83.1748L252.426 88.8995C258.137 94.0612 259.853 103.211 254.847 114.684C246.904 132.844 226.834 148.587 209.913 150.112C202.486 150.792 197.057 148.775 193.532 144.528L193.509 144.505Z" fill="#FCDE16"/>
    <g style="mix-blend-mode:multiply">
        <path d="M193.509 144.505L188.55 138.123L190.548 136.105C190.031 131.483 190.971 125.946 193.626 119.916C201.57 101.757 221.804 85.7087 238.725 84.1837C241.193 83.9491 243.472 84.0664 245.517 84.4652L247.021 83.1748L252.426 88.8995C258.137 94.0612 259.853 103.211 254.847 114.684C246.904 132.844 226.834 148.587 209.913 150.112C202.486 150.792 197.175 148.845 193.532 144.528L193.509 144.505Z" fill="#FFD700"/>
    </g>
    <path d="M234.103 128.159C250.032 112.972 255.824 93.2162 247.04 84.0325C238.255 74.8488 218.22 79.7149 202.291 94.9014C186.362 110.088 180.57 129.844 189.354 139.028C198.139 148.211 218.174 143.345 234.103 128.159Z" fill="#FCDE16"/>
    <path d="M233.837 127.122C249.766 111.936 255.558 92.1798 246.773 82.9961C237.989 73.8124 217.954 78.6786 202.025 93.865C186.095 109.051 180.303 128.807 189.088 137.991C197.873 147.175 217.907 142.309 233.837 127.122Z" fill="#FCDE16"/>
    <g style="mix-blend-mode:multiply">
        <path d="M187.094 115.739L194.85 114.425C192.688 120.361 192.664 125.922 195.296 129.816C200.701 137.747 215.225 135.541 227.728 124.889C234.12 119.423 238.773 112.806 241.03 106.589L248.785 105.275C242.393 122.778 223.404 139.342 206.365 142.228C189.327 145.114 180.702 133.265 187.118 115.763L187.094 115.739Z" fill="#FFE455"/>
    </g>
    <g style="mix-blend-mode:multiply">
        <path d="M229.844 122.948C241.775 111.574 246.113 96.7776 239.533 89.8992C232.954 83.0208 217.948 86.6653 206.018 98.0395C194.087 109.414 189.749 124.21 196.329 131.089C202.908 137.967 217.914 134.323 229.844 122.948Z" fill="#FFD700"/>
    </g>
    <path d="M223.05 115.998C223.873 114.801 224.178 113.769 223.967 112.924C223.755 112.079 223.262 111.399 222.486 110.906C221.687 110.39 220.63 109.874 219.267 109.334L223.473 103.117C225.33 103.61 226.74 104.548 227.68 105.932L231.064 103.445C230.641 102.718 229.983 102.085 229.043 101.522C228.103 100.958 226.999 100.513 225.73 100.208L227.868 97.0637L224.249 96.5945L222.087 99.7853C220.489 99.7384 218.938 99.9261 217.41 100.325C215.883 100.747 214.519 101.334 213.297 102.085C212.075 102.859 211.135 103.75 210.43 104.783C209.584 106.026 209.279 107.082 209.49 107.95C209.702 108.818 210.219 109.522 211.041 110.062C211.864 110.601 212.968 111.141 214.331 111.681L210.289 117.64C207.986 117.194 206.247 116.185 205.072 114.613L201.688 117.1C202.228 117.922 203.051 118.625 204.155 119.212C205.236 119.798 206.553 120.244 208.057 120.549L205.941 123.67L209.561 124.139L211.723 120.948C214.143 120.972 216.4 120.549 218.444 119.658C220.489 118.766 222.04 117.57 223.097 115.998H223.05ZM215.107 105.158C215.6 104.407 216.329 103.821 217.246 103.398C218.162 102.976 219.173 102.742 220.324 102.718L216.588 108.255C215.742 107.833 215.177 107.364 214.872 106.894C214.59 106.402 214.66 105.839 215.107 105.158ZM213.462 117.875L216.94 112.736C217.763 113.112 218.303 113.534 218.585 113.956C218.867 114.379 218.797 114.895 218.397 115.505C217.904 116.256 217.222 116.819 216.376 117.218C215.53 117.616 214.566 117.828 213.462 117.875Z" fill="#DF9800"/>
    <path d="M214.872 104.407C215.366 103.656 216.094 103.07 217.011 102.648C217.927 102.225 218.938 101.991 220.09 101.967L216.353 107.504C215.507 107.082 214.943 106.613 214.637 106.143C214.355 105.651 214.426 105.088 214.872 104.407ZM213.227 117.124L216.705 111.985C217.528 112.361 218.069 112.783 218.351 113.205C218.633 113.628 218.562 114.144 218.163 114.754C217.669 115.505 216.987 116.068 216.141 116.467C215.295 116.866 214.332 117.077 213.227 117.124ZM222.816 115.247C223.638 114.05 223.944 113.018 223.732 112.173C223.521 111.328 223.027 110.648 222.252 110.155C221.453 109.639 220.395 109.123 219.032 108.583L223.239 102.366C225.095 102.859 226.505 103.797 227.446 105.181L230.83 102.694C230.407 101.967 229.749 101.334 228.809 100.771C227.869 100.207 226.764 99.7617 225.495 99.4567L227.634 96.3127L224.014 95.8435L221.852 99.0343C220.254 98.9874 218.703 99.1751 217.175 99.574C215.648 99.9963 214.285 100.583 213.063 101.334C211.841 102.108 210.901 102.999 210.196 104.032C209.35 105.275 209.044 106.331 209.256 107.199C209.467 108.067 209.984 108.771 210.807 109.311C211.629 109.85 212.734 110.39 214.097 110.93L210.055 116.889C207.751 116.443 206.012 115.434 204.837 113.862L201.453 116.349C201.994 117.171 202.816 117.874 203.921 118.461C205.002 119.047 206.318 119.493 207.822 119.798L205.707 122.919L209.326 123.388L211.488 120.197C213.909 120.221 216.165 119.798 218.21 118.907C220.254 118.015 221.805 116.819 222.863 115.247H222.816Z" fill="#FFDE56"/>
    <g style="mix-blend-mode:multiply">
        <path d="M194.121 116.631C191.677 127.119 197.082 134.321 207.728 133.359C220.067 132.257 234.755 120.596 240.536 107.363C241.147 105.932 241.641 104.571 242.017 103.234C241.641 104.9 241.053 106.66 240.254 108.466C234.473 121.722 219.761 133.359 207.446 134.462C196.448 135.448 191.042 127.729 194.121 116.631Z" fill="#FFD700"/>
    </g>
    <g style="mix-blend-mode:multiply">
        <path d="M228.15 88.0786C215.835 89.2048 201.147 100.842 195.342 114.075C194.426 116.139 193.791 118.134 193.415 120.011C193.721 117.688 194.426 115.154 195.601 112.479C201.382 99.2231 216.094 87.5859 228.408 86.4832C238.913 85.5447 244.319 92.5364 242.086 102.836C243.473 93.4045 238.091 87.1636 228.15 88.0786Z" fill="#FFD700"/>
    </g>
    <path d="M193.251 122.755C193.369 130.427 198.586 135.261 207.446 134.463C219.784 133.36 234.472 121.7 240.254 108.467C241.664 105.229 242.416 102.226 242.557 99.5044C242.604 102.531 241.852 106.027 240.207 109.781C234.425 123.037 219.713 134.674 207.399 135.777C198.069 136.621 192.781 131.202 193.251 122.779V122.755Z" fill="#FCDE16"/>
    <path d="M251.887 90.9163L256.987 96.2422C257.222 97.0633 257.41 97.9314 257.528 98.823L252.428 93.4971C252.287 92.6055 252.122 91.7374 251.887 90.9163Z" fill="#FCDE16"/>
    <path d="M252.52 99.5044L257.62 104.83C257.55 105.393 257.479 105.98 257.362 106.566L252.262 101.241C252.356 100.654 252.45 100.067 252.52 99.5044Z" fill="#FCDE16"/>
    <path d="M251.041 105.91L256.14 111.236C255.976 111.728 255.811 112.198 255.623 112.69L250.524 107.364C250.712 106.872 250.876 106.379 251.041 105.91Z" fill="#FCDE16"/>
    <path d="M248.737 111.446L253.837 116.772C253.626 117.218 253.414 117.64 253.179 118.086L248.079 112.76C248.314 112.338 248.526 111.892 248.737 111.446Z" fill="#FCDE16"/>
    <path d="M245.94 116.443L251.04 121.769C250.781 122.168 250.546 122.567 250.264 122.966L245.165 117.64C245.423 117.241 245.682 116.842 245.94 116.443Z" fill="#FCDE16"/>
    <path d="M242.745 121.042L247.844 126.368C247.562 126.743 247.28 127.095 246.975 127.471L241.875 122.145C242.157 121.769 242.463 121.417 242.745 121.042Z" fill="#FCDE16"/>
    <path d="M239.195 125.288L244.295 130.614C243.99 130.966 243.661 131.295 243.355 131.623L238.255 126.297C238.561 125.969 238.89 125.617 239.195 125.288Z" fill="#FCDE16"/>
    <path d="M235.366 129.208L240.465 134.533C240.136 134.838 239.784 135.167 239.455 135.472L234.355 130.146C234.707 129.841 235.037 129.536 235.366 129.208Z" fill="#FCDE16"/>
    <path d="M231.206 132.821L236.306 138.147C235.953 138.428 235.577 138.733 235.225 139.015L230.125 133.689C230.501 133.407 230.853 133.126 231.206 132.821Z" fill="#FCDE16"/>
    <path d="M226.763 136.106L231.863 141.432C231.463 141.69 231.087 141.948 230.688 142.206L225.588 136.88C225.988 136.622 226.364 136.364 226.763 136.106Z" fill="#FCDE16"/>
    <path d="M221.992 139.038L227.092 144.364C226.669 144.599 226.246 144.833 225.823 145.044L220.723 139.718C221.146 139.507 221.569 139.273 221.992 139.038Z" fill="#FCDE16"/>
    <path d="M216.798 141.572L221.898 146.898C221.428 147.085 220.982 147.273 220.512 147.461L215.412 142.135C215.882 141.947 216.328 141.759 216.798 141.572Z" fill="#FCDE16"/>
    <path d="M211.135 143.567L216.235 148.893C215.718 149.033 215.201 149.174 214.707 149.291L209.608 143.966C210.125 143.848 210.642 143.707 211.135 143.567Z" fill="#FCDE16"/>
    <path d="M204.672 144.762L209.772 150.088C209.161 150.135 208.55 150.182 207.963 150.182L202.863 144.856C203.45 144.856 204.061 144.809 204.672 144.762Z" fill="#FCDE16"/>
    <path d="M196.588 144.246L201.688 149.572C200.654 149.314 199.69 148.962 198.797 148.54L193.697 143.214C194.614 143.636 195.577 143.988 196.588 144.246Z" fill="#FCDE16"/>
    <path d="M225.188 71.0203C225.729 71.0203 226.152 70.598 226.152 70.0583V2.7222C226.152 2.18257 225.729 1.76025 225.188 1.76025C224.648 1.76025 224.225 2.18257 224.225 2.7222V70.0583C224.225 70.598 224.648 71.0203 225.188 71.0203Z" fill="#B3D7DD"/>
    <path d="M212.992 74.2348C213.532 74.2348 213.955 73.8124 213.955 73.2728V17.48C213.955 16.9404 213.532 16.5181 212.992 16.5181C212.451 16.5181 212.028 16.9404 212.028 17.48V73.2728C212.028 73.8124 212.451 74.2348 212.992 74.2348Z" fill="#B3D7DD"/>
    <path d="M236.776 70.3875C237.316 70.3875 237.739 69.9652 237.739 69.4256V51.4771C237.739 50.9375 237.316 50.5151 236.776 50.5151C236.235 50.5151 235.812 50.9375 235.812 51.4771V69.4256C235.812 69.9652 236.235 70.3875 236.776 70.3875Z" fill="#B3D7DD"/>
</svg>
