<svg width="80" height="80" viewBox="0 0 80 80" fill="none" xmlns="http://www.w3.org/2000/svg">
<g filter="url(#filter0_d_2747_5137)">
<path d="M12 38C12 22.5365 24.5337 10 39.9982 10C55.145 10 67.4788 22.0189 67.9822 37.0398C67.9929 37.3575 68 37.6787 68 38C68 38.6283 67.9786 39.2458 67.9393 39.8633C67.8536 41.1662 67.6751 42.4477 67.4181 43.6971C67.2825 44.3575 67.1254 45.0071 66.9433 45.6461C66.4257 47.4666 65.7332 49.2157 64.8728 50.8684C64.5373 51.5217 64.1731 52.1642 63.784 52.7853C63.1914 53.7348 62.5489 54.6415 61.8527 55.5089C61.3958 56.0765 60.9175 56.6298 60.4177 57.1616C55.3092 62.6017 48.0518 66 39.9982 66C24.5337 66 12 53.4635 12 38Z" fill="#00A650"/>
<path d="M42.7895 30.7464L39.4946 28.6853C39.3348 28.5852 39.2029 28.4461 39.1115 28.2809C39.02 28.1158 38.9721 27.9301 38.972 27.7413C38.972 27.5525 39.02 27.3667 39.1114 27.2016C39.2029 27.0365 39.3347 26.8973 39.4946 26.7972L42.7895 24.7365L42.924 20.8479C42.9306 20.6592 42.9849 20.4752 43.082 20.3134C43.1791 20.1515 43.3158 20.0171 43.479 19.9227C43.6423 19.8283 43.8268 19.777 44.0153 19.7737C44.2038 19.7703 44.39 19.8151 44.5564 19.9038L47.9861 21.7314L51.4153 19.9039C51.5788 19.8169 51.7579 19.7734 51.9373 19.7734C52.1325 19.7734 52.3241 19.8249 52.493 19.9227C52.6563 20.0171 52.7929 20.1515 52.8899 20.3134C52.987 20.4752 53.0413 20.6592 53.0478 20.8479L53.1827 24.7365L56.4774 26.7972C56.6373 26.8973 56.7692 27.0364 56.8606 27.2015C56.952 27.3667 57 27.5524 57 27.7413C57 27.9301 56.952 28.1158 56.8606 28.281C56.7692 28.4461 56.6373 28.5852 56.4774 28.6853L53.1825 30.7464L53.0477 34.6346C53.0413 34.8234 52.987 35.0074 52.89 35.1693C52.7929 35.3312 52.6563 35.4657 52.493 35.5601C52.3297 35.6545 52.1451 35.7058 51.9566 35.709C51.7681 35.7122 51.5818 35.6674 51.4154 35.5787L47.9861 33.7515L44.5564 35.5787C44.3932 35.666 44.2138 35.7091 44.0346 35.7091C43.7466 35.709 43.4698 35.597 43.2626 35.3966C43.0555 35.1961 42.9341 34.923 42.924 34.6346L42.7895 30.7464Z" fill="#FCBB00"/>
<path d="M51.4319 24.7188V30.5229H50.0303V24.7188H51.4319Z" fill="white"/>
<path d="M47.6331 29.4628H45.461L45.1004 30.5219H43.625L45.7479 24.7588H47.3626L49.4854 30.5219H47.9937L47.6331 29.4628ZM47.2724 28.3956L46.5511 26.2611L45.8217 28.3956H47.2724Z" fill="white"/>
<path d="M36.1929 26.9592C36.1929 26.4542 35.7838 26.0444 35.2796 26.0444H29.4099C28.9054 26.0444 28.4966 26.4542 28.4966 26.9592V28.0694H36.1929V26.9592ZM40.1712 35.8961C36.4957 35.8961 33.5054 38.8909 33.5054 42.5721C33.5054 46.2532 36.4957 49.2483 40.1712 49.2483C43.8462 49.2483 46.8365 46.2535 46.8365 42.5721C46.8365 38.8909 43.8462 35.8961 40.1712 35.8961ZM40.171 47.4066C37.5097 47.4066 35.3445 45.2377 35.3445 42.5721C35.3445 39.9065 37.5097 37.7378 40.171 37.7378C42.8325 37.7378 44.9977 39.9065 44.9977 42.5721C44.9977 45.2377 42.8325 47.4066 40.171 47.4066Z" fill="white"/>
<path d="M40.1712 39.5677C38.5172 39.5677 37.1714 40.9157 37.1714 42.5723C37.1714 44.2292 38.5172 45.5772 40.1712 45.5772C41.8252 45.5772 43.1713 44.2292 43.1713 42.5723C43.1713 40.9157 41.8252 39.5677 40.1712 39.5677ZM29.8991 34.6685C29.5935 34.6685 29.345 34.9174 29.345 35.2233C29.345 35.5295 29.5935 35.7784 29.8991 35.7784C30.2047 35.7784 30.4533 35.5295 30.4533 35.2233C30.4531 34.9174 30.2045 34.6685 29.8991 34.6685Z" fill="white"/>
<path d="M54.4131 32.1133L54.3361 34.3367C54.303 35.2891 53.7914 36.142 52.9677 36.6182C52.551 36.8588 52.0786 36.9856 51.5977 36.9859C51.1489 36.9855 50.707 36.8751 50.3106 36.6642L48.35 35.6196L46.389 36.6643C46.364 36.6776 46.3383 36.6895 46.3129 36.7019C47.7683 38.2294 48.6633 40.2971 48.6633 42.5703C48.6633 47.2603 44.8536 51.0761 40.1711 51.0761C35.4885 51.0761 31.6788 47.2603 31.6788 42.5703C31.6788 37.8802 35.4885 34.0646 40.1711 34.0646C40.9296 34.0646 41.6648 34.1652 42.3648 34.3529C42.3645 34.3474 42.3638 34.3419 42.3638 34.3364L42.2868 32.1133L40.4033 30.9352C39.9948 30.6805 39.6606 30.3224 39.4345 29.897H27.9424C26.0901 29.8972 24.5833 31.4064 24.5833 33.2616V49.9193C24.5833 51.7746 26.0901 53.2838 27.9425 53.2838H52.3995C54.2519 53.2838 55.7589 51.7746 55.7589 49.9193V33.2615C55.7594 32.6634 55.5996 32.0761 55.2962 31.5608L54.4131 32.1133ZM29.899 37.606C28.5863 37.606 27.5181 36.5363 27.5181 35.2213C27.5181 33.9064 28.5863 32.8368 29.899 32.8368C31.2117 32.8368 32.2799 33.9065 32.2799 35.2213C32.2796 36.5363 31.2117 37.606 29.899 37.606Z" fill="white"/>
<path d="M27.6486 41.7535C28.2277 38.5986 26.1394 35.5717 22.9843 34.9927C19.8292 34.4136 16.802 36.5018 16.223 39.6567C15.6439 42.8116 17.7322 45.8385 20.8873 46.4176C24.0424 46.9966 27.0695 44.9084 27.6486 41.7535Z" fill="#FCDE16"/>
<g style="mix-blend-mode:multiply">
<path d="M16.2012 41.6273L17.6401 41.3959C17.813 42.4683 18.3844 43.4793 19.3222 44.1826C21.2416 45.6243 23.9699 45.2375 25.4117 43.3152C26.1502 42.3306 26.4081 41.138 26.2264 40.0127L27.6653 39.7812C28.1752 42.9489 26.0213 45.929 22.8563 46.4389C19.6885 46.9488 16.7082 44.795 16.1983 41.6303L16.2012 41.6273Z" fill="#FFE455"/>
</g>
<g style="mix-blend-mode:multiply">
<path d="M22.5178 45.0133C24.8981 44.6928 26.5672 42.5036 26.2457 40.1236C25.9242 37.7436 23.7339 36.0739 21.3536 36.3944C18.9733 36.7148 17.3043 38.904 17.6257 41.2841C17.9472 43.6641 20.1375 45.3337 22.5178 45.0133Z" fill="#FFD700"/>
</g>
<g style="mix-blend-mode:multiply">
<path d="M24.5968 37.7295C22.6773 36.2878 19.949 36.6746 18.5072 38.5969C17.8772 39.4379 17.5958 40.4313 17.6398 41.4071C17.4552 40.2789 17.713 39.0804 18.4545 38.0929C19.8963 36.1735 22.6216 35.7838 24.544 37.2255C25.6254 38.0372 26.2203 39.2533 26.2789 40.5045C26.1031 39.435 25.5316 38.4299 24.5968 37.7295Z" fill="#DFCDA7"/>
</g>
<g style="mix-blend-mode:overlay">
<path d="M17.6544 41.4827C17.8449 42.5229 18.4105 43.4958 19.3219 44.1815C21.2414 45.6232 23.9697 45.2364 25.4115 43.3141C26.0972 42.4028 26.3668 41.3098 26.2584 40.2578C26.4664 41.4094 26.2144 42.6402 25.4584 43.6482C24.0165 45.5675 21.2912 45.9573 19.3688 44.5156C18.3607 43.7595 17.7746 42.646 17.6544 41.4827Z" fill="#FDE961"/>
</g>
<path d="M23.5187 41.8973C23.5187 41.6336 23.4571 41.4226 23.3311 41.2614C23.2051 41.1003 23.0527 40.9772 22.8681 40.8952C22.6835 40.8131 22.4549 40.7369 22.1736 40.6666V39.3099C22.5282 39.3597 22.8564 39.5091 23.1611 39.7582L23.4366 39.1721C23.2901 39.0403 23.1113 38.9289 22.9003 38.841C22.6893 38.7531 22.4608 38.6945 22.2205 38.6652V37.9795H21.5845V38.674C21.3208 38.7062 21.0893 38.7853 20.8871 38.9084C20.6849 39.0315 20.5266 39.1839 20.4153 39.3714C20.3039 39.556 20.2453 39.7611 20.2453 39.9868C20.2453 40.2563 20.3098 40.4761 20.4387 40.6461C20.5677 40.816 20.7288 40.942 20.9193 41.027C21.1098 41.112 21.3472 41.1911 21.6256 41.2614V42.5596C21.2036 42.5303 20.8138 42.375 20.4504 42.0907L20.175 42.6768C20.3537 42.8262 20.5618 42.9464 20.8021 43.0313C21.0424 43.1193 21.3003 43.172 21.5787 43.1925V43.8723H22.2146V43.1779C22.6102 43.1193 22.9267 42.9757 23.1611 42.7442C23.3956 42.5127 23.5128 42.2284 23.5128 41.8915L23.5187 41.8973ZM21.0512 39.9428C21.0512 39.7816 21.101 39.6439 21.2036 39.5355C21.3061 39.4271 21.4468 39.3538 21.6256 39.3157V40.5201C21.4409 40.4585 21.3003 40.3823 21.2006 40.2915C21.101 40.2007 21.0512 40.0835 21.0512 39.9399V39.9428ZM22.1765 42.5273V41.408C22.3523 41.4636 22.4842 41.5281 22.575 41.6072C22.6659 41.6863 22.7128 41.7918 22.7128 41.9208C22.7128 42.0819 22.6659 42.2167 22.575 42.3164C22.4842 42.4189 22.3494 42.4892 22.1765 42.5244V42.5273Z" fill="#DF9800"/>
<path d="M20.9306 39.7953C20.9306 39.6342 20.9804 39.4964 21.083 39.388C21.1856 39.2796 21.3262 39.2063 21.505 39.1683V40.3726C21.3204 40.3111 21.1797 40.2349 21.0801 40.144C20.9804 40.0532 20.9306 39.936 20.9306 39.7924V39.7953ZM22.0559 42.3799V41.2605C22.2318 41.3162 22.3636 41.3806 22.4545 41.4598C22.5453 41.5389 22.5922 41.6444 22.5922 41.7733C22.5922 41.9345 22.5453 42.0693 22.4545 42.1689C22.3636 42.2715 22.2288 42.3418 22.0559 42.3769V42.3799ZM23.3981 41.7499C23.3981 41.4861 23.3366 41.2751 23.2106 41.114C23.0845 40.9528 22.9322 40.8297 22.7475 40.7477C22.5629 40.6656 22.3343 40.5895 22.053 40.5191V39.1624C22.4076 39.2122 22.7358 39.3617 23.0406 39.6107L23.3161 39.0247C23.1695 38.8928 22.9908 38.7815 22.7798 38.6935C22.5688 38.6056 22.3402 38.547 22.0999 38.5177V37.832H21.464V38.5265C21.2002 38.5587 20.9687 38.6379 20.7665 38.7609C20.5643 38.884 20.4061 39.0364 20.2947 39.2239C20.1834 39.4085 20.1247 39.6137 20.1247 39.8393C20.1247 40.1089 20.1892 40.3287 20.3182 40.4986C20.4471 40.6686 20.6083 40.7946 20.7988 40.8796C20.9892 40.9645 21.2266 41.0437 21.505 41.114V42.4121C21.083 42.3828 20.6933 42.2275 20.3299 41.9433L20.0544 42.5293C20.2332 42.6788 20.4412 42.7989 20.6815 42.8839C20.9218 42.9718 21.1797 43.0245 21.4581 43.0451V43.7249H22.094V43.0304C22.4897 42.9718 22.8061 42.8282 23.0406 42.5967C23.275 42.3652 23.3922 42.081 23.3922 41.744L23.3981 41.7499Z" fill="#FFDE56"/>
<path d="M23.6595 34.3422C23.7358 34.3422 23.8004 34.2807 23.8004 34.2016V32.4258C23.8004 32.3496 23.7387 32.2852 23.6595 32.2852C23.5802 32.2852 23.5186 32.3467 23.5186 32.4258V34.2016C23.5186 34.2778 23.5802 34.3422 23.6595 34.3422Z" fill="#B3D7DD"/>
<path d="M21.787 33.9681C21.8633 33.9681 21.9279 33.9066 21.9279 33.8275V25.5992C21.9279 25.523 21.8662 25.4585 21.787 25.4585C21.7077 25.4585 21.6461 25.52 21.6461 25.5992V33.8304C21.6461 33.9066 21.7077 33.971 21.787 33.971V33.9681Z" fill="#B3D7DD"/>
<path d="M20.1987 34.1534C20.275 34.1534 20.3396 34.0919 20.3396 34.0128V31.4868C20.3396 31.4107 20.278 31.3462 20.1987 31.3462C20.1195 31.3462 20.0578 31.4077 20.0578 31.4868V34.0128C20.0578 34.089 20.1195 34.1534 20.1987 34.1534Z" fill="#B3D7DD"/>
<path d="M21.2561 51.5489L22.1646 50.9922L22.4019 51.2823C23.0173 51.2823 23.7265 51.4845 24.4797 51.9152C26.7479 53.2163 28.556 56.0909 28.5149 58.3268C28.5091 58.6549 28.4622 58.948 28.3831 59.2117L28.5325 59.4286L27.7061 60.0527C26.9471 60.7237 25.7222 60.8204 24.2921 60C22.0239 58.6989 20.2509 55.8477 20.292 53.6119C20.3096 52.6302 20.6495 51.9504 21.259 51.5489H21.2561Z" fill="#FCDE16"/>
<g style="mix-blend-mode:multiply">
<path d="M21.2561 51.5489L22.1646 50.9922L22.4019 51.2823C23.0173 51.2823 23.7265 51.4845 24.4797 51.9152C26.7479 53.2163 28.556 56.0909 28.5149 58.3268C28.5091 58.6549 28.4622 58.948 28.3831 59.2117L28.5325 59.4286L27.7061 60.0527C26.9471 60.7237 25.7222 60.8204 24.2921 60C22.0239 58.6989 20.2509 55.8477 20.292 53.6119C20.3096 52.6302 20.6407 51.9621 21.259 51.5489H21.2561Z" fill="#FFD700"/>
</g>
<path d="M28.4156 59.4115C29.7445 58.3945 29.3936 55.7041 27.6318 53.4024C25.87 51.1007 23.3645 50.0593 22.0355 51.0764C20.7066 52.0935 21.0575 54.7839 22.8193 57.0855C24.5811 59.3872 27.0866 60.4286 28.4156 59.4115Z" fill="#FCDE16"/>
<path d="M28.5549 59.3974C29.8839 58.3803 29.5329 55.6899 27.7712 53.3882C26.0094 51.0865 23.5038 50.0452 22.1749 51.0622C20.846 52.0793 21.1969 54.7697 22.9587 57.0714C24.7205 59.3731 27.226 60.4144 28.5549 59.3974Z" fill="#FCDE16"/>
<g style="mix-blend-mode:multiply">
<path d="M25.1156 51.1211L25.1771 52.1526C24.4299 51.7834 23.7002 51.7013 23.1551 51.9914C22.0386 52.5834 22.1177 54.5144 23.3368 56.3049C23.961 57.222 24.761 57.9224 25.5435 58.3092L25.605 59.3407C23.4013 58.2535 21.5052 55.5313 21.3704 53.2603C21.2356 50.9893 22.9119 50.034 25.1156 51.1211Z" fill="#FFE455"/>
</g>
<g style="mix-blend-mode:multiply">
<path d="M27.7553 58.3506C28.7513 57.5883 28.4886 55.5722 27.1685 53.8475C25.8484 52.1229 23.9708 51.3427 22.9747 52.1051C21.9787 52.8674 22.2414 54.8835 23.5615 56.6081C24.8816 58.3328 26.7592 59.1129 27.7553 58.3506Z" fill="#FFD700"/>
</g>
<path d="M24.8224 56.3545C25.007 56.3985 25.1448 56.3897 25.2385 56.3282C25.3323 56.2637 25.3909 56.1729 25.4173 56.0557C25.4437 55.9355 25.4583 55.7802 25.4642 55.5897L26.4137 55.8212C26.4371 56.0703 26.3844 56.2842 26.2613 56.46L26.7184 56.7589C26.7888 56.6769 26.8357 56.5655 26.862 56.4249C26.8884 56.2842 26.8913 56.1318 26.8738 55.959L27.3544 56.0762L27.2489 55.6132L26.7624 55.496C26.695 55.2996 26.6041 55.118 26.484 54.9509C26.3638 54.7839 26.232 54.6432 26.0825 54.529C25.9331 54.4147 25.7807 54.3385 25.6224 54.3004C25.4319 54.2535 25.2884 54.2623 25.1916 54.3297C25.0949 54.3942 25.0305 54.4909 25.0041 54.6139C24.9748 54.7399 24.9601 54.8953 24.9572 55.0857L24.0458 54.863C23.996 54.5612 24.0429 54.3033 24.1806 54.0894L23.7235 53.7905C23.6473 53.896 23.6004 54.0279 23.5769 54.1861C23.5535 54.3444 23.5594 54.5231 23.5916 54.7224L23.1139 54.6052L23.2194 55.0681L23.7059 55.1854C23.8114 55.4813 23.9638 55.7363 24.166 55.9472C24.3652 56.1582 24.585 56.293 24.8224 56.3487V56.3545ZM25.7865 54.8953C25.9008 54.9216 26.0034 54.9832 26.0972 55.0769C26.1909 55.1707 26.2642 55.285 26.3199 55.4198L25.4759 55.2147C25.4906 55.0916 25.5199 55.0037 25.5667 54.9451C25.6136 54.8865 25.6869 54.8718 25.7895 54.8953H25.7865ZM24.1572 55.2703L24.9396 55.4608C24.9308 55.578 24.9045 55.663 24.8664 55.7157C24.8253 55.7685 24.7609 55.7831 24.67 55.7626C24.5557 55.7363 24.4561 55.6776 24.3682 55.5956C24.2803 55.5106 24.2099 55.4022 24.1572 55.2703Z" fill="#DF9800"/>
<path d="M25.8691 54.8367C25.9834 54.863 26.0859 54.9246 26.1797 55.0183C26.2735 55.1121 26.3467 55.2264 26.4024 55.3612L25.5584 55.1561C25.5731 55.033 25.6024 54.9451 25.6493 54.8865C25.6962 54.8279 25.7694 54.8132 25.872 54.8367H25.8691ZM24.2397 55.2117L25.0222 55.4022C25.0134 55.5194 24.987 55.6044 24.9489 55.6571C24.9079 55.7099 24.8434 55.7245 24.7526 55.704C24.6383 55.6777 24.5386 55.6191 24.4507 55.537C24.3628 55.452 24.2925 55.3436 24.2397 55.2117ZM24.902 56.296C25.0866 56.3399 25.2244 56.3311 25.3181 56.2696C25.4119 56.2051 25.4705 56.1143 25.4969 55.9971C25.5233 55.8769 25.5379 55.7216 25.5438 55.5311L26.4933 55.7626C26.5167 56.0117 26.464 56.2256 26.3409 56.4014L26.798 56.7003C26.8684 56.6183 26.9153 56.5069 26.9416 56.3663C26.968 56.2256 26.9709 56.0733 26.9534 55.9004L27.434 56.0176L27.3285 55.5546L26.842 55.4374C26.7746 55.241 26.6838 55.0594 26.5636 54.8923C26.4434 54.7253 26.3116 54.5847 26.1621 54.4704C26.0127 54.3561 25.8603 54.2799 25.702 54.2418C25.5116 54.1949 25.368 54.2037 25.2713 54.2711C25.1745 54.3356 25.1101 54.4323 25.0837 54.5554C25.0544 54.6814 25.0397 54.8367 25.0368 55.0271L24.1254 54.8044C24.0756 54.5026 24.1225 54.2447 24.2602 54.0308L23.8031 53.7319C23.7269 53.8374 23.68 53.9693 23.6565 54.1275C23.6331 54.2858 23.639 54.4645 23.6712 54.6638L23.1935 54.5466L23.299 55.0095L23.7855 55.1268C23.891 55.4227 24.0434 55.6777 24.2456 55.8886C24.4448 56.0996 24.6646 56.2344 24.902 56.2901V56.296Z" fill="#FFDE56"/>
<g style="mix-blend-mode:multiply">
<path d="M24.8986 52.027C23.5594 51.5581 22.5396 52.1618 22.5132 53.5654C22.4839 55.1947 23.7968 57.284 25.4496 58.2305C25.6283 58.333 25.8012 58.4151 25.9712 58.4825C25.7573 58.4092 25.5375 58.3067 25.3089 58.1777C23.6561 57.2312 22.3403 55.1419 22.3726 53.5127C22.3989 52.0592 23.4891 51.4644 24.8986 52.027Z" fill="#FFD700"/>
</g>
<g style="mix-blend-mode:multiply">
<path d="M28.1518 56.8902C28.1811 55.261 26.8653 53.1746 25.2155 52.2252C24.9576 52.0757 24.7056 51.9644 24.4653 51.8882C24.7671 51.9614 25.0895 52.0904 25.4206 52.2808C27.0734 53.2273 28.3892 55.3166 28.357 56.9459C28.3306 58.3349 27.3342 58.9414 26.0184 58.5019C27.2346 58.8184 28.1284 58.2059 28.1518 56.8902Z" fill="#FFD700"/>
</g>
<path d="M24.1106 51.8271C23.1025 51.7333 22.3963 52.3457 22.3728 53.5149C22.3435 55.1442 23.6564 57.2335 25.3092 58.18C25.7107 58.4115 26.0975 58.5521 26.4521 58.6107C26.0535 58.5726 25.6081 58.4261 25.1392 58.1565C23.4864 57.21 22.1706 55.1207 22.2029 53.4915C22.2263 52.2607 23.0117 51.6424 24.1106 51.8271Z" fill="#FCDE16"/>
<path d="M27.4425 59.9521L26.6718 60.5411C26.5605 60.5617 26.4462 60.5704 26.326 60.5763L27.0967 59.9873C27.2169 59.9815 27.3312 59.9727 27.4425 59.9521Z" fill="#FCDE16"/>
<path d="M26.3085 59.9121L25.5377 60.5011C25.4645 60.4835 25.3883 60.466 25.315 60.4425L26.0857 59.8535C26.1619 59.877 26.2352 59.8945 26.3085 59.9121Z" fill="#FCDE16"/>
<path d="M25.4908 59.627L24.7201 60.216C24.6586 60.1867 24.597 60.1603 24.5355 60.1281L25.3062 59.5391C25.3678 59.5713 25.4293 59.5977 25.4908 59.627Z" fill="#FCDE16"/>
<path d="M24.7961 59.2476L24.0253 59.8366C23.9726 59.8014 23.9169 59.7662 23.8642 59.7311L24.6349 59.1421C24.6876 59.1773 24.7433 59.2124 24.7961 59.2476Z" fill="#FCDE16"/>
<path d="M24.1808 58.8057L23.4101 59.3947C23.3603 59.3566 23.3134 59.3185 23.2636 59.2775L24.0343 58.6885C24.0812 58.7295 24.131 58.7676 24.1808 58.8057Z" fill="#FCDE16"/>
<path d="M23.627 58.3223L22.8563 58.9113C22.8123 58.8703 22.7684 58.8263 22.7244 58.7824L23.4951 58.1934C23.5391 58.2373 23.583 58.2783 23.627 58.3223Z" fill="#FCDE16"/>
<path d="M23.12 57.7993L22.3493 58.3883C22.3082 58.3444 22.2702 58.2975 22.2291 58.2506L22.9998 57.6616C23.0379 57.7085 23.079 57.7554 23.12 57.7993Z" fill="#FCDE16"/>
<path d="M22.6627 57.2403L21.8919 57.8293C21.8538 57.7794 21.8187 57.7326 21.7835 57.6827L22.5542 57.0938C22.5894 57.1436 22.6246 57.1905 22.6627 57.2403Z" fill="#FCDE16"/>
<path d="M22.2498 56.6485L21.4791 57.2375C21.4468 57.1847 21.4146 57.1349 21.3824 57.0822L22.1531 56.4932C22.1853 56.5459 22.2175 56.5957 22.2498 56.6485Z" fill="#FCDE16"/>
<path d="M21.8802 56.0171L21.1094 56.6061C21.0801 56.5504 21.0508 56.4977 21.0245 56.442L21.7952 55.853C21.8216 55.9087 21.8509 55.9614 21.8802 56.0171Z" fill="#FCDE16"/>
<path d="M21.5638 55.3496L20.7931 55.9386C20.7696 55.88 20.7433 55.8214 20.7227 55.7628L21.4935 55.1738C21.5169 55.2324 21.5404 55.291 21.5638 55.3496Z" fill="#FCDE16"/>
<path d="M21.3059 54.6363L20.5352 55.2253C20.5176 55.1637 20.4971 55.0993 20.4825 55.0377L21.2532 54.4487C21.2708 54.5103 21.2884 54.5747 21.3059 54.6363Z" fill="#FCDE16"/>
<path d="M21.1245 53.8623L20.3538 54.4513C20.342 54.381 20.3333 54.3136 20.3245 54.2462L21.0952 53.6572C21.104 53.7246 21.1128 53.795 21.1245 53.8623Z" fill="#FCDE16"/>
<path d="M21.0625 53.0015L20.2918 53.5905C20.2918 53.5085 20.2976 53.4293 20.3035 53.3502L21.0742 52.7612C21.0684 52.8403 21.0625 52.9195 21.0625 53.0015Z" fill="#FCDE16"/>
<path d="M21.2473 51.9527L20.4766 52.5417C20.5264 52.4098 20.585 52.2897 20.6524 52.1783L21.4231 51.5894C21.3557 51.7007 21.2971 51.8238 21.2473 51.9527Z" fill="#FCDE16"/>
<path d="M26.2939 50.6521C26.3643 50.6521 26.4201 50.5964 26.4201 50.5261V47.3145C26.4201 47.2442 26.3643 47.1885 26.2939 47.1885C26.2234 47.1885 26.1676 47.2442 26.1676 47.3145V50.5261C26.1676 50.5964 26.2234 50.6521 26.2939 50.6521Z" fill="#B3D7DD"/>
<path d="M25.1098 50.1454C25.1802 50.1454 25.236 50.0898 25.236 50.0194V48.2437C25.236 48.1734 25.1802 48.1177 25.1098 48.1177C25.0393 48.1177 24.9836 48.1734 24.9836 48.2437V50.0194C24.9836 50.0898 25.0393 50.1454 25.1098 50.1454Z" fill="#B3D7DD"/>
</g>
<defs>
<filter id="filter0_d_2747_5137" x="0" y="0" width="80" height="80" filterUnits="userSpaceOnUse" color-interpolation-filters="sRGB">
<feFlood flood-opacity="0" result="BackgroundImageFix"/>
<feColorMatrix in="SourceAlpha" type="matrix" values="0 0 0 0 0 0 0 0 0 0 0 0 0 0 0 0 0 0 127 0" result="hardAlpha"/>
<feOffset dy="2"/>
<feGaussianBlur stdDeviation="6"/>
<feComposite in2="hardAlpha" operator="out"/>
<feColorMatrix type="matrix" values="0 0 0 0 0 0 0 0 0 0 0 0 0 0 0 0 0 0 0.2 0"/>
<feBlend mode="normal" in2="BackgroundImageFix" result="effect1_dropShadow_2747_5137"/>
<feBlend mode="normal" in="SourceGraphic" in2="effect1_dropShadow_2747_5137" result="shape"/>
</filter>
</defs>
</svg>
