<svg width="41" height="40" viewBox="0 0 41 40" fill="none" xmlns="http://www.w3.org/2000/svg">
<path d="M26.6296 10.5814L23.4524 8.59385C23.2982 8.49736 23.171 8.36319 23.0829 8.20395C22.9947 8.04471 22.9484 7.86564 22.9484 7.68356C22.9484 7.50147 22.9947 7.32238 23.0828 7.16313C23.171 7.00388 23.2981 6.86969 23.4523 6.77319L26.6296 4.78595L26.7594 1.03608C26.7657 0.854115 26.8181 0.676746 26.9118 0.520676C27.0054 0.364606 27.1371 0.234967 27.2946 0.143964C27.452 0.052874 27.6299 0.00340401 27.8117 0.000211977C27.9935 -0.00298006 28.173 0.0402109 28.3335 0.125718L31.6409 1.88806L34.9477 0.12579C35.1053 0.04193 35.2781 0 35.4511 0C35.6393 -6.19283e-05 35.8241 0.0495973 35.987 0.143964C36.1444 0.234973 36.2761 0.364618 36.3697 0.520691C36.4633 0.676764 36.5157 0.854129 36.522 1.03608L36.652 4.78595L39.8292 6.77319C39.9834 6.86965 40.1105 7.00382 40.1987 7.16307C40.2869 7.32233 40.3331 7.50143 40.3331 7.68352C40.3331 7.86561 40.2869 8.04471 40.1987 8.20397C40.1105 8.36322 39.9834 8.49739 39.8292 8.59385L36.6518 10.5814L36.5218 14.331C36.5156 14.513 36.4633 14.6904 36.3697 14.8465C36.2762 15.0027 36.1444 15.1324 35.987 15.2234C35.8295 15.3144 35.6515 15.3638 35.4697 15.367C35.2879 15.3701 35.1083 15.3269 34.9478 15.2413L31.6409 13.4793L28.3335 15.2413C28.1761 15.3255 28.0031 15.367 27.8304 15.367C27.5526 15.367 27.2857 15.259 27.0859 15.0657C26.8861 14.8724 26.7691 14.609 26.7594 14.331L26.6296 10.5814Z" fill="#FCBB00"/>
<path d="M34.9637 4.76855V10.3656H33.6121V4.76855H34.9637Z" fill="white"/>
<path d="M31.3004 9.34334H29.2059L28.8581 10.3646H27.4354L29.4825 4.80713H31.0396L33.0867 10.3646H31.6482L31.3004 9.34334ZM30.9526 8.31418L30.2571 6.25587L29.5537 8.31418H30.9526Z" fill="white"/>
<path d="M20.2685 6.92954C20.2685 6.44252 19.8739 6.04736 19.3877 6.04736H13.7275C13.2409 6.04736 12.8467 6.44252 12.8467 6.92954V8.00008H20.2685V6.92954ZM24.1048 15.5475C20.5605 15.5475 17.6769 18.4355 17.6769 21.9853C17.6769 25.5351 20.5605 28.4233 24.1048 28.4233C27.6487 28.4233 30.5323 25.5353 30.5323 21.9853C30.5323 18.4354 27.6487 15.5475 24.1048 15.5475ZM24.1046 26.6473C21.5382 26.6473 19.4503 24.5558 19.4503 21.9853C19.4503 19.4148 21.5382 17.3235 24.1046 17.3235C26.6711 17.3235 28.7591 19.4148 28.7591 21.9853C28.7591 24.5558 26.6711 26.6473 24.1046 26.6473Z" fill="#00A650"/>
<path d="M24.1048 19.0882C22.5098 19.0882 21.212 20.3881 21.212 21.9856C21.212 23.5834 22.5098 24.8833 24.1048 24.8833C25.6998 24.8833 26.9978 23.5834 26.9978 21.9856C26.9978 20.3881 25.6998 19.0882 24.1048 19.0882ZM14.1992 14.3638C13.9045 14.3638 13.6649 14.6038 13.6649 14.8988C13.6649 15.1941 13.9045 15.4341 14.1992 15.4341C14.4939 15.4341 14.7336 15.1941 14.7336 14.8988C14.7334 14.6038 14.4937 14.3638 14.1992 14.3638Z" fill="#00A650"/>
<path d="M37.8385 11.8994L37.7642 14.0435C37.7323 14.962 37.239 15.7845 36.4447 16.2437C36.0429 16.4757 35.5873 16.5979 35.1235 16.5982C34.6908 16.5978 34.2647 16.4913 33.8824 16.288L31.9918 15.2806L30.1007 16.2881C30.0766 16.3009 30.0518 16.3123 30.0273 16.3243C31.4308 17.7973 32.2939 19.7912 32.2939 21.9833C32.2939 26.506 28.6201 30.1857 24.1047 30.1857C19.5892 30.1857 15.9154 26.506 15.9154 21.9833C15.9154 17.4606 19.5892 13.7812 24.1047 13.7812C24.8361 13.7812 25.545 13.8781 26.2201 14.0592C26.2198 14.0539 26.2192 14.0486 26.2192 14.0433L26.1448 11.8994L24.3285 10.7634C23.9346 10.5178 23.6124 10.1724 23.3943 9.76221H12.3123C10.526 9.76244 9.07303 11.2178 9.07303 13.0068V29.0702C9.07303 30.8593 10.526 32.3146 12.3123 32.3146H35.8967C37.683 32.3146 39.1363 30.8593 39.1363 29.0701V13.0067C39.1367 12.4299 38.9827 11.8636 38.6901 11.3667L37.8385 11.8994ZM14.1991 17.1962C12.9332 17.1962 11.9031 16.1646 11.9031 14.8965C11.9031 13.6286 12.9332 12.5971 14.1991 12.5971C15.4649 12.5971 16.495 13.6287 16.495 14.8965C16.4948 16.1647 15.4649 17.1962 14.1991 17.1962Z" fill="#00A650"/>
<path d="M12.0291 21.1965C12.5875 18.1542 10.5737 15.2352 7.53117 14.6769C4.48864 14.1185 1.5695 16.1321 1.01109 19.1745C0.45268 22.2168 2.46646 25.1358 5.50899 25.6941C8.55152 26.2525 11.4707 24.2389 12.0291 21.1965Z" fill="#FCDE16"/>
<g style="mix-blend-mode:multiply">
<path d="M0.990062 21.0744L2.3776 20.8512C2.54433 21.8854 3.09539 22.8603 3.99969 23.5385C5.85067 24.9287 8.48162 24.5557 9.87198 22.7021C10.5841 21.7526 10.8328 20.6025 10.6576 19.5174L12.0451 19.2942C12.5368 22.3488 10.4598 25.2226 7.40776 25.7143C4.35293 26.206 1.47895 24.1291 0.987236 21.0772L0.990062 21.0744Z" fill="#FFE455"/>
</g>
<g style="mix-blend-mode:multiply">
<path d="M7.08133 24.3395C9.37673 24.0305 10.9862 21.9194 10.6762 19.6243C10.3662 17.3292 8.25407 15.7191 5.95867 16.0281C3.66327 16.3371 2.05379 18.4482 2.3638 20.7433C2.67382 23.0385 4.78593 24.6485 7.08133 24.3395Z" fill="#FFD700"/>
</g>
<g style="mix-blend-mode:multiply">
<path d="M9.08611 17.3158C7.23512 15.9255 4.60417 16.2985 3.21381 18.1522C2.60623 18.9632 2.33494 19.9211 2.37733 20.8621C2.1993 19.7742 2.44798 18.6184 3.16294 17.6661C4.5533 15.8153 7.18143 15.4395 9.03524 16.8297C10.078 17.6125 10.6517 18.7851 10.7082 19.9917C10.5386 18.9603 9.98758 17.9911 9.08611 17.3158Z" fill="#DFCDA7"/>
</g>
<g style="mix-blend-mode:overlay">
<path d="M2.39146 20.9351C2.57514 21.9382 3.12055 22.8764 3.99942 23.5376C5.8504 24.9279 8.48135 24.5549 9.87171 22.7012C10.533 21.8224 10.793 20.7684 10.6884 19.7539C10.889 20.8644 10.646 22.0512 9.91693 23.0233C8.52657 24.8742 5.89845 25.25 4.04463 23.8597C3.07251 23.1307 2.50732 22.0569 2.39146 20.9351Z" fill="#FDE961"/>
</g>
<path d="M8.04645 21.3349C8.04645 21.0806 7.98711 20.8771 7.86559 20.7217C7.74408 20.5663 7.59713 20.4476 7.41909 20.3685C7.24106 20.2894 7.02064 20.2159 6.74935 20.1481V18.8398C7.09129 18.8878 7.40779 19.0319 7.70169 19.2721L7.96733 18.707C7.82603 18.5798 7.65365 18.4724 7.45018 18.3877C7.24671 18.3029 7.02629 18.2464 6.79456 18.2181V17.5569H6.18133V18.2266C5.927 18.2577 5.70375 18.334 5.50876 18.4527C5.31377 18.5713 5.16117 18.7183 5.05379 18.8991C4.9464 19.0771 4.88988 19.2749 4.88988 19.4925C4.88988 19.7525 4.95205 19.9644 5.07639 20.1283C5.20073 20.2922 5.35616 20.4137 5.53985 20.4957C5.72353 20.5776 5.95243 20.6539 6.2209 20.7217V21.9735C5.81396 21.9453 5.43811 21.7955 5.0877 21.5214L4.82206 22.0866C4.99444 22.2307 5.19508 22.3465 5.42681 22.4285C5.65854 22.5133 5.90722 22.5641 6.17568 22.5839V23.2395H6.78891V22.5698C7.17041 22.5133 7.47561 22.3748 7.70169 22.1516C7.92776 21.9283 8.0408 21.6542 8.0408 21.3293L8.04645 21.3349ZM5.66701 19.4501C5.66701 19.2947 5.71506 19.1619 5.81396 19.0574C5.91287 18.9528 6.04852 18.8822 6.2209 18.8454V20.0068C6.04286 19.9475 5.90722 19.874 5.81114 19.7864C5.71506 19.6988 5.66701 19.5858 5.66701 19.4473V19.4501ZM6.75217 21.9425V20.863C6.92173 20.9167 7.0489 20.9789 7.1365 21.0552C7.22411 21.1315 7.26932 21.2332 7.26932 21.3575C7.26932 21.5129 7.22411 21.6429 7.1365 21.739C7.0489 21.8379 6.9189 21.9057 6.75217 21.9396V21.9425Z" fill="#DF9800"/>
<path d="M5.55076 19.3081C5.55076 19.1526 5.5988 19.0198 5.69771 18.9153C5.79661 18.8107 5.93226 18.7401 6.10464 18.7033V19.8647C5.92661 19.8054 5.79096 19.7319 5.69488 19.6443C5.5988 19.5567 5.55076 19.4437 5.55076 19.3052V19.3081ZM6.63592 21.8004V20.7209C6.80547 20.7746 6.93264 20.8368 7.02024 20.9131C7.10785 20.9894 7.15306 21.0911 7.15306 21.2154C7.15306 21.3709 7.10785 21.5008 7.02024 21.5969C6.93264 21.6958 6.80265 21.7636 6.63592 21.7975V21.8004ZM7.9302 21.1928C7.9302 20.9385 7.87085 20.7351 7.74934 20.5796C7.62782 20.4242 7.48087 20.3055 7.30284 20.2264C7.1248 20.1473 6.90438 20.0738 6.63309 20.006V18.6977C6.97503 18.7457 7.29153 18.8898 7.58543 19.13L7.85107 18.5649C7.70977 18.4377 7.53739 18.3303 7.33392 18.2456C7.13046 18.1608 6.91003 18.1043 6.67831 18.076V17.4148H6.06508V18.0845C5.81074 18.1156 5.58749 18.1919 5.3925 18.3106C5.19751 18.4292 5.04492 18.5762 4.93753 18.757C4.83014 18.9351 4.77362 19.1329 4.77362 19.3504C4.77362 19.6104 4.8358 19.8223 4.96014 19.9862C5.08448 20.1501 5.2399 20.2716 5.42359 20.3536C5.60728 20.4355 5.83618 20.5118 6.10464 20.5796V21.8315C5.69771 21.8032 5.32186 21.6534 4.97144 21.3793L4.7058 21.9445C4.87819 22.0886 5.07883 22.2045 5.31055 22.2864C5.54228 22.3712 5.79096 22.422 6.05943 22.4418V23.0974H6.67265V22.4277C7.05416 22.3712 7.35936 22.2327 7.58543 22.0095C7.81151 21.7862 7.92454 21.5121 7.92454 21.1872L7.9302 21.1928Z" fill="#FFDE56"/>
<path d="M8.18223 14.0494C8.25582 14.0494 8.31809 13.99 8.31809 13.9137V12.2013C8.31809 12.1278 8.25865 12.0657 8.18223 12.0657C8.1058 12.0657 8.04636 12.125 8.04636 12.2013V13.9137C8.04636 13.9872 8.1058 14.0494 8.18223 14.0494Z" fill="#B3D7DD"/>
<path d="M6.37656 13.6884C6.45016 13.6884 6.51243 13.6291 6.51243 13.5528V5.61806C6.51243 5.54459 6.45299 5.48242 6.37656 5.48242C6.30014 5.48242 6.2407 5.54176 6.2407 5.61806V13.5556C6.2407 13.6291 6.30014 13.6912 6.37656 13.6912V13.6884Z" fill="#B3D7DD"/>
<path d="M4.84495 13.867C4.91854 13.867 4.98081 13.8076 4.98081 13.7314V11.2955C4.98081 11.2221 4.92137 11.1599 4.84495 11.1599C4.76852 11.1599 4.70908 11.2193 4.70908 11.2955V13.7314C4.70908 13.8048 4.76852 13.867 4.84495 13.867Z" fill="#B3D7DD"/>
<path d="M5.86463 30.6419L6.74067 30.105L6.96957 30.3847C7.56301 30.3847 8.24689 30.5797 8.97316 30.9951C11.1604 32.2497 12.904 35.0218 12.8645 37.1778C12.8588 37.4943 12.8136 37.7769 12.7373 38.0312L12.8814 38.2403L12.0845 38.8422C11.3526 39.4893 10.1714 39.5826 8.7923 38.7914C6.60502 37.5367 4.89533 34.7873 4.93489 32.6312C4.95185 31.6846 5.27966 31.029 5.86745 30.6419H5.86463Z" fill="#FCDE16"/>
<g style="mix-blend-mode:multiply">
<path d="M5.86463 30.6419L6.74067 30.105L6.96957 30.3847C7.56301 30.3847 8.24689 30.5797 8.97316 30.9951C11.1604 32.2497 12.904 35.0218 12.8645 37.1778C12.8588 37.4943 12.8136 37.7769 12.7373 38.0312L12.8814 38.2403L12.0845 38.8422C11.3526 39.4893 10.1714 39.5826 8.7923 38.7914C6.60502 37.5367 4.89533 34.7873 4.93489 32.6312C4.95185 31.6846 5.27118 31.0403 5.86745 30.6419H5.86463Z" fill="#FFD700"/>
</g>
<path d="M12.7686 38.2243C14.0501 37.2435 13.7117 34.6491 12.0128 32.4295C10.3139 30.21 7.89775 29.2058 6.61625 30.1865C5.33475 31.1673 5.67314 33.7617 7.37207 35.9813C9.071 38.2008 11.4871 39.2051 12.7686 38.2243Z" fill="#FCDE16"/>
<path d="M12.903 38.2101C14.1845 37.2293 13.8461 34.6349 12.1472 32.4154C10.4483 30.1958 8.03216 29.1916 6.75066 30.1724C5.46916 31.1532 5.80755 33.7475 7.50648 35.9671C9.20542 38.1867 11.6215 39.1909 12.903 38.2101Z" fill="#FCDE16"/>
<g style="mix-blend-mode:multiply">
<path d="M9.58641 30.2292L9.64576 31.2238C8.92515 30.8678 8.22149 30.7887 7.69586 31.0684C6.61918 31.6392 6.69548 33.5014 7.87107 35.2279C8.47299 36.1124 9.24448 36.7877 9.999 37.1607L10.0583 38.1554C7.93324 37.107 6.10486 34.4819 5.97487 32.292C5.84487 30.102 7.46131 29.1808 9.58641 30.2292Z" fill="#FFE455"/>
</g>
<g style="mix-blend-mode:multiply">
<path d="M12.1319 37.2009C13.0924 36.4658 12.8391 34.5217 11.566 32.8585C10.293 31.1954 8.48241 30.4431 7.5219 31.1782C6.5614 31.9134 6.81473 33.8575 8.08775 35.5206C9.36076 37.1837 11.1714 37.936 12.1319 37.2009Z" fill="#FFD700"/>
</g>
<path d="M9.30369 35.2762C9.48172 35.3186 9.61454 35.3102 9.70497 35.2508C9.7954 35.1886 9.85192 35.1011 9.87735 34.988C9.90279 34.8722 9.91692 34.7224 9.92257 34.5387L10.8382 34.762C10.8608 35.0022 10.8099 35.2084 10.6912 35.378L11.1321 35.6662C11.1999 35.5871 11.2451 35.4797 11.2705 35.3441C11.296 35.2084 11.2988 35.0615 11.2818 34.8948L11.7453 35.0078L11.6436 34.5613L11.1745 34.4483C11.1095 34.259 11.0219 34.0838 10.906 33.9227C10.7901 33.7616 10.663 33.626 10.5188 33.5158C10.3747 33.4056 10.2278 33.3321 10.0752 33.2954C9.89148 33.2502 9.75301 33.2587 9.65976 33.3236C9.5665 33.3858 9.50433 33.4791 9.4789 33.5977C9.45064 33.7193 9.43651 33.869 9.43368 34.0527L8.55481 33.8379C8.50677 33.5469 8.55199 33.2982 8.68481 33.0919L8.24396 32.8037C8.17049 32.9054 8.12527 33.0326 8.10266 33.1852C8.08006 33.3378 8.08571 33.5102 8.11679 33.7023L7.65617 33.5893L7.7579 34.0357L8.22701 34.1488C8.32874 34.4342 8.47569 34.68 8.67068 34.8835C8.86284 35.0869 9.07479 35.2169 9.30369 35.2706V35.2762ZM10.2334 33.869C10.3436 33.8945 10.4425 33.9538 10.533 34.0442C10.6234 34.1346 10.694 34.2448 10.7477 34.3748L9.93387 34.177C9.948 34.0583 9.97626 33.9736 10.0215 33.9171C10.0667 33.8605 10.1373 33.8464 10.2362 33.869H10.2334ZM8.6622 34.2307L9.41673 34.4144C9.40825 34.5274 9.38281 34.6094 9.34608 34.6602C9.30651 34.7111 9.24434 34.7252 9.15674 34.7054C9.04653 34.68 8.95045 34.6235 8.86567 34.5444C8.78089 34.4624 8.71307 34.3579 8.6622 34.2307Z" fill="#DF9800"/>
<path d="M10.313 33.8124C10.4232 33.8378 10.5221 33.8972 10.6126 33.9876C10.703 34.078 10.7736 34.1882 10.8273 34.3182L10.0135 34.1204C10.0276 34.0017 10.0558 33.9169 10.1011 33.8604C10.1463 33.8039 10.2169 33.7898 10.3158 33.8124H10.313ZM8.74178 34.1741L9.49631 34.3578C9.48783 34.4708 9.4624 34.5527 9.42566 34.6036C9.3861 34.6545 9.32393 34.6686 9.23632 34.6488C9.12611 34.6234 9.03003 34.5669 8.94525 34.4877C8.86047 34.4058 8.79265 34.3012 8.74178 34.1741ZM9.38045 35.2196C9.55848 35.262 9.6913 35.2535 9.78173 35.1942C9.87216 35.132 9.92868 35.0444 9.95411 34.9314C9.97955 34.8155 9.99368 34.6658 9.99933 34.4821L10.9149 34.7053C10.9375 34.9455 10.8867 35.1518 10.768 35.3213L11.2088 35.6096C11.2766 35.5304 11.3219 35.4231 11.3473 35.2874C11.3727 35.1518 11.3756 35.0048 11.3586 34.8381L11.8221 34.9512L11.7203 34.5047L11.2512 34.3917C11.1862 34.2023 11.0986 34.0271 10.9828 33.8661C10.8669 33.705 10.7397 33.5694 10.5956 33.4592C10.4515 33.349 10.3045 33.2755 10.1519 33.2388C9.96824 33.1935 9.82977 33.202 9.73651 33.267C9.64326 33.3292 9.58109 33.4224 9.55566 33.5411C9.5274 33.6626 9.51327 33.8124 9.51044 33.9961L8.63157 33.7813C8.58353 33.4902 8.62875 33.2416 8.76157 33.0353L8.32072 32.7471C8.24725 32.8488 8.20203 32.976 8.17942 33.1285C8.15682 33.2811 8.16247 33.4535 8.19355 33.6457L7.73293 33.5326L7.83466 33.9791L8.30376 34.0921C8.4055 34.3775 8.55245 34.6234 8.74744 34.8268C8.9396 35.0303 9.15155 35.1603 9.38045 35.214V35.2196Z" fill="#FFDE56"/>
<g style="mix-blend-mode:multiply">
<path d="M9.37719 31.103C8.08574 30.6509 7.10231 31.233 7.07688 32.5865C7.04862 34.1577 8.31464 36.1724 9.90847 37.0851C10.0808 37.184 10.2476 37.2632 10.4115 37.3282C10.2052 37.2575 9.99324 37.1586 9.77282 37.0343C8.17899 36.1216 6.91015 34.1068 6.94123 32.5357C6.96667 31.1341 8.01791 30.5605 9.37719 31.103Z" fill="#FFD700"/>
</g>
<g style="mix-blend-mode:multiply">
<path d="M12.5143 35.7928C12.5426 34.2217 11.2737 32.2097 9.68272 31.2942C9.43404 31.1501 9.19101 31.0427 8.95928 30.9692C9.25035 31.0399 9.56121 31.1642 9.88054 31.3479C11.4744 32.2606 12.7432 34.2754 12.7121 35.8465C12.6867 37.1859 11.7259 37.7708 10.457 37.347C11.6298 37.6522 12.4917 37.0616 12.5143 35.7928Z" fill="#FFD700"/>
</g>
<path d="M8.61729 30.9104C7.64517 30.82 6.96412 31.4105 6.94151 32.538C6.91325 34.1091 8.17927 36.1239 9.7731 37.0366C10.1603 37.2599 10.5333 37.3955 10.8752 37.452C10.4909 37.4153 10.0613 37.274 9.60919 37.014C8.01537 36.1013 6.74652 34.0865 6.77761 32.5154C6.80021 31.3286 7.55756 30.7324 8.61729 30.9104Z" fill="#FCDE16"/>
<path d="M11.8303 38.7451L11.0871 39.3131C10.9797 39.3329 10.8695 39.3414 10.7536 39.347L11.4969 38.779C11.6127 38.7734 11.7229 38.7649 11.8303 38.7451Z" fill="#FCDE16"/>
<path d="M10.7367 38.7069L9.99347 39.2749C9.92283 39.2579 9.84935 39.241 9.7787 39.2184L10.5219 38.6504C10.5954 38.673 10.666 38.69 10.7367 38.7069Z" fill="#FCDE16"/>
<path d="M9.94825 38.4315L9.20503 38.9994C9.14568 38.9712 9.08634 38.9457 9.02699 38.9147L9.77021 38.3467C9.82956 38.3778 9.8889 38.4032 9.94825 38.4315Z" fill="#FCDE16"/>
<path d="M9.27828 38.0661L8.53506 38.6341C8.48419 38.6002 8.4305 38.5662 8.37963 38.5323L9.12285 37.9644C9.17372 37.9983 9.22741 38.0322 9.27828 38.0661Z" fill="#FCDE16"/>
<path d="M8.68498 37.6399L7.94176 38.2079C7.89372 38.1711 7.8485 38.1344 7.80046 38.0948L8.54368 37.5269C8.5889 37.5664 8.63694 37.6031 8.68498 37.6399Z" fill="#FCDE16"/>
<path d="M8.15091 37.1737L7.40769 37.7416C7.3653 37.7021 7.32291 37.6597 7.28053 37.6173L8.02375 37.0493C8.06614 37.0917 8.10852 37.1313 8.15091 37.1737Z" fill="#FCDE16"/>
<path d="M7.66201 36.6694L6.91879 37.2374C6.87923 37.195 6.84249 37.1498 6.80293 37.1046L7.54615 36.5366C7.58288 36.5818 7.62245 36.627 7.66201 36.6694Z" fill="#FCDE16"/>
<path d="M7.22099 36.1301L6.47777 36.698C6.44103 36.65 6.40712 36.6048 6.37321 36.5567L7.11643 35.9888C7.15034 36.0368 7.18425 36.082 7.22099 36.1301Z" fill="#FCDE16"/>
<path d="M6.82284 35.5594L6.07961 36.1274C6.04853 36.0765 6.01744 36.0285 5.98636 35.9776L6.72958 35.4097C6.76067 35.4605 6.79175 35.5086 6.82284 35.5594Z" fill="#FCDE16"/>
<path d="M6.46641 34.9507L5.72319 35.5187C5.69493 35.465 5.66667 35.4141 5.64124 35.3605L6.38446 34.7925C6.40989 34.8462 6.43815 34.897 6.46641 34.9507Z" fill="#FCDE16"/>
<path d="M6.16133 34.3072L5.41811 34.8752C5.3955 34.8187 5.37007 34.7622 5.35029 34.7057L6.09351 34.1377C6.11612 34.1942 6.13872 34.2507 6.16133 34.3072Z" fill="#FCDE16"/>
<path d="M5.91267 33.6193L5.16945 34.1873C5.1525 34.128 5.13271 34.0658 5.11858 34.0065L5.8618 33.4385C5.87876 33.4978 5.89572 33.56 5.91267 33.6193Z" fill="#FCDE16"/>
<path d="M5.7377 32.8731L4.99448 33.4411C4.98317 33.3733 4.97469 33.3083 4.96622 33.2433L5.70944 32.6753C5.71792 32.7403 5.72639 32.8081 5.7377 32.8731Z" fill="#FCDE16"/>
<path d="M5.67792 32.0427L4.9347 32.6107C4.9347 32.5316 4.94035 32.4553 4.946 32.379L5.68923 31.811C5.68357 31.8873 5.67792 31.9636 5.67792 32.0427Z" fill="#FCDE16"/>
<path d="M5.85611 31.0311L5.11289 31.599C5.16093 31.4719 5.21745 31.356 5.28245 31.2486L6.02567 30.6807C5.96067 30.788 5.90415 30.9067 5.85611 31.0311Z" fill="#FCDE16"/>
<path d="M10.7226 29.7771C10.7905 29.7771 10.8443 29.7234 10.8443 29.6555V26.5585C10.8443 26.4907 10.7905 26.437 10.7226 26.437C10.6547 26.437 10.6009 26.4907 10.6009 26.5585V29.6555C10.6009 29.7234 10.6547 29.7771 10.7226 29.7771Z" fill="#B3D7DD"/>
<path d="M9.58076 29.2884C9.64869 29.2884 9.70247 29.2347 9.70247 29.1669V27.4545C9.70247 27.3867 9.64869 27.333 9.58076 27.333C9.51282 27.333 9.45905 27.3867 9.45905 27.4545V29.1669C9.45905 29.2347 9.51282 29.2884 9.58076 29.2884Z" fill="#B3D7DD"/>
</svg>
