<svg width="40" height="40" viewBox="0 0 40 40" fill="none" xmlns="http://www.w3.org/2000/svg">
<g clip-path="url(#clip0_2749_4948)">
<path d="M20 15C17.2433 15 15 17.2433 15 20C15 22.7567 17.2433 25 20 25C22.7567 25 25 22.7567 25 20C25 17.2433 22.7567 15 20 15ZM20 23.3333C18.1617 23.3333 16.6667 21.8383 16.6667 20C16.6667 18.1617 18.1617 16.6667 20 16.6667C21.8383 16.6667 23.3333 18.1617 23.3333 20C23.3333 21.8383 21.8383 23.3333 20 23.3333ZM12.5 10C10.2017 10 8.33333 11.8683 8.33333 14.1667V25.8333C8.33333 28.1317 10.2017 30 12.5 30H27.5C29.7983 30 31.6667 28.1317 31.6667 25.8333V14.1667C31.6667 11.8683 29.7983 10 27.5 10H25.455L24.05 7.815C23.5883 7.095 22.8033 6.66667 21.9467 6.66667H18.05C17.1933 6.66667 16.41 7.09667 15.9467 7.81333L14.5417 10H12.4967H12.5ZM30 14.1667V25.8333C30 27.2117 28.8783 28.3333 27.5 28.3333H12.5C11.1217 28.3333 10 27.2117 10 25.8333V14.1667C10 12.7883 11.1217 11.6667 12.5 11.6667H27.5C28.8783 11.6667 30 12.7883 30 14.1667ZM17.3517 8.715C17.505 8.47667 17.7667 8.33333 18.0517 8.33333H21.9483C22.2333 8.33333 22.495 8.47667 22.6483 8.715L23.4733 10H16.5267L17.3517 8.715ZM13.3333 39.1667C13.3333 39.6267 12.96 40 12.5 40H7.5C3.365 40 0 36.635 0 32.5V27.5C0 27.04 0.373333 26.6667 0.833333 26.6667C1.29333 26.6667 1.66667 27.04 1.66667 27.5V32.5C1.66667 35.7167 4.28333 38.3333 7.5 38.3333H12.5C12.96 38.3333 13.3333 38.7067 13.3333 39.1667ZM40 27.5V32.5C40 36.635 36.635 40 32.5 40H27.5C27.04 40 26.6667 39.6267 26.6667 39.1667C26.6667 38.7067 27.04 38.3333 27.5 38.3333H32.5C35.7167 38.3333 38.3333 35.7167 38.3333 32.5V27.5C38.3333 27.04 38.7067 26.6667 39.1667 26.6667C39.6267 26.6667 40 27.04 40 27.5ZM40 7.5V12.5C40 12.96 39.6267 13.3333 39.1667 13.3333C38.7067 13.3333 38.3333 12.96 38.3333 12.5V7.5C38.3333 4.28333 35.7167 1.66667 32.5 1.66667H27.5C27.04 1.66667 26.6667 1.29333 26.6667 0.833333C26.6667 0.373333 27.04 0 27.5 0H32.5C36.635 0 40 3.365 40 7.5ZM0 12.5V7.5C0 3.365 3.365 0 7.5 0H12.5C12.96 0 13.3333 0.373333 13.3333 0.833333C13.3333 1.29333 12.96 1.66667 12.5 1.66667H7.5C4.28333 1.66667 1.66667 4.28333 1.66667 7.5V12.5C1.66667 12.96 1.29333 13.3333 0.833333 13.3333C0.373333 13.3333 0 12.96 0 12.5Z" fill="#00A650"/>
</g>
<defs>
<clipPath id="clip0_2749_4948">
<rect width="40" height="40" fill="white"/>
</clipPath>
</defs>
</svg>
