<svg width="16" height="17" viewBox="0 0 16 17" fill="none" xmlns="http://www.w3.org/2000/svg">
<g clip-path="url(#clip0_2210_1649)">
<path d="M8 16.1667C12.4183 16.1667 16 12.585 16 8.16675C16 3.74847 12.4183 0.166748 8 0.166748C3.58172 0.166748 0 3.74847 0 8.16675C0 12.585 3.58172 16.1667 8 16.1667Z" fill="#48B02C"/>
<path fill-rule="evenodd" clip-rule="evenodd" d="M5.85197 7.90224L8 5.7542L8.23307 5.98098C8.2412 5.99169 8.2496 6.00219 8.25827 6.01247L10.9795 8.72743C11.2945 9.04239 11.7984 9.04239 12.1134 8.72743C12.2626 8.57649 12.3463 8.37278 12.3463 8.1605C12.3463 7.94823 12.2626 7.74452 12.1134 7.59358L11.3134 6.79987C11.3052 6.79128 11.2968 6.78288 11.2882 6.77468L8.58582 4.07231L8.56693 4.05342C8.50129 3.98787 8.4245 3.93455 8.34015 3.89594L8.32126 3.88964C8.17397 3.82733 8.01147 3.81023 7.85444 3.84052C7.6974 3.8708 7.55292 3.9471 7.43937 4.05972H7.42677L6.63307 4.85972C6.62449 4.86793 6.61609 4.87633 6.60787 4.88491L3.89291 7.59987C3.74255 7.75023 3.65808 7.95416 3.65808 8.1668C3.65808 8.37944 3.74255 8.58337 3.89291 8.73373C4.04327 8.88409 4.2472 8.96856 4.45984 8.96856C4.67248 8.96856 4.87641 8.88409 5.02677 8.73373L5.83307 7.92743C5.83952 7.91915 5.84582 7.91075 5.85197 7.90224ZM5.85197 11.4487L8 9.30066L8.23307 9.52743C8.2412 9.53814 8.2496 9.54865 8.25827 9.55893L10.9795 12.2739C11.2945 12.5889 11.7984 12.5889 12.1134 12.2739C12.2626 12.1229 12.3463 11.9192 12.3463 11.707C12.3463 11.4947 12.2626 11.291 12.1134 11.14L11.3134 10.3463C11.3052 10.3377 11.2968 10.3293 11.2882 10.3211L8.58582 7.61877L8.56693 7.59987C8.50129 7.53433 8.4245 7.48101 8.34015 7.44239L8.32126 7.43609C8.17397 7.37379 8.01147 7.35669 7.85444 7.38697C7.6974 7.41726 7.55292 7.49356 7.43937 7.60617H7.42677L6.63307 8.40617C6.62455 8.41231 6.61615 8.41861 6.60787 8.42507L3.89291 11.1463C3.81846 11.2208 3.7594 11.3092 3.71911 11.4064C3.67882 11.5037 3.65808 11.608 3.65808 11.7133C3.65808 11.9259 3.74255 12.1298 3.89291 12.2802C4.04327 12.4305 4.2472 12.515 4.45984 12.515C4.67248 12.515 4.87641 12.4305 5.02677 12.2802L5.83307 11.4676C5.83946 11.4614 5.84576 11.4551 5.85197 11.4487ZM8.32126 3.88964C8.31085 3.88521 8.30035 3.88101 8.28976 3.87704L8.32126 3.88964Z" fill="white"/>
</g>
<defs>
<clipPath id="clip0_2210_1649">
<rect width="16" height="16" fill="white" transform="translate(0 0.166748)"/>
</clipPath>
</defs>
</svg>
