<svg width="33" height="32" viewBox="0 0 33 32" fill="none" xmlns="http://www.w3.org/2000/svg">
<g clip-path="url(#clip0_966_5238)">
<path d="M21.2646 23.5597C20.9241 23.2192 20.4755 23.0262 19.9963 23.0126V21.8962C19.9963 21.6372 19.7864 21.4274 19.5275 21.4274C19.2686 21.4274 19.0588 21.6372 19.0588 21.8962V23.2322C18.897 23.3193 18.7489 23.4296 18.6192 23.5597L16.6764 25.5024C16.447 25.302 16.1718 25.1612 15.875 25.0925V17.6074H18.2775C18.7083 17.6074 19.0588 17.9579 19.0588 18.3887V19.7087C19.0588 19.9676 19.2686 20.1774 19.5275 20.1774C19.7864 20.1774 19.9963 19.9676 19.9963 19.7087V18.3887C19.9963 17.441 19.2253 16.6699 18.2775 16.6699H7.59375C6.646 16.6699 5.875 17.441 5.875 18.3887V25.028L5.78469 25.0977C5.72151 25.1468 5.64373 25.1733 5.56375 25.173H4.83537C4.63319 24.6863 4.15281 24.3431 3.59375 24.3431H1.34375C0.740687 24.3431 0.25 24.8338 0.25 25.4369V30.9062C0.25 31.5093 0.740687 32 1.34375 32H3.59375C4.15281 32 4.63325 31.6568 4.83544 31.17H14.7306C15.7425 31.17 16.6939 30.7759 17.4096 30.0602L21.2648 26.2056C21.9937 25.4757 21.9937 24.2888 21.2646 23.5597ZM11.5 17.6076V19.1437L11.2625 19.0079C11.143 18.9397 11.009 18.9055 10.875 18.9055C10.741 18.9055 10.6069 18.9397 10.4874 19.008L10.25 19.1437V17.6076H11.5ZM7.59375 17.6074H9.3125V19.5205C9.3125 19.7759 9.44969 20.014 9.6705 20.1422C9.77945 20.2052 9.903 20.2386 10.0289 20.239C10.1547 20.2394 10.2785 20.2069 10.3879 20.1446L10.875 19.8662L11.3621 20.1446C11.4707 20.2066 11.5936 20.2391 11.7187 20.239C11.8435 20.239 11.9684 20.2067 12.0795 20.1422C12.1882 20.0788 12.2785 19.9881 12.3413 19.8791C12.4041 19.77 12.4373 19.6464 12.4375 19.5205V17.6074H14.9375V25.0443H12.9981C12.9239 25.0445 12.8515 25.0216 12.7909 24.9788L12.6777 24.899C11.8949 24.3484 10.9756 24.0574 10.0194 24.0574H8.7075C8.05369 24.0574 7.40562 24.199 6.8125 24.4653V18.3887C6.8125 17.9579 7.16294 17.6074 7.59375 17.6074ZM20.6017 25.5429L16.7466 29.3972C16.2081 29.9358 15.4921 30.2324 14.7306 30.2324H4.9375V29.2655C4.9375 29.0066 4.72762 28.7968 4.46875 28.7968C4.20988 28.7968 4 29.0066 4 29.2655V30.6562C4 30.8802 3.81775 31.0624 3.59375 31.0624H1.34375C1.30233 31.0624 1.26261 31.0459 1.23332 31.0166C1.20403 30.9873 1.18755 30.9476 1.1875 30.9062V25.4368C1.1875 25.3506 1.25762 25.2805 1.34375 25.2805H3.59375C3.81775 25.2805 4 25.4628 4 25.6868V27.078C4 27.337 4.20988 27.5468 4.46875 27.5468C4.72762 27.5468 4.9375 27.337 4.9375 27.078V26.1105H5.56375C5.84969 26.1105 6.13163 26.0144 6.35769 25.8397L6.45669 25.7633C7.09769 25.2678 7.897 24.9949 8.7075 24.9949H10.0194C10.7816 24.9949 11.5143 25.2269 12.1379 25.6654L12.2507 25.745C12.4693 25.8995 12.7305 25.9823 12.9981 25.9818H15.45C15.6992 25.9818 15.9335 26.0789 16.1098 26.2552C16.1967 26.3416 16.2657 26.4444 16.3126 26.5577C16.3595 26.6709 16.3835 26.7923 16.3831 26.9149C16.3831 27.4294 15.9646 27.8481 15.45 27.8481H12.2222C11.9633 27.8481 11.7534 28.0579 11.7534 28.3169C11.7534 28.5758 11.9633 28.7856 12.2222 28.7856H15.45C16.4814 28.7856 17.3206 27.9464 17.3206 26.9149C17.3206 26.6988 17.2842 26.4884 17.2143 26.2904L19.2822 24.2225C19.3686 24.1356 19.4714 24.0667 19.5846 24.0198C19.6977 23.9729 19.8191 23.949 19.9416 23.9494C20.191 23.9494 20.4254 24.0464 20.6017 24.2227C20.9654 24.5864 20.9654 25.1787 20.6017 25.5429Z" fill="#00A650"/>
<path d="M2.59375 28.2502C2.46943 28.2502 2.3502 28.2996 2.26229 28.3875C2.17439 28.4754 2.125 28.5946 2.125 28.7189V29.3439C2.125 29.6029 2.33487 29.8127 2.59375 29.8127C2.85263 29.8127 3.0625 29.6029 3.0625 29.3439V28.7189C3.0625 28.5946 3.01311 28.4754 2.92521 28.3875C2.8373 28.2996 2.71807 28.2502 2.59375 28.2502ZM29.9062 3.90674C29.7819 3.90674 29.6627 3.95612 29.5748 4.04403C29.4869 4.13194 29.4375 4.25117 29.4375 4.37549V5.00049C29.4375 5.25943 29.6474 5.46924 29.9062 5.46924C30.1651 5.46924 30.375 5.25943 30.375 5.00049V4.37549C30.375 4.25117 30.3256 4.13194 30.2377 4.04403C30.1498 3.95612 30.0306 3.90674 29.9062 3.90674ZM15.0125 7.74518C13.9786 7.74518 13.1375 8.5863 13.1375 9.62018C13.1375 10.6541 13.9786 11.4952 15.0125 11.4952C16.0464 11.4952 16.8875 10.6541 16.8875 9.62018C16.8875 8.5863 16.0464 7.74518 15.0125 7.74518ZM15.0125 10.5577C14.4956 10.5577 14.075 10.1371 14.075 9.62018C14.075 9.10324 14.4956 8.68268 15.0125 8.68268C15.5294 8.68268 15.95 9.10324 15.95 9.62018C15.95 10.1371 15.5294 10.5577 15.0125 10.5577Z" fill="#00A650"/>
<path d="M31.1562 0H28.9062C28.3471 0 27.8667 0.343187 27.6646 0.83H17.7693C16.7575 0.83 15.806 1.22412 15.0904 1.93975L13.0746 3.955H8.13745C7.1897 3.955 6.4187 4.72606 6.4187 5.67375V7.8875C6.4187 8.14644 6.62858 8.35625 6.88745 8.35625C7.14633 8.35625 7.3562 8.14644 7.3562 7.8875V5.67375C7.3562 5.24294 7.70664 4.8925 8.13745 4.8925H15.1891C15.1826 4.95646 15.1793 5.02071 15.1793 5.085C15.1793 5.34556 15.2323 5.598 15.333 5.83H9.88683C9.53133 5.83 9.21845 6.06563 9.12564 6.40425C9.09001 6.53588 8.9887 6.63981 8.86014 6.67575C8.52664 6.76981 8.2937 7.08181 8.2937 7.43437V11.8062C8.2937 12.1599 8.52739 12.4718 8.86126 12.5645C8.98876 12.6001 9.09008 12.7039 9.12601 12.837C9.21845 13.1743 9.53133 13.4099 9.88683 13.4099H20.1381C20.4936 13.4099 20.8065 13.1743 20.8993 12.8355C20.9349 12.704 21.0362 12.6001 21.1629 12.5647C21.4975 12.4719 21.7313 12.1599 21.7313 11.8062V7.88194C21.9773 7.92212 22.2276 7.9425 22.4806 7.9425H22.6688V13.5662C22.6688 13.997 22.3183 14.3474 21.8875 14.3474H8.13751C7.7067 14.3474 7.35626 13.997 7.35626 13.5662V10.075C7.35626 9.81606 7.14639 9.60625 6.88751 9.60625C6.62864 9.60625 6.41876 9.81606 6.41876 10.075V13.5662C6.41876 14.5139 7.18976 15.2849 8.13751 15.2849H21.8875C22.8353 15.2849 23.6063 14.5139 23.6063 13.5662V7.9425H23.7925C24.8094 7.9425 25.8124 7.60006 26.6165 6.9785L26.7153 6.90219C26.7785 6.85314 26.8563 6.82663 26.9363 6.82688H27.6648C27.867 7.3135 28.3473 7.6565 28.9063 7.6565H31.1563C31.7593 7.6565 32.25 7.16581 32.25 6.56275V1.09375C32.2499 0.490687 31.7593 0 31.1562 0ZM20.7937 11.7007C20.4435 11.836 20.1643 12.1192 20.0323 12.4725H9.99251C9.86008 12.1189 9.58126 11.8362 9.2312 11.7008V7.53925C9.58126 7.404 9.86039 7.12087 9.99258 6.7675H16.2302C16.4855 6.89187 16.7659 6.95621 17.0499 6.95563H19.5018C19.5765 6.95563 19.6483 6.97837 19.709 7.02112L19.8221 7.10094C20.124 7.31349 20.4501 7.48924 20.7936 7.62444V11.7007H20.7937ZM27.5625 5.88938H26.9362C26.649 5.88982 26.3699 5.98501 26.1423 6.16019L26.0433 6.23663C25.4023 6.73213 24.6029 7.005 23.7924 7.005H22.4806C21.7184 7.005 20.9856 6.773 20.3621 6.3345L20.2492 6.25488C20.0306 6.1004 19.7695 6.01767 19.5018 6.01813H17.05C16.9274 6.01845 16.8059 5.99446 16.6927 5.94753C16.5794 5.90061 16.4766 5.83168 16.3901 5.74475C16.3032 5.65832 16.2343 5.55551 16.1874 5.44226C16.1405 5.32901 16.1165 5.20758 16.1168 5.085C16.1168 4.5705 16.5354 4.15181 17.05 4.15181H20.2778C20.5366 4.15181 20.7465 3.942 20.7465 3.68306C20.7465 3.42412 20.5366 3.21431 20.2778 3.21431H17.05C16.4427 3.21431 15.9021 3.50519 15.5601 3.955H14.4006L15.7533 2.60269C16.2918 2.06413 17.0078 1.7675 17.7693 1.7675H27.5625V5.88938ZM31.3125 6.56281C31.3125 6.649 31.2423 6.71906 31.1562 6.71906H28.9062C28.7985 6.71893 28.6952 6.67609 28.6191 6.59993C28.5429 6.52377 28.5001 6.42052 28.5 6.31281V1.34375C28.5 1.11975 28.6822 0.9375 28.9062 0.9375H31.1562C31.2423 0.9375 31.3125 1.00756 31.3125 1.09375V6.56281Z" fill="#00A650"/>
</g>
<defs>
<clipPath id="clip0_966_5238">
<rect width="32" height="32" fill="white" transform="translate(0.25)"/>
</clipPath>
</defs>
</svg>
