<svg width="40" height="40" viewBox="0 0 40 40" fill="none" xmlns="http://www.w3.org/2000/svg">
<path d="M34.1667 0H19.1667C15.95 0 13.3333 2.61667 13.3333 5.83333V8.33333H12.5C9.28333 8.33333 6.66667 10.95 6.66667 14.1667V16.6667H5.83333C2.61667 16.6667 0 19.2833 0 22.5V34.1667C0 37.3833 2.61667 40 5.83333 40H20.8333C24.05 40 26.6667 37.3833 26.6667 34.1667V31.6667H27.5C30.7167 31.6667 33.3333 29.05 33.3333 25.8333V23.3333H34.1667C37.3833 23.3333 40 20.7167 40 17.5V5.83333C40 2.61667 37.3833 0 34.1667 0ZM1.66667 22.5C1.66667 20.2033 3.53667 18.3333 5.83333 18.3333H20.8333C23.1317 18.3333 25 20.2033 25 22.5V22.9517L18.1433 29.8083C17.7783 30.1717 17.1867 30.1733 16.8217 29.8083L14.4417 27.4283C13.4817 26.4683 11.9267 26.4133 10.8783 27.3217L1.94667 35.6317C1.77333 35.1733 1.66667 34.6833 1.66667 34.165V22.4983V22.5ZM25 34.1667C25 36.4633 23.1317 38.3333 20.8333 38.3333H5.83333C4.66333 38.3333 3.60833 37.845 2.85167 37.0667L11.9917 28.5633C12.3617 28.245 12.92 28.2633 13.2633 28.6083L15.6433 30.9883C16.6583 32.0033 18.31 32.0033 19.3217 30.9883L25 25.31V34.1667ZM31.6667 25.8333C31.6667 28.13 29.7983 30 27.5 30H26.6667V22.5C26.6667 19.2833 24.05 16.6667 20.8333 16.6667H8.33333V14.1667C8.33333 11.87 10.2033 10 12.5 10H27.5C29.7983 10 31.6667 11.87 31.6667 14.1667V25.8333ZM38.3333 17.5C38.3333 19.7967 36.465 21.6667 34.1667 21.6667H33.3333V14.1667C33.3333 10.95 30.7167 8.33333 27.5 8.33333H15V5.83333C15 3.53667 16.87 1.66667 19.1667 1.66667H34.1667C36.465 1.66667 38.3333 3.53667 38.3333 5.83333V17.5ZM5 23.3333C5 22.4133 5.74667 21.6667 6.66667 21.6667C7.58667 21.6667 8.33333 22.4133 8.33333 23.3333C8.33333 24.2533 7.58667 25 6.66667 25C5.74667 25 5 24.2533 5 23.3333Z" fill="#00A650"/>
</svg>
