<svg width="33" height="32" viewBox="0 0 33 32" fill="none" xmlns="http://www.w3.org/2000/svg">
<g clip-path="url(#clip0_966_5245)">
<path d="M12.6733 17.0914C12.6733 17.8977 12.9124 18.6859 13.3604 19.3562C13.8083 20.0266 14.445 20.5492 15.1899 20.8577C15.9348 21.1663 16.7545 21.247 17.5453 21.0897C18.336 20.9324 19.0624 20.5441 19.6326 19.974C20.2027 19.4039 20.5909 18.6775 20.7482 17.8867C20.9055 17.0959 20.8248 16.2762 20.5163 15.5313C20.2077 14.7864 19.6852 14.1498 19.0148 13.7018C18.3444 13.2539 17.5562 13.0148 16.7499 13.0148C15.6691 13.016 14.6329 13.4459 13.8687 14.2101C13.1044 14.9744 12.6745 16.0106 12.6733 17.0914ZM16.7499 13.89C17.3831 13.89 18.0021 14.0778 18.5285 14.4296C19.055 14.7813 19.4653 15.2813 19.7076 15.8663C19.9499 16.4513 20.0133 17.0949 19.8898 17.716C19.7663 18.337 19.4614 18.9074 19.0137 19.3551C18.5659 19.8028 17.9955 20.1077 17.3745 20.2313C16.7535 20.3548 16.1098 20.2914 15.5248 20.0491C14.9399 19.8068 14.4399 19.3964 14.0881 18.87C13.7363 18.3435 13.5486 17.7246 13.5486 17.0914C13.5495 16.2426 13.8871 15.4289 14.4873 14.8287C15.0875 14.2286 15.9012 13.891 16.7499 13.89ZM18.3303 21.7668H15.1696C12.1519 21.7668 9.69688 24.0293 9.69688 26.8106V30.2512C9.69743 30.5638 9.82197 30.8635 10.0432 31.0844C10.2644 31.3053 10.5642 31.4295 10.8768 31.4296H22.6231C22.9357 31.4295 23.2354 31.3053 23.4566 31.0845C23.6778 30.8636 23.8024 30.564 23.803 30.2514V26.8108C23.803 24.0296 21.3479 21.7668 18.3303 21.7668ZM22.9278 30.2514C22.9265 30.3316 22.8939 30.4082 22.837 30.4648C22.7801 30.5214 22.7033 30.5535 22.6231 30.5543H20.7114V26.8106C20.7114 26.6946 20.6653 26.5833 20.5833 26.5012C20.5013 26.4192 20.39 26.3731 20.2739 26.3731C20.1579 26.3731 20.0466 26.4192 19.9646 26.5012C19.8825 26.5833 19.8364 26.6946 19.8364 26.8106V30.5543H13.6638V26.8106C13.6638 26.6946 13.6177 26.5833 13.5356 26.5012C13.4536 26.4192 13.3423 26.3731 13.2263 26.3731C13.1102 26.3731 12.9989 26.4192 12.9169 26.5012C12.8348 26.5833 12.7888 26.6946 12.7888 26.8106V30.5543H10.8768C10.7963 30.5545 10.719 30.5226 10.6618 30.4659C10.6047 30.4091 10.5725 30.3319 10.5721 30.2514V26.8108C10.5721 24.5121 12.6346 22.642 15.1696 22.642H18.3303C20.8653 22.642 22.9278 24.5121 22.9278 26.8108V30.2514ZM11.5452 4.94127C11.6331 4.9413 11.7189 4.91476 11.7914 4.86515L12.6361 4.28896V8.59977C12.6361 9.04233 12.9708 9.4024 13.382 9.4024H15.5066C15.5182 9.40327 15.5298 9.40415 15.5417 9.40415C15.5536 9.40415 15.5651 9.40327 15.5768 9.4024H17.9232C17.9348 9.40327 17.9464 9.40415 17.9583 9.40415C17.9701 9.40415 17.9818 9.40327 17.9933 9.4024H20.1161C20.5286 9.4024 20.8638 9.04233 20.8638 8.59977V4.28877L21.7085 4.86508C21.8044 4.9305 21.9223 4.95516 22.0363 4.93363C22.1504 4.91211 22.2512 4.84616 22.3166 4.7503C22.382 4.65444 22.4067 4.53652 22.3851 4.42248C22.3636 4.30844 22.2977 4.20763 22.2018 4.14221L18.8834 1.87802C18.8813 1.87652 18.879 1.8754 18.8768 1.87396L17.1508 0.696272L17.1483 0.694647C17.0307 0.61371 16.8913 0.570512 16.7485 0.570802C16.6057 0.571093 16.4665 0.614858 16.3492 0.696272L12.9821 2.99352L11.2982 4.14215C11.2208 4.19483 11.1624 4.27093 11.1315 4.35927C11.1006 4.44762 11.0988 4.54355 11.1264 4.63297C11.1541 4.72239 11.2097 4.80059 11.285 4.85608C11.3604 4.91158 11.4516 4.94143 11.5452 4.94127ZM17.5206 8.52715H15.9793V6.66508C15.9811 6.4619 16.0631 6.26765 16.2075 6.12462C16.3518 5.98158 16.5468 5.90134 16.75 5.90134C16.9532 5.90134 17.1481 5.98158 17.2925 6.12462C17.4368 6.26765 17.5188 6.4619 17.5206 6.66508V8.52715ZM16.7499 1.48233L19.9886 3.69196V8.52715H18.3959V6.66508C18.3932 6.23032 18.2186 5.81427 17.9102 5.50779C17.6019 5.20131 17.1847 5.02929 16.75 5.02929C16.3152 5.02929 15.8981 5.20131 15.5897 5.50779C15.2813 5.81427 15.1067 6.23032 15.1041 6.66508V8.52715H13.5114V3.69183L15.1575 2.56896C15.1589 2.56802 15.1602 2.56683 15.1616 2.56583L16.7499 1.48233ZM28.1773 15.5022C27.2726 15.502 26.3882 15.7701 25.636 16.2726C24.8837 16.7751 24.2973 17.4893 23.951 18.3251C23.6048 19.1608 23.5141 20.0805 23.6905 20.9678C23.8669 21.855 24.3025 22.6701 24.9422 23.3098C25.5818 23.9495 26.3968 24.3851 27.2841 24.5616C28.1713 24.7381 29.091 24.6475 29.9268 24.3012C30.7625 23.955 31.4769 23.3687 31.9794 22.6164C32.4819 21.8642 32.7501 20.9799 32.7499 20.0752C32.7484 18.8629 32.2662 17.7007 31.409 16.8434C30.5518 15.9862 29.3896 15.5038 28.1773 15.5022ZM28.1773 23.7741C27.4458 23.7743 26.7307 23.5575 26.1224 23.1512C25.5141 22.745 25.04 22.1674 24.76 21.4917C24.4799 20.8159 24.4066 20.0723 24.5491 19.3549C24.6917 18.6374 25.0438 17.9784 25.561 17.4611C26.0781 16.9438 26.7371 16.5914 27.4545 16.4486C28.1718 16.3058 28.9155 16.3789 29.5913 16.6587C30.2672 16.9385 30.8449 17.4124 31.2513 18.0206C31.6578 18.6287 31.8748 19.3437 31.8749 20.0752C31.8738 21.0557 31.4839 21.9956 30.7907 22.689C30.0975 23.3824 29.1577 23.7726 28.1773 23.7741ZM30.5046 18.1409C30.2028 17.8401 29.794 17.6712 29.3678 17.6712C28.9416 17.6712 28.5328 17.8401 28.2309 18.1409L28.1766 18.1953L28.1217 18.141C27.8198 17.8415 27.4115 17.6739 26.9863 17.6748C26.5611 17.6757 26.1535 17.845 25.8528 18.1457C25.5521 18.4463 25.3828 18.8539 25.3819 19.2791C25.381 19.7043 25.5486 20.1126 25.8481 20.4145L27.7278 22.294C27.7865 22.3527 27.8563 22.3992 27.9331 22.4309C28.0099 22.4626 28.0922 22.4787 28.1753 22.4785C28.3442 22.4785 28.5063 22.4122 28.6268 22.2939L30.504 20.415C30.6534 20.2657 30.772 20.0885 30.8529 19.8934C30.9338 19.6983 30.9755 19.4892 30.9756 19.278C30.9756 19.0668 30.9341 18.8577 30.8533 18.6625C30.7725 18.4674 30.654 18.2901 30.5046 18.1408V18.1409ZM29.8859 19.7958L28.1775 21.5058L26.4673 19.7956C26.3307 19.658 26.2543 19.4718 26.2548 19.2779C26.2554 19.084 26.3327 18.8982 26.47 18.7613C26.6073 18.6243 26.7932 18.5474 26.9871 18.5473C27.181 18.5473 27.367 18.6241 27.5044 18.761L27.7278 18.9825C27.786 19.0416 27.8553 19.0885 27.9318 19.1206C28.0083 19.1527 28.0903 19.1694 28.1733 19.1696H28.177C28.2606 19.1698 28.3435 19.1534 28.4207 19.1214C28.4979 19.0893 28.5681 19.0423 28.627 18.983L28.8502 18.7597C28.918 18.6908 28.9988 18.6359 29.0879 18.5984C29.1771 18.5608 29.2727 18.5413 29.3694 18.5409C29.4662 18.5405 29.562 18.5593 29.6514 18.5961C29.7408 18.633 29.8221 18.6871 29.8904 18.7555C29.9588 18.8239 30.013 18.9052 30.0498 18.9946C30.0866 19.0841 30.1053 19.1799 30.1049 19.2766C30.1045 19.3733 30.0849 19.469 30.0473 19.5581C30.0097 19.6472 29.9548 19.728 29.8859 19.7958ZM5.323 15.502C4.41843 15.5021 3.5342 15.7705 2.78213 16.2731C2.03005 16.7757 1.44392 17.4901 1.09784 18.3258C0.751764 19.1616 0.661288 20.0812 0.837854 20.9684C1.01442 21.8556 1.4501 22.6705 2.0898 23.31C2.72949 23.9496 3.54448 24.3851 4.43169 24.5615C5.3189 24.7379 6.23849 24.6472 7.07417 24.301C7.90986 23.9547 8.6241 23.3684 9.12658 22.6162C9.62906 21.8641 9.89722 20.9798 9.89713 20.0752C9.89582 18.8625 9.41341 17.6999 8.55578 16.8425C7.69815 15.9852 6.53538 15.5031 5.32269 15.5022L5.323 15.502ZM5.323 23.774C4.59157 23.7739 3.87659 23.5569 3.26847 23.1505C2.66035 22.744 2.1864 22.1664 1.90654 21.4906C1.62669 20.8149 1.5535 20.0713 1.69623 19.3539C1.83896 18.6365 2.19119 17.9776 2.7084 17.4604C3.22561 16.9432 3.88457 16.591 4.60194 16.4483C5.31932 16.3056 6.0629 16.3788 6.73867 16.6587C7.41443 16.9386 7.99204 17.4125 8.39844 18.0207C8.80485 18.6288 9.02181 19.3438 9.02188 20.0752C9.02094 21.056 8.63089 21.9963 7.93736 22.6898C7.24382 23.3833 6.30347 23.7733 5.32269 23.7741L5.323 23.774ZM7.08225 19.0507H6.34669V18.3156C6.34458 18.0454 6.23576 17.787 6.04395 17.5967C5.85213 17.4064 5.59287 17.2996 5.32266 17.2996C5.05245 17.2996 4.79319 17.4064 4.60137 17.5967C4.40956 17.787 4.30074 18.0454 4.29863 18.3156V19.0509H3.56338C3.2918 19.0509 3.03134 19.1588 2.8393 19.3508C2.64727 19.5429 2.53938 19.8033 2.53938 20.0749C2.53938 20.3465 2.64727 20.6069 2.8393 20.799C3.03134 20.991 3.2918 21.0989 3.56338 21.0989H4.29863V21.8341C4.29757 21.9693 4.32328 22.1033 4.37427 22.2285C4.42526 22.3537 4.50052 22.4675 4.59572 22.5634C4.69091 22.6594 4.80416 22.7355 4.92892 22.7875C5.05369 22.8395 5.18751 22.8662 5.32266 22.8662C5.45782 22.8662 5.59163 22.8395 5.7164 22.7875C5.84117 22.7355 5.95441 22.6594 6.04961 22.5634C6.1448 22.4675 6.22006 22.3537 6.27105 22.2285C6.32204 22.1033 6.34775 21.9693 6.34669 21.8341V21.0989H7.08194C7.35352 21.0989 7.61398 20.991 7.80602 20.799C7.99806 20.6069 8.10594 20.3465 8.10594 20.0749C8.10594 19.8033 7.99806 19.5429 7.80602 19.3508C7.61398 19.1588 7.35352 19.0509 7.08194 19.0509L7.08225 19.0507ZM7.08225 20.2235H5.90907C5.79304 20.2235 5.68176 20.2696 5.59971 20.3516C5.51766 20.4336 5.47157 20.5449 5.47157 20.661V21.8338C5.47197 21.8536 5.46842 21.8733 5.46113 21.8917C5.45384 21.9101 5.44294 21.9269 5.42909 21.941C5.41523 21.9552 5.39869 21.9664 5.38044 21.9741C5.36219 21.9817 5.34258 21.9857 5.32279 21.9857C5.30299 21.9857 5.28339 21.9817 5.26513 21.9741C5.24688 21.9664 5.23034 21.9552 5.21649 21.941C5.20263 21.9269 5.19174 21.9101 5.18444 21.8917C5.17715 21.8733 5.1736 21.8536 5.17401 21.8338V20.6613C5.17401 20.5452 5.12791 20.434 5.04586 20.3519C4.96382 20.2699 4.85254 20.2238 4.73651 20.2238H3.56338C3.52393 20.2238 3.48609 20.2081 3.4582 20.1802C3.4303 20.1523 3.41463 20.1145 3.41463 20.075C3.41463 20.0356 3.4303 19.9977 3.4582 19.9698C3.48609 19.9419 3.52393 19.9263 3.56338 19.9263H4.73625C4.85229 19.9263 4.96357 19.8802 5.04561 19.7981C5.12766 19.7161 5.17375 19.6048 5.17375 19.4888V18.3156C5.17455 18.2767 5.19058 18.2396 5.21839 18.2124C5.24621 18.1851 5.2836 18.1699 5.32254 18.1699C5.36148 18.1699 5.39886 18.1851 5.42668 18.2124C5.45449 18.2396 5.47052 18.2767 5.47132 18.3156V19.4885C5.47132 19.6046 5.51741 19.7158 5.59946 19.7979C5.68151 19.8799 5.79279 19.926 5.90882 19.926H7.08169C7.12114 19.926 7.15898 19.9417 7.18687 19.9696C7.21477 19.9975 7.23044 20.0353 7.23044 20.0748C7.23044 20.1142 7.21477 20.1521 7.18687 20.18C7.15898 20.2079 7.12114 20.2235 7.08169 20.2235L7.08225 20.2235ZM6.05263 14.2089C6.95714 14.2087 7.84128 13.9404 8.59328 13.4377C9.34527 12.9351 9.93135 12.2208 10.2774 11.3851C10.6235 10.5494 10.714 9.62988 10.5375 8.74276C10.3609 7.85565 9.92536 7.04079 9.28577 6.40121C8.64619 5.76163 7.83132 5.32606 6.9442 5.14956C6.05708 4.97307 5.13755 5.06358 4.30187 5.40964C3.46618 5.75571 2.75187 6.3418 2.24926 7.0938C1.74664 7.8458 1.47829 8.72995 1.47813 9.63446C1.47927 10.8473 1.9616 12.0102 2.81923 12.8678C3.67687 13.7255 4.83975 14.2078 6.05263 14.2089ZM6.05263 5.93696C6.7841 5.93713 7.49909 6.15421 8.10719 6.56073C8.71529 6.96726 9.18918 7.54498 9.46894 8.22084C9.7487 8.89669 9.82177 9.64033 9.6789 10.3577C9.53602 11.0751 9.18363 11.734 8.66628 12.2511C8.14893 12.7682 7.48986 13.1203 6.77241 13.2628C6.05497 13.4053 5.31136 13.3319 4.63564 13.0519C3.95992 12.7718 3.38242 12.2976 2.97618 11.6893C2.56994 11.081 2.35321 10.3659 2.35338 9.63446C2.35447 8.65385 2.74462 7.71375 3.43818 7.02052C4.13174 6.32729 5.07202 5.93759 6.05263 5.93696ZM4.62288 8.64396C4.62338 8.34161 4.71966 8.0472 4.89791 7.80298C5.07616 7.55876 5.3272 7.3773 5.61501 7.28465V6.90596C5.61501 6.78993 5.6611 6.67865 5.74315 6.5966C5.82519 6.51455 5.93647 6.46846 6.05251 6.46846C6.16854 6.46846 6.27982 6.51455 6.36186 6.5966C6.44391 6.67865 6.49001 6.78993 6.49001 6.90596V7.28527C6.69814 7.35276 6.88811 7.46688 7.04544 7.61895C7.20277 7.77101 7.32329 7.95699 7.39782 8.16271C7.43723 8.27186 7.43168 8.3922 7.38237 8.49726C7.33306 8.60231 7.24403 8.68348 7.13488 8.7229C7.02573 8.76231 6.90539 8.75676 6.80033 8.70745C6.69527 8.65814 6.61411 8.56911 6.57469 8.45996C6.54106 8.36406 6.48169 8.27926 6.40308 8.21485C6.32447 8.15044 6.22965 8.1089 6.12901 8.09477C6.02837 8.08065 5.92578 8.09449 5.83248 8.13477C5.73918 8.17505 5.65876 8.24023 5.60002 8.32317C5.54129 8.4061 5.50651 8.5036 5.49948 8.60499C5.49246 8.70637 5.51346 8.80773 5.5602 8.89798C5.60693 8.98822 5.67759 9.06387 5.76445 9.11664C5.8513 9.1694 5.951 9.19726 6.05263 9.19715C6.39303 9.19742 6.72214 9.31921 6.98073 9.54058C7.23931 9.76194 7.41038 10.0683 7.46313 10.4046C7.51589 10.7409 7.44686 11.085 7.26848 11.3749C7.0901 11.6648 6.81409 11.8815 6.49013 11.986V12.3649C6.49013 12.4809 6.44404 12.5922 6.36199 12.6743C6.27994 12.7563 6.16866 12.8024 6.05263 12.8024C5.9366 12.8024 5.82532 12.7563 5.74327 12.6743C5.66122 12.5922 5.61513 12.4809 5.61513 12.3649V11.986C5.40646 11.9187 5.21603 11.8045 5.05852 11.652C4.90101 11.4995 4.78064 11.3128 4.70669 11.1065C4.66774 10.9971 4.67381 10.8768 4.72358 10.7719C4.77335 10.6671 4.86273 10.5863 4.97207 10.5473C5.0814 10.5084 5.20173 10.5145 5.30659 10.5642C5.41145 10.614 5.49224 10.7034 5.53119 10.8127C5.56545 10.9081 5.62522 10.9922 5.70399 11.0559C5.78276 11.1196 5.87751 11.1605 5.97791 11.174C6.07831 11.1876 6.18051 11.1734 6.27337 11.1328C6.36623 11.0923 6.44618 11.0271 6.50452 10.9443C6.56285 10.8614 6.59733 10.7642 6.6042 10.6631C6.61107 10.562 6.59005 10.461 6.54345 10.371C6.49685 10.2811 6.42645 10.2056 6.33993 10.1529C6.2534 10.1002 6.15407 10.0723 6.05275 10.0721C5.67387 10.072 5.31053 9.92151 5.04246 9.65376C4.77439 9.38601 4.62349 9.02284 4.62288 8.64396ZM27.4473 14.2088C28.3519 14.2089 29.2362 13.9409 29.9884 13.4385C30.7407 12.936 31.327 12.2218 31.6733 11.3862C32.0197 10.5505 32.1104 9.63094 31.9341 8.74371C31.7578 7.85648 31.3223 7.04146 30.6828 6.4017C30.0433 5.76195 29.2284 5.3262 28.3413 5.14957C27.4541 4.97293 26.5345 5.06333 25.6987 5.40935C24.8629 5.75537 24.1485 6.34145 23.6458 7.09349C23.1431 7.84554 22.8747 8.72975 22.8746 9.63433C22.8757 10.8469 23.3577 12.0096 24.215 12.8672C25.0723 13.7248 26.2347 14.2073 27.4473 14.2089V14.2088ZM27.4473 5.93683C28.1789 5.93664 28.894 6.15339 29.5024 6.55969C30.1107 6.96598 30.5849 7.54357 30.865 8.21938C31.145 8.8952 31.2183 9.63889 31.0757 10.3564C30.933 11.0739 30.5808 11.733 30.0636 12.2503C29.5463 12.7676 28.8872 13.1198 28.1697 13.2625C27.4523 13.4052 26.7086 13.3319 26.0327 13.0519C25.3569 12.7719 24.7793 12.2978 24.3729 11.6895C23.9666 11.0812 23.7498 10.366 23.7499 9.63446C23.751 8.65417 24.1409 7.71434 24.8341 7.02116C25.5272 6.32798 26.467 5.93807 27.4473 5.93696V5.93683ZM25.2114 9.77596V11.2678C25.2117 11.4646 25.29 11.6533 25.4291 11.7925C25.5683 11.9316 25.757 12.0099 25.9538 12.0101H28.9408C29.1376 12.0099 29.3263 11.9317 29.4655 11.7925C29.6047 11.6533 29.683 11.4646 29.6832 11.2678V9.77596C29.8423 9.71345 29.979 9.60449 30.0754 9.46326C30.1717 9.32203 30.2234 9.15506 30.2236 8.98408V8.35158C30.2232 8.06225 30.1081 7.78486 29.9035 7.58027C29.6989 7.37568 29.4215 7.2606 29.1322 7.26027H25.7624C25.4731 7.2606 25.1957 7.37569 24.9911 7.58028C24.7865 7.78486 24.6715 8.06225 24.6711 8.35158V8.98408C24.6713 9.15508 24.7229 9.32206 24.8193 9.46331C24.9157 9.60456 25.0523 9.71355 25.2114 9.77608V9.77596ZM25.5464 8.35158C25.5471 8.2945 25.5701 8.23995 25.6104 8.19958C25.6508 8.15921 25.7054 8.13622 25.7624 8.13552H29.1322C29.1893 8.1362 29.2439 8.15918 29.2842 8.19955C29.3246 8.23992 29.3476 8.29449 29.3483 8.35158V8.95927H29.2456C29.1295 8.95927 29.0183 9.00536 28.9362 9.08741C28.8542 9.16946 28.8081 9.28074 28.8081 9.39677V11.1348H26.0868V9.39702C26.0868 9.28099 26.0407 9.16971 25.9587 9.08766C25.8766 9.00561 25.7654 8.95952 25.6493 8.95952H25.5466L25.5464 8.35158ZM16.7499 12.3646C16.6339 12.3646 16.5226 12.3185 16.4406 12.2364C16.3585 12.1544 16.3124 12.0431 16.3124 11.9271V10.4333C16.3124 10.3173 16.3585 10.206 16.4406 10.124C16.5226 10.0419 16.6339 9.99583 16.7499 9.99583C16.866 9.99583 16.9773 10.0419 17.0593 10.124C17.1413 10.206 17.1874 10.3173 17.1874 10.4333V11.9271C17.1874 12.0431 17.1413 12.1544 17.0593 12.2364C16.9773 12.3185 16.866 12.3646 16.7499 12.3646ZM11.0833 12.0777L12.9399 13.1496C12.9897 13.1783 13.0333 13.2166 13.0683 13.2621C13.1033 13.3077 13.129 13.3598 13.1439 13.4153C13.1587 13.4708 13.1625 13.5287 13.1551 13.5856C13.1476 13.6426 13.1289 13.6976 13.1002 13.7473C13.0715 13.7971 13.0332 13.8407 12.9876 13.8757C12.942 13.9107 12.89 13.9364 12.8345 13.9513C12.779 13.9661 12.7211 13.9699 12.6641 13.9624C12.6072 13.955 12.5522 13.9363 12.5024 13.9076L10.6458 12.8356C10.596 12.8069 10.5524 12.7687 10.5174 12.7231C10.4824 12.6775 10.4567 12.6255 10.4419 12.57C10.427 12.5145 10.4232 12.4566 10.4307 12.3996C10.4382 12.3426 10.4568 12.2877 10.4855 12.2379C10.5143 12.1882 10.5525 12.1445 10.5981 12.1096C10.6437 12.0746 10.6957 12.0489 10.7512 12.034C10.8067 12.0191 10.8646 12.0153 10.9216 12.0228C10.9785 12.0303 11.0335 12.049 11.0833 12.0777ZM20.5583 13.1495L22.4168 12.0776C22.4665 12.0489 22.5215 12.0302 22.5785 12.0227C22.6355 12.0152 22.6934 12.019 22.7489 12.0339C22.8044 12.0488 22.8564 12.0745 22.902 12.1095C22.9476 12.1445 22.9859 12.1881 23.0146 12.2379C23.0433 12.2877 23.062 12.3427 23.0695 12.3997C23.0769 12.4566 23.0731 12.5145 23.0582 12.5701C23.0434 12.6256 23.0177 12.6776 22.9827 12.7232C22.9477 12.7688 22.904 12.807 22.8543 12.8358L20.9956 13.9077C20.895 13.9657 20.7756 13.9814 20.6634 13.9514C20.5513 13.9213 20.4557 13.8479 20.3977 13.7474C20.3397 13.6468 20.324 13.5274 20.3541 13.4152C20.3841 13.3031 20.4575 13.2075 20.5581 13.1495H20.5583ZM12.5395 18.5282C12.5544 18.5837 12.5582 18.6416 12.5508 18.6986C12.5433 18.7556 12.5247 18.8105 12.4959 18.8603C12.4672 18.9101 12.429 18.9537 12.3834 18.9887C12.3378 19.0237 12.2858 19.0494 12.2303 19.0643L10.7846 19.4523C10.7291 19.4672 10.6712 19.471 10.6142 19.4635C10.5572 19.456 10.5023 19.4374 10.4525 19.4087C10.4027 19.38 10.3591 19.3417 10.3241 19.2961C10.2891 19.2506 10.2634 19.1985 10.2485 19.143C10.2336 19.0875 10.2298 19.0296 10.2373 18.9726C10.2448 18.9157 10.2634 18.8607 10.2921 18.8109C10.3208 18.7612 10.3591 18.7175 10.4046 18.6825C10.4502 18.6475 10.5023 18.6219 10.5578 18.607L12.0034 18.219C12.059 18.204 12.1169 18.2002 12.1739 18.2076C12.2309 18.2151 12.2859 18.2337 12.3357 18.2624C12.3855 18.2912 12.4291 18.3294 12.4641 18.375C12.4991 18.4206 12.5248 18.4727 12.5397 18.5282H12.5395ZM22.9416 18.607C22.9971 18.6218 23.0492 18.6475 23.0948 18.6825C23.1403 18.7175 23.1786 18.7611 23.2073 18.8109C23.236 18.8606 23.2547 18.9156 23.2622 18.9725C23.2697 19.0295 23.2659 19.0874 23.251 19.1429C23.2361 19.1984 23.2105 19.2504 23.1755 19.296C23.1405 19.3416 23.0969 19.3799 23.0471 19.4086C22.9973 19.4373 22.9424 19.456 22.8854 19.4634C22.8285 19.4709 22.7706 19.4671 22.7151 19.4523L21.2676 19.0643C21.1555 19.0342 21.06 18.9609 21.0019 18.8604C20.9439 18.7599 20.9282 18.6404 20.9583 18.5283C20.9883 18.4162 21.0616 18.3207 21.1621 18.2627C21.2627 18.2046 21.3821 18.1889 21.4942 18.219L22.9416 18.607Z" fill="#00A650"/>
</g>
<defs>
<clipPath id="clip0_966_5245">
<rect width="32" height="32" fill="white" transform="translate(0.75)"/>
</clipPath>
</defs>
</svg>
